G04 ================== begin FILE IDENTIFICATION RECORD ==================*
G04 Layout Name:  E:/0_Zeek_ST/Layout_V2/Zeekr_ST_0721A.brd*
G04 Film Name:    L1_PS.art*
G04 File Format:  Gerber RS274X*
G04 File Origin:  Cadence Allegro 16.6-2015-S108*
G04 Origin Date:  Fri Jul 21 04:23:01 2023*
G04 *
G04 Layer:  PACKAGE GEOMETRY/SHORT_LAYER_TOP*
G04 Layer:  VIA CLASS/TOP*
G04 Layer:  PIN/TOP*
G04 Layer:  ETCH/TOP*
G04 Layer:  DRAWING FORMAT/FILM_TITLE_BLOCK*
G04 Layer:  BOARD GEOMETRY/OUTLINE*
G04 *
G04 Offset:    (0.00 0.00)*
G04 Mirror:    No*
G04 Mode:      Positive*
G04 Rotation:  0*
G04 FullContactRelief:  No*
G04 UndefLineWidth:     7.00*
G04 ================== end FILE IDENTIFICATION RECORD ====================*
%FSLAX25Y25*MOIN*%
%IR0*IPPOS*OFA0.00000B0.00000*MIA0B0*SFA1.00000B1.00000*%
%ADD18R,.112X.07*%
%ADD19R,.07X.112*%
%ADD10C,.01*%
%ADD11C,.02*%
%ADD58C,.024*%
%ADD52R,.0618X.1201*%
%ADD43C,.025*%
%ADD51R,.04X.04*%
%ADD23C,.065*%
%ADD50C,.0354*%
%ADD22R,.165X.079*%
%ADD30C,.0591*%
%ADD24R,.065X.065*%
%ADD40O,.055X.15299*%
%ADD28R,.048X.048*%
%ADD14R,.066X.066*%
%ADD39O,.15299X.055*%
%ADD37C,.02559*%
%ADD29R,.0591X.0591*%
%ADD54R,.02165X.00787*%
%AMMACRO46*
4,1,41,.0276,0.0,
.0276,.0069,
.027493,.0081,
.02718,.009263,
.026669,.010354,
.025977,.011339,
.025124,.01219,
.024136,.012879,
.023044,.013387,
.02188,.013697,
.0207,.0138,
-.0207,.0138,
-.0219,.013693,
-.023063,.01338,
-.024154,.012869,
-.025139,.012177,
-.02599,.011324,
-.026679,.010336,
-.027187,.009244,
-.027497,.00808,
-.0276,.0069,
-.0276,-.0069,
-.027493,-.0081,
-.02718,-.009263,
-.026669,-.010354,
-.025977,-.011339,
-.025124,-.01219,
-.024136,-.012879,
-.023044,-.013387,
-.02188,-.013697,
-.0207,-.0138,
.0207,-.0138,
.0219,-.013693,
.023063,-.01338,
.024154,-.012869,
.025139,-.012177,
.02599,-.011324,
.026679,-.010336,
.027187,-.009244,
.027497,-.00808,
.0276,-.0069,
.0276,0.0,
0.0*
%
%ADD46MACRO46*%
%ADD53R,.05X.02*%
%ADD25R,.114X.213*%
%ADD49R,.07X.011*%
%ADD42R,.02X.025*%
%ADD48R,.011X.07*%
%ADD41R,.025X.02*%
%ADD12R,.033X.031*%
%ADD16R,.024X.063*%
%ADD13O,.035X.045*%
%ADD17R,.063X.024*%
%ADD15R,.059X.03*%
%ADD26R,.036X.055*%
%ADD47R,.048X.056*%
%ADD21R,.081X.069*%
%ADD20R,.069X.081*%
%ADD27R,.087X.055*%
%ADD36R,.06181X.01181*%
%ADD57R,.0185X.02362*%
%ADD33R,.035X.0299*%
%ADD38R,.06181X.02362*%
%ADD32R,.0299X.035*%
%ADD56R,.06776X.02011*%
%ADD55R,.02165X.01575*%
%ADD31C,.1969*%
%ADD45R,.07874X.03543*%
%ADD44R,.03543X.07874*%
%ADD35O,.07087X.03937*%
%ADD34O,.08268X.03937*%
%ADD59C,.012*%
%ADD60C,.03*%
%ADD61C,.04*%
%ADD62C,.015*%
%ADD63C,.005*%
%ADD64C,.007*%
%ADD65C,.006*%
%ADD66C,.0065*%
%ADD76C,.03404*%
%ADD73R,.08604X.16482*%
%ADD67C,.15004*%
%ADD68C,.21294*%
%ADD75R,.08204X.08204*%
%ADD69R,.04592X.05102*%
%ADD72R,.06604X.03604*%
%ADD71R,.05104X.04592*%
%ADD70R,.04592X.05104*%
%ADD74R,.07116X.04358*%
G75*
%LPD*%
G75*
G36*
G01X6500Y-98700D02*
X-3100Y-89100D01*
Y-56000D01*
X-3400Y-55700D01*
Y220500D01*
X-3300Y220600D01*
Y251600D01*
X4800Y259700D01*
X86000D01*
X88000Y257700D01*
Y250560D01*
G02X87146Y250206I-500J-1D01*
G01X84326Y253026D01*
X49575D01*
X45174Y248625D01*
Y241079D01*
X46779Y239474D01*
X47442D01*
G03X48774Y238142I2358J1026D01*
G01Y229175D01*
X53148Y224800D01*
Y202260D01*
X59585Y195824D01*
X88000D01*
Y189310D01*
X87272D01*
Y190336D01*
X83668D01*
Y185310D01*
X83178D01*
X83104Y185397D01*
G03Y183171I-1288J-1113D01*
G01X83178Y183258D01*
X83668D01*
Y178232D01*
X84268D01*
Y177882D01*
X86672D01*
Y178232D01*
X87272D01*
Y179258D01*
X87791D01*
X88000Y179048D01*
Y169310D01*
X87272D01*
Y174336D01*
X83668D01*
Y174218D01*
G02X82930Y173779I-500J0D01*
G03Y170789I-814J-1495D01*
G02X83668Y170350I238J-439D01*
G01Y166232D01*
X87272D01*
Y167258D01*
X88000D01*
Y162926D01*
X81658D01*
G03Y160874I-1358J-1026D01*
G01X88000D01*
Y148650D01*
X80730D01*
Y147870D01*
X74400D01*
Y148644D01*
X70296D01*
Y148044D01*
X69946D01*
Y145642D01*
X70296D01*
Y145042D01*
X74400D01*
Y145816D01*
X80730D01*
Y145036D01*
X88000D01*
Y143650D01*
X80730D01*
Y141931D01*
X79675Y140876D01*
X68343D01*
X65276Y143943D01*
Y177098D01*
X64025Y178350D01*
X61778D01*
X60677Y179450D01*
X60686Y179565D01*
G03X57630Y180714I-1698J123D01*
G01X55056D01*
Y182240D01*
X50464D01*
Y177136D01*
X55056D01*
Y178662D01*
X57630D01*
G03X59111Y177990I1358J1026D01*
G01X59226Y177999D01*
X60428Y176796D01*
X59030Y175397D01*
X58915Y175406D01*
G03X57434Y174734I-123J-1698D01*
G01X55056D01*
Y176260D01*
X50464D01*
Y171156D01*
X55056D01*
Y172682D01*
X57434D01*
G03X60490Y173831I1358J1026D01*
G01X60481Y173946D01*
X61582Y175046D01*
X61925D01*
X61974Y174998D01*
Y142575D01*
X66975Y137574D01*
X79675D01*
X80729Y136519D01*
Y135036D01*
X88000D01*
Y128650D01*
X80730D01*
Y127870D01*
X73123D01*
X72698Y127444D01*
X70296D01*
Y126844D01*
X69946D01*
Y124442D01*
X70296D01*
Y123404D01*
X69946D01*
Y121002D01*
X70296D01*
Y120404D01*
X69946D01*
Y118126D01*
X68575D01*
X67322Y116873D01*
Y116662D01*
X66296D01*
Y113058D01*
X67603D01*
G02X67780Y112631I0J-250D01*
G01X67507Y112359D01*
X66296D01*
Y108755D01*
X69946D01*
Y106158D01*
X70296D01*
Y105558D01*
X74400D01*
Y105816D01*
X80730D01*
Y105036D01*
X88000D01*
Y91428D01*
X87272D01*
Y92454D01*
X83668D01*
Y88328D01*
G02X82926Y87891I-500J0D01*
G03Y84913I-824J-1489D01*
G02X83668Y84476I242J-437D01*
G01Y80350D01*
X84268D01*
Y80000D01*
X86672D01*
Y80350D01*
X87272D01*
Y81376D01*
X88000D01*
Y71428D01*
X87272D01*
Y76454D01*
X83668D01*
Y75428D01*
X83264D01*
X83190Y75515D01*
G03Y73289I-1288J-1113D01*
G01X83264Y73376D01*
X83668D01*
Y68350D01*
X87272D01*
Y69376D01*
X88000D01*
Y65826D01*
X85958D01*
G03Y63774I-1358J-1026D01*
G01X88000D01*
Y50767D01*
X80730D01*
Y49986D01*
X74400D01*
Y50762D01*
X70296D01*
Y50162D01*
X69946D01*
Y47758D01*
X70296D01*
Y47158D01*
X74400D01*
Y47934D01*
X80730D01*
Y47153D01*
X88000D01*
Y45767D01*
X80730D01*
Y44986D01*
X78558D01*
G03X75502Y43837I-1358J-1026D01*
G01X75511Y43722D01*
X74920Y43132D01*
X62812D01*
X59124Y39443D01*
Y5543D01*
X59057Y5476D01*
X55475D01*
X55056Y5895D01*
Y9292D01*
X50464D01*
Y4188D01*
X53860D01*
X54298Y3750D01*
X53860Y3312D01*
X50464D01*
Y-1792D01*
X55056D01*
Y1605D01*
X55625Y2174D01*
X60425D01*
X62426Y4175D01*
Y38075D01*
X64180Y39828D01*
X74820D01*
X75411Y39238D01*
X75402Y39123D01*
G03X78458Y37974I1698J-123D01*
G01X80730D01*
Y37153D01*
X88000D01*
Y30767D01*
X80730D01*
Y29986D01*
X74743D01*
X72698Y27942D01*
X70296D01*
Y27342D01*
X69946D01*
Y24938D01*
X70296D01*
Y24342D01*
X69946D01*
Y21938D01*
X70296D01*
Y21342D01*
X69946D01*
Y19226D01*
X68475D01*
X67622Y18374D01*
G03X67419Y18085I726J-726D01*
G01X67352Y17942D01*
X66296D01*
Y10338D01*
X69946D01*
Y7938D01*
X70296D01*
Y7338D01*
X74400D01*
Y7934D01*
X80730D01*
Y7153D01*
X87800D01*
Y-4598D01*
X76388D01*
X60028Y-20958D01*
X55056D01*
Y-20608D01*
X50464D01*
Y-25712D01*
X55056D01*
Y-25362D01*
X61852D01*
X78212Y-9002D01*
X87800D01*
Y-19528D01*
X84165D01*
X78396Y-25297D01*
Y-82203D01*
X84339Y-88145D01*
G02X83985Y-88998I-354J-353D01*
G01X78532D01*
X70252Y-80718D01*
Y-73318D01*
X67032Y-70098D01*
X60268D01*
X57298Y-73068D01*
Y-98700D01*
X6500D01*
G37*
G36*
G01X251261Y44888D02*
X251252Y44773D01*
G03X252827Y46348I1698J-123D01*
G01X252712Y46339D01*
X250325Y48726D01*
X247175D01*
X245274Y46825D01*
Y45633D01*
G02X244420Y45279I-500J0D01*
G01X239802Y49898D01*
Y55098D01*
X271542D01*
Y42278D01*
X271391D01*
Y33674D01*
X271542D01*
Y25810D01*
X270498D01*
Y21706D01*
X271098D01*
Y21356D01*
X273502D01*
Y21706D01*
X274102D01*
Y25810D01*
X273944D01*
Y33674D01*
X285496D01*
Y30334D01*
X286214Y29615D01*
Y20939D01*
X292573Y14580D01*
G02X292220Y13726I-353J-354D01*
G01X270225D01*
X259990Y23962D01*
Y33674D01*
X270158D01*
Y42278D01*
X250148D01*
Y43743D01*
G03X250697Y44868I-1148J1257D01*
G01X250704Y44960D01*
X250946Y45202D01*
X251261Y44888D01*
G37*
G36*
G01X211224Y68608D02*
Y76628D01*
X211574D01*
Y79028D01*
X215224D01*
Y79628D01*
X216272D01*
X217710Y78190D01*
X223088D01*
Y68608D01*
X211224D01*
G37*
G36*
G01X231692Y101812D02*
X235602D01*
X237398Y100016D01*
Y92404D01*
X231692D01*
Y92554D01*
X223088D01*
Y89852D01*
X231692D01*
Y90002D01*
X237398D01*
Y80594D01*
X231692D01*
Y80744D01*
X223088D01*
Y80594D01*
X218706D01*
X217268Y82032D01*
X215224D01*
Y82632D01*
X214374D01*
Y82826D01*
X213025Y84174D01*
G02X213378Y85028I353J354D01*
G01X213522D01*
X214280Y84270D01*
X223088D01*
Y81978D01*
X231692D01*
Y82274D01*
X232942D01*
G03Y84326I1358J1026D01*
G01X231692D01*
Y88618D01*
X223088D01*
Y88292D01*
X220759D01*
X216826Y92225D01*
Y95525D01*
X215495Y96856D01*
X215224D01*
Y97632D01*
X214240D01*
X213842Y98029D01*
G02X214019Y98456I177J177D01*
G01X215224D01*
Y100322D01*
G02X216077Y100675I500J0D01*
G01X222639Y94114D01*
X223088D01*
Y93788D01*
X231692D01*
Y101812D01*
G37*
G36*
G01X209102Y101728D02*
X210420D01*
X210770Y101378D01*
Y99202D01*
X204398D01*
X201902Y101698D01*
Y122002D01*
X205198Y125298D01*
X206648D01*
Y122248D01*
X207120D01*
Y118898D01*
X208150D01*
X209475Y117574D01*
X210770D01*
Y115198D01*
X211120D01*
Y114602D01*
X210770D01*
Y112002D01*
X209102D01*
G03X207610Y110510I1J-1493D01*
G01Y109130D01*
G03X209102Y107638I1493J1D01*
G01X213242D01*
G03X214646Y108628I-1J1493D01*
G01X214705Y108794D01*
X215355D01*
X216374Y107775D01*
Y104489D01*
G02X215520Y104136I-500J0D01*
G01X214689Y104967D01*
X214671Y105027D01*
G03X213242Y106092I-1430J-428D01*
G01X209102D01*
G03X207610Y104600I1J-1493D01*
G01Y103220D01*
G03X209102Y101728I1493J1D01*
G37*
G36*
G01X322449Y115798D02*
X330950D01*
X334574Y112175D01*
Y108325D01*
X333206Y106957D01*
G02X332364Y107202I-354J353D01*
G01X328702D01*
Y109602D01*
X328352D01*
Y110198D01*
X328702D01*
Y112602D01*
X328352D01*
Y113202D01*
X324248D01*
Y112602D01*
X322902D01*
X322390Y112090D01*
X321205D01*
G03X318795I-1205J-1202D01*
G01X316492D01*
Y113798D01*
X320449D01*
X322449Y115798D01*
G37*
G36*
G01X263668Y118474D02*
Y115933D01*
X269002Y110598D01*
X298871D01*
G02X299041Y110165I0J-250D01*
G03X298842Y109946I1155J-1250D01*
G01X243006D01*
X238336Y114615D01*
Y118474D01*
X240630D01*
Y127078D01*
X240304D01*
Y132847D01*
X238626Y134525D01*
Y134942D01*
X242188D01*
Y132458D01*
G03Y129742I1027J-1358D01*
G01Y127078D01*
X241863D01*
Y118474D01*
X241929D01*
Y118136D01*
X241874Y118067D01*
G03X244726Y117753I1326J-1067D01*
G02X245175Y118474I449J221D01*
G01X263668D01*
G37*
G36*
G01X276098Y134942D02*
Y133998D01*
X271302Y129202D01*
X269260D01*
G02X268907Y130055I0J500D01*
G01X271762Y132911D01*
Y134942D01*
X272538D01*
Y138592D01*
X274938D01*
Y138942D01*
X275498D01*
Y134942D01*
X276098D01*
G37*
G36*
G01X126332Y-91098D02*
X125213Y-89980D01*
G02X125567Y-89126I354J354D01*
G01X125725D01*
X128325Y-86526D01*
X152425D01*
X155126Y-83825D01*
Y-55025D01*
X191425Y-18726D01*
X321375D01*
X322311Y-19662D01*
X322302Y-19777D01*
G03X325702Y-19923I1698J-123D01*
G02X325948Y-19677I250J-4D01*
G03X325802Y-16277I-23J1702D01*
G01X325687Y-16286D01*
X325230Y-15828D01*
G02X325407Y-15402I177J176D01*
G01X333295D01*
X339098Y-21205D01*
Y-49605D01*
X342139Y-52645D01*
G02X341785Y-53498I-354J-353D01*
G01X340068D01*
X338055Y-55512D01*
G02X337202Y-55158I-353J354D01*
G01Y-35205D01*
G03X336000Y-32298I-1202J1205D01*
G01X309672D01*
X308642Y-33329D01*
X308412Y-33098D01*
X286378D01*
X284168Y-35308D01*
X271978D01*
Y-35398D01*
X194102D01*
Y-22100D01*
G03X189698I-2202J0D01*
G01Y-49700D01*
G03X194102I2202J0D01*
G01Y-39802D01*
X271978D01*
Y-41412D01*
X272868Y-42302D01*
X275268D01*
X279548Y-46582D01*
Y-49328D01*
X279240D01*
Y-53332D01*
X280198D01*
Y-58452D01*
X280748Y-59002D01*
Y-59102D01*
X280848D01*
X281098Y-59352D01*
Y-59702D01*
X281448D01*
Y-71545D01*
X278328Y-74665D01*
Y-77744D01*
X277478D01*
Y-82336D01*
X282582D01*
Y-81742D01*
X284398D01*
Y-82336D01*
X289502D01*
Y-77744D01*
X284398D01*
Y-78338D01*
X282582D01*
Y-77744D01*
X281732D01*
Y-76075D01*
X284852Y-72955D01*
Y-59952D01*
X288698D01*
Y-63202D01*
X295378D01*
Y-71362D01*
X310398D01*
Y-77996D01*
G02X309972Y-78173I-250J0D01*
G01X309698Y-77898D01*
X309502D01*
Y-77298D01*
X302898D01*
Y-80902D01*
X308898D01*
Y-84698D01*
X302898D01*
Y-87498D01*
X298702D01*
Y-84698D01*
X292098D01*
Y-85474D01*
X289502D01*
Y-83264D01*
X284398D01*
Y-87498D01*
X262705D01*
X258505Y-83298D01*
X200686D01*
Y-82448D01*
X196094D01*
Y-87552D01*
X200686D01*
Y-86702D01*
X215985D01*
G02X216339Y-87555I0J-500D01*
G01X212795Y-91098D01*
X126332D01*
G37*
G36*
G01X119200Y-85774D02*
Y-83406D01*
X128132Y-74475D01*
Y-70394D01*
X129632D01*
Y-63990D01*
X123228D01*
Y-70394D01*
X124728D01*
Y-73065D01*
X120054Y-77740D01*
G02X119200Y-77387I-354J353D01*
G01Y-61432D01*
X123573D01*
X125635Y-59370D01*
X129632D01*
Y-57870D01*
X132208D01*
Y-59370D01*
X137575D01*
G02X137929Y-60223I0J-500D01*
G01X134161Y-63990D01*
X132208D01*
Y-70394D01*
X133708D01*
Y-73294D01*
G03X137112I1702J0D01*
G01Y-70394D01*
X138612D01*
Y-64353D01*
X143595Y-59370D01*
X147592D01*
Y-55373D01*
X150602Y-52363D01*
Y-41457D01*
X138612Y-29467D01*
Y-25470D01*
X132208D01*
Y-31874D01*
X136205D01*
X147198Y-42867D01*
Y-50953D01*
X145185Y-52966D01*
X141188D01*
Y-56963D01*
X139465Y-58687D01*
G02X138612Y-58333I-353J354D01*
G01Y-52966D01*
X132208D01*
Y-54466D01*
X129632D01*
Y-52966D01*
X125326D01*
G02X124889Y-52224I0J500D01*
G03X124674Y-50271I-1489J824D01*
G02X124651Y-49635I374J332D01*
G03X121703Y-48010I-1351J1035D01*
G01X121643Y-48174D01*
X119200D01*
Y-41606D01*
X128132Y-32675D01*
Y-31874D01*
X129632D01*
Y-25470D01*
X123228D01*
Y-31874D01*
X123517D01*
G02X123693Y-32300I-1J-250D01*
G01X120054Y-35940D01*
G02X119200Y-35587I-354J353D01*
G01Y-23006D01*
X122857Y-19350D01*
X123228D01*
Y-20850D01*
X129632D01*
Y-19350D01*
X132208D01*
Y-20850D01*
X138612D01*
Y-14446D01*
X132208D01*
Y-15946D01*
X129632D01*
Y-14446D01*
X123228D01*
Y-15946D01*
X121447D01*
X120054Y-17340D01*
G02X119200Y-16987I-354J353D01*
G01Y17153D01*
X126510D01*
Y17258D01*
X127297D01*
X129297Y19258D01*
X132840D01*
Y19158D01*
X133190D01*
Y18903D01*
X167495Y-15402D01*
X187640D01*
G02X187993Y-16255I0J-500D01*
G01X151074Y-53175D01*
Y-82275D01*
X150575Y-82774D01*
X126875D01*
X123875Y-85774D01*
X119200D01*
G37*
G36*
G01X327044Y-76920D02*
G03X326642Y-76350I-1854J-881D01*
G01Y-74820D01*
G03X327044Y-74250I-1452J1451D01*
G03X327692Y-73770I146J480D01*
G01Y-72970D01*
G03X327044Y-72490I-502J0D01*
G03X326642Y-71920I-1854J-881D01*
G01Y-70442D01*
X327192D01*
Y-62538D01*
X323782D01*
Y-50388D01*
X288522D01*
Y-49412D01*
X311092D01*
Y-35702D01*
X334798D01*
Y-76002D01*
X334202Y-76598D01*
X330853D01*
G03X327336Y-76920I-1663J-1202D01*
G03X327044I-146J-480D01*
G37*
G36*
G01X493652Y-19274D02*
Y-15380D01*
X495002D01*
Y-10676D01*
X490100D01*
Y-15498D01*
X488900D01*
Y-10676D01*
X483998D01*
Y-12002D01*
X481236D01*
X481172Y-11847D01*
G03X479477Y-10802I-1572J-653D01*
G01X479362Y-10811D01*
X456432Y12120D01*
G02X456785Y12974I353J354D01*
G01X483575D01*
X502211Y-5662D01*
X502202Y-5777D01*
G03X503777Y-4202I1698J-123D01*
G01X503662Y-4211D01*
X486082Y13370D01*
G02X486435Y14224I353J354D01*
G01X493957D01*
X508807Y-626D01*
X511238D01*
Y-3574D01*
X510575D01*
X494875Y-19274D01*
X493652D01*
G37*
G36*
G01X239802Y57502D02*
Y101012D01*
X236598Y104216D01*
X231692D01*
Y104366D01*
X223634D01*
X223253Y104746D01*
G02X223607Y105600I354J354D01*
G01X231692D01*
Y105924D01*
X232025D01*
X233374Y107274D01*
X235975D01*
X237175Y106074D01*
X241961D01*
G02X242443Y105439I0J-500D01*
G03X244205Y103284I1639J-457D01*
G01X244320Y103293D01*
X244439Y103174D01*
X287325D01*
X288107Y103956D01*
X296542D01*
G03X299258I1358J1026D01*
G01X301946D01*
G02X302435Y103352I0J-500D01*
G03X305458Y101974I1665J-352D01*
G01X306351D01*
X306365Y101988D01*
X307888D01*
Y98134D01*
X307439D01*
X307331Y98026D01*
X306258D01*
G03Y95974I-1358J-1026D01*
G01X307888D01*
Y78040D01*
X316492D01*
Y78366D01*
X321207D01*
X323799Y75774D01*
X324248D01*
Y74998D01*
X326192D01*
G02X326545Y74144I0J-500D01*
G01X325902Y73502D01*
X324248D01*
Y71848D01*
X318998Y66598D01*
Y60098D01*
X317840Y58940D01*
X316492D01*
Y59090D01*
X307888D01*
Y58940D01*
X304840D01*
X303402Y57502D01*
X239802D01*
G37*
G36*
G01X241802Y139046D02*
Y139396D01*
X239402D01*
Y143046D01*
X239302D01*
Y144605D01*
X238986Y144920D01*
G02X239340Y145774I354J354D01*
G01X255575D01*
X257474Y143875D01*
Y139396D01*
X255398D01*
Y139046D01*
X254802D01*
Y139396D01*
X252402D01*
Y143046D01*
X248798D01*
Y141750D01*
X247574Y140525D01*
Y139396D01*
X245398D01*
Y139046D01*
X244802D01*
Y139396D01*
X242398D01*
Y139046D01*
X241802D01*
G37*
G36*
G01X251002Y151126D02*
Y159402D01*
X244250D01*
X238825Y164826D01*
X229925D01*
X224426Y170325D01*
Y182425D01*
X225575Y183574D01*
X226833D01*
G02X227300Y182896I0J-500D01*
G03X227188Y182290I1590J-607D01*
G01Y180602D01*
X226838D01*
Y176998D01*
X230488D01*
Y174598D01*
X230838D01*
Y173998D01*
X234942D01*
Y174103D01*
G02X235368Y174280I250J0D01*
G01X244875Y164774D01*
X263715D01*
G02X264068Y163920I0J-500D01*
G01X259550Y159402D01*
X252798D01*
Y151126D01*
X251002D01*
G37*
G36*
G01X201115Y188519D02*
G03X201029Y190777I-1315J1081D01*
G02Y191123I181J173D01*
G03Y193477I-1229J1177D01*
G02Y193823I181J173D01*
G03X201240Y195907I-1229J1177D01*
G02X201663Y196674I423J267D01*
G01X204242D01*
G03Y198726I1358J1026D01*
G01X201663D01*
G02X201240Y199493I0J500D01*
G03X201029Y201577I-1440J907D01*
G02Y201923I181J173D01*
G03X198442Y204126I-1229J1178D01*
G01X119200D01*
Y232842D01*
X220598D01*
Y203505D01*
X204795Y187702D01*
X201501D01*
G02X201115Y188519I0J500D01*
G37*
G36*
G01X125694Y-98547D02*
G02X125340Y-97693I-1J500D01*
G01X126402Y-96632D01*
Y-94502D01*
X214205D01*
X219203Y-89503D01*
G03X219475Y-87451I-1203J1203D01*
G02X219908Y-86702I433J249D01*
G01X257095D01*
X261295Y-90902D01*
X311368D01*
X311468Y-91002D01*
X323932D01*
X324032Y-90902D01*
X327369D01*
X328668Y-89602D01*
X330068Y-91002D01*
X342832D01*
X344602Y-89232D01*
Y-86532D01*
X346022D01*
Y-82528D01*
X344602D01*
Y-74642D01*
G02X345455Y-74288I500J0D01*
G01X349918Y-78752D01*
X355418D01*
X355768Y-79102D01*
X356898D01*
Y-81982D01*
X357248D01*
Y-82528D01*
X356298D01*
Y-86532D01*
X357698D01*
X360368Y-89202D01*
X378432D01*
X386802Y-80832D01*
Y-60368D01*
X386162Y-59728D01*
Y-33798D01*
X370468D01*
X367518Y-36748D01*
X362668D01*
X357898Y-41518D01*
Y-60368D01*
X357428Y-60838D01*
G02X357002Y-60661I-176J177D01*
G01Y-55668D01*
X354832Y-53498D01*
X347805D01*
X342502Y-48195D01*
Y-19795D01*
X334705Y-11998D01*
X168905D01*
X137251Y19655D01*
X137294Y19758D01*
Y22162D01*
X136944D01*
Y22758D01*
X137294D01*
Y25162D01*
X136944D01*
Y25758D01*
X137294D01*
Y28162D01*
X136944D01*
Y28758D01*
X137294D01*
Y31158D01*
X140944D01*
Y31934D01*
X144585D01*
X144662Y32011D01*
X144777Y32002D01*
G03X143264Y34168I123J1698D01*
G01X143212Y33986D01*
X140944D01*
Y34762D01*
X137294D01*
Y37158D01*
X140944D01*
Y37934D01*
X143287D01*
X143354Y37788D01*
G03X144123Y40014I1546J712D01*
G01X144069Y39986D01*
X140944D01*
Y40762D01*
X137294D01*
Y43162D01*
X136944D01*
Y43762D01*
X132840D01*
Y42986D01*
X129517D01*
X127517Y44986D01*
X126510D01*
Y45767D01*
X119200D01*
Y47153D01*
X126510D01*
Y47934D01*
X156915D01*
X188675Y16174D01*
X221425D01*
X236368Y31116D01*
Y33674D01*
X242599D01*
Y42278D01*
X233989D01*
Y33674D01*
X234314D01*
Y31966D01*
X220575Y18226D01*
X189525D01*
X157765Y49986D01*
X126510D01*
Y50767D01*
X119200D01*
Y70996D01*
X120554Y72350D01*
X122956D01*
Y78998D01*
X125005D01*
X128502Y82495D01*
Y90405D01*
X119705Y99202D01*
X119200D01*
Y115036D01*
X126510D01*
Y115142D01*
X128097D01*
X130097Y117142D01*
X132840D01*
Y117042D01*
X133190D01*
Y115603D01*
X136895Y111898D01*
X141200D01*
G03Y115302I0J1702D01*
G01X138305D01*
X136833Y116774D01*
X136944Y117042D01*
Y117642D01*
X137294D01*
Y120044D01*
X136944D01*
Y120642D01*
X137294D01*
Y123044D01*
X136944D01*
Y123642D01*
X137294D01*
Y126044D01*
X136944D01*
Y126642D01*
X137294D01*
Y129041D01*
X140944D01*
Y129816D01*
X141381D01*
X141455Y129730D01*
G03Y131956I1288J1113D01*
G01X141381Y131870D01*
X140944D01*
Y132645D01*
X137294D01*
Y135041D01*
X140944D01*
Y135816D01*
X141495D01*
X141569Y135730D01*
G03Y137956I1288J1113D01*
G01X141495Y137870D01*
X140944D01*
Y138645D01*
X137294D01*
Y141044D01*
X136944D01*
Y141644D01*
X132840D01*
Y140870D01*
X130317D01*
X128317Y142870D01*
X126510D01*
Y143650D01*
X119200D01*
Y145036D01*
X126510D01*
Y145816D01*
X193432D01*
X203211Y136038D01*
X203202Y135923D01*
G03X205865Y134398I1698J-123D01*
G02X206648Y133986I283J-412D01*
G01Y133648D01*
X214300D01*
X216498Y131450D01*
G02X216507Y130752I-353J-354D01*
G01X206648D01*
Y127702D01*
X204202D01*
X199498Y122998D01*
Y100702D01*
X203402Y96798D01*
X210770D01*
Y94628D01*
X211120D01*
Y94032D01*
X210770D01*
Y91628D01*
X211120D01*
Y91032D01*
X210770D01*
Y88632D01*
X207120D01*
Y88532D01*
X191930D01*
G03Y85128I0J-1702D01*
G01X207120D01*
Y85028D01*
X208773D01*
X211169Y82632D01*
X211120D01*
Y82032D01*
X210770D01*
Y79632D01*
X207120D01*
Y77230D01*
X206996Y77105D01*
Y75572D01*
X204820D01*
Y68368D01*
X207380D01*
X209194Y66554D01*
X211120D01*
Y58652D01*
X210770D01*
Y56252D01*
X207120D01*
Y56152D01*
X191245D01*
X190697Y55603D01*
G03X192283Y52742I1203J-1203D01*
G01X192310Y52748D01*
X207120D01*
Y52648D01*
X210770D01*
Y50526D01*
X199258D01*
G03Y48474I-1358J-1026D01*
G01X210770D01*
Y46448D01*
X211120D01*
Y45852D01*
X210770D01*
Y43448D01*
X211120D01*
Y42852D01*
X210770D01*
Y40448D01*
X211120D01*
Y39852D01*
X210770D01*
Y37626D01*
X209675D01*
X208500Y36452D01*
X207120D01*
Y32848D01*
X210770D01*
Y30448D01*
X211120D01*
Y29852D01*
X210770D01*
Y27452D01*
X207120D01*
Y27352D01*
X191900D01*
G03Y23948I0J-1702D01*
G01X207120D01*
Y23848D01*
X215224D01*
Y27452D01*
Y32848D01*
Y33624D01*
X217914D01*
X228416Y44126D01*
Y44576D01*
X231692D01*
Y51216D01*
X223088D01*
Y50890D01*
X221897D01*
G02X221543Y51744I0J500D01*
G01X222399Y52600D01*
X223088D01*
Y52450D01*
X231692D01*
Y52600D01*
X236608D01*
G02X237398Y52192I290J-407D01*
G01Y48902D01*
X243832Y42469D01*
Y33674D01*
X243982D01*
Y25810D01*
X243498D01*
Y21706D01*
X244098D01*
Y21356D01*
X246502D01*
Y21706D01*
X247098D01*
Y21356D01*
X249502D01*
Y21706D01*
X250102D01*
Y22732D01*
X250783D01*
X254526Y26475D01*
Y31042D01*
G03X255093Y32998I-1026J1358D01*
G02X255561Y33674I468J176D01*
G01X257936D01*
Y23112D01*
X269375Y11674D01*
X453975D01*
X477911Y-12262D01*
X477902Y-12377D01*
G03X480249Y-14073I1698J-123D01*
G01X480295Y-14054D01*
X483998D01*
Y-15380D01*
X485548D01*
Y-22102D01*
X485898D01*
Y-22798D01*
X485548D01*
Y-28898D01*
X482005D01*
X473089Y-19982D01*
X373000D01*
G03Y-23386I0J-1702D01*
G01X471679D01*
X480595Y-32302D01*
X485548D01*
Y-32402D01*
X493652D01*
Y-31626D01*
X496225D01*
X502225Y-25626D01*
X511238D01*
Y-28702D01*
X519440D01*
Y-21360D01*
G02X520294Y-21007I500J0D01*
G01X521238Y-21950D01*
Y-28702D01*
X529440D01*
Y-20498D01*
X522689D01*
X521746Y-19555D01*
G02X522099Y-18702I353J353D01*
G01X529440D01*
Y-10498D01*
X522099D01*
G02X521746Y-9645I0J500D01*
G01X522689Y-8702D01*
X529440D01*
Y-498D01*
X522099D01*
G02X521746Y355I0J500D01*
G01X522689Y1298D01*
X529440D01*
Y9502D01*
X521238D01*
Y2750D01*
X519914Y1426D01*
X519440D01*
Y9502D01*
X512689D01*
X504664Y17526D01*
X296066D01*
X290768Y22825D01*
Y29616D01*
X291486Y30334D01*
Y33674D01*
X297717D01*
Y42278D01*
X297392D01*
Y46940D01*
X297662Y47211D01*
X297777Y47202D01*
G03X296202Y48777I123J1698D01*
G01X296211Y48662D01*
X295338Y47790D01*
Y42278D01*
X273944D01*
Y55098D01*
X301068D01*
Y49202D01*
X302598Y47672D01*
Y44504D01*
X302130Y44036D01*
X301895Y44271D01*
X301883Y44352D01*
G03X299087Y42812I-1683J-252D01*
G01X299174Y42738D01*
Y42278D01*
X298950D01*
Y33674D01*
X301068D01*
Y25810D01*
X300798D01*
Y21706D01*
X301398D01*
Y21356D01*
X303802D01*
Y21706D01*
X304402D01*
Y25810D01*
X303472D01*
Y29170D01*
G02X304325Y29523I500J0D01*
G01X305011Y28838D01*
X305002Y28723D01*
G03X306577Y30298I1698J-123D01*
G01X306462Y30289D01*
X305266Y31486D01*
Y33674D01*
X305591D01*
Y42278D01*
X304978D01*
G02X304625Y43132I0J500D01*
G01X305002Y43508D01*
Y48668D01*
X303472Y50198D01*
Y55098D01*
X304398D01*
X305836Y56536D01*
X307888D01*
Y44576D01*
X316492D01*
Y50806D01*
X322776D01*
X324198Y49384D01*
Y42632D01*
X332402D01*
Y50836D01*
X325650D01*
X324707Y51779D01*
G02X325060Y52632I353J353D01*
G01X332402D01*
Y60836D01*
X324198D01*
Y56050D01*
X322976Y54828D01*
X316492D01*
Y56536D01*
X318836D01*
X321402Y59102D01*
Y65602D01*
X325698Y69898D01*
X328352D01*
Y70498D01*
X328702D01*
Y72902D01*
X330797Y74998D01*
X332352D01*
Y82502D01*
X331397D01*
X329798Y84102D01*
X328702D01*
Y86502D01*
X328352D01*
Y87598D01*
X328702D01*
Y90002D01*
X328352D01*
Y91298D01*
X328702D01*
Y93702D01*
X328352D01*
Y94302D01*
X324248D01*
Y86502D01*
X323373D01*
X321906Y85034D01*
X321810Y85029D01*
G03X320695Y84530I91J-1699D01*
G01X316492D01*
Y93036D01*
G02X317139Y93513I500J0D01*
G03Y96767I501J1627D01*
G02X316492Y97244I-147J477D01*
G01Y98050D01*
X317041D01*
X317400Y98410D01*
X319539D01*
X321875Y96074D01*
X467875D01*
X483247Y80702D01*
X489346D01*
X489706Y80342D01*
X490342D01*
Y80172D01*
X497458D01*
Y80342D01*
X497907D01*
X498286Y80720D01*
X514174D01*
Y77954D01*
X514765Y77362D01*
G02X514412Y76508I-353J-354D01*
G01X510757D01*
X508705Y74457D01*
G02X507875Y74658I-354J353D01*
G01X503748D01*
Y74058D01*
X503398D01*
Y71656D01*
X503748D01*
Y71056D01*
X507852D01*
Y71830D01*
X508982D01*
X511607Y74456D01*
X516154D01*
Y68972D01*
X522705D01*
X522731Y68751D01*
G03X525854Y71211I2315J274D01*
G02X525674Y72034I174J469D01*
G01X527417Y73777D01*
X529598Y71595D01*
Y26752D01*
X525148D01*
Y17048D01*
X533652D01*
Y26752D01*
X533002D01*
Y73005D01*
X529002Y77005D01*
Y85539D01*
X525742Y88798D01*
G02X525910Y89616I354J354D01*
G03X522731Y92055I-864J2165D01*
G01X522705Y91834D01*
X516154D01*
Y88320D01*
X511332D01*
X508707Y90944D01*
X507852D01*
Y91720D01*
X503748D01*
Y91120D01*
X503398D01*
Y88716D01*
X503748D01*
Y88116D01*
X507852D01*
Y88293D01*
G02X508278Y88470I250J0D01*
G01X510482Y86266D01*
X516154D01*
Y84382D01*
X515604D01*
X515245Y84024D01*
X498228D01*
X497888Y84364D01*
X497458D01*
Y84532D01*
X490342D01*
Y84364D01*
X489893D01*
X489534Y84004D01*
X484647D01*
X469275Y99376D01*
X323575D01*
X321239Y101712D01*
X317400D01*
X317041Y102072D01*
X316492D01*
Y106334D01*
X307888D01*
Y106008D01*
X299258D01*
G03X296542I-1358J-1026D01*
G01X287257D01*
X286475Y105226D01*
X281375D01*
G02X280927Y105948I0J500D01*
G03X281016Y107235I-1527J752D01*
G02X281490Y107892I474J157D01*
G01X298842D01*
G03X301558I1358J1027D01*
G01X307888D01*
Y107568D01*
X316492D01*
Y109686D01*
X318795D01*
G03X321205I1205J1202D01*
G01X323386D01*
X323395Y109696D01*
G02X324248Y109342I353J-354D01*
G01Y107202D01*
Y106426D01*
X322401D01*
X321501Y105526D01*
X321262D01*
X321188Y105613D01*
G03X321258Y103474I-1288J-1113D01*
G01X322351D01*
X323251Y104374D01*
X324248D01*
Y100598D01*
X332352D01*
Y101198D01*
X335822D01*
X335861Y101186D01*
G03X334899Y103602I539J1614D01*
G01X332352D01*
Y104374D01*
X333525D01*
X336626Y107475D01*
Y113025D01*
X331800Y117852D01*
X321599D01*
X319599Y115852D01*
X316492D01*
Y116176D01*
X307888D01*
Y115852D01*
X304038D01*
G03X301325Y113796I-1338J-1052D01*
G02X300922Y113002I-404J-294D01*
G01X269998D01*
X266070Y116929D01*
Y118474D01*
X266221D01*
Y126653D01*
X266367Y126798D01*
X267454D01*
Y118474D01*
X285906D01*
Y126454D01*
X286362Y126911D01*
X286477Y126902D01*
G03X286630Y126898I121J1698D01*
G02X287139Y126398I9J-500D01*
G01Y118474D01*
X305591D01*
Y127078D01*
X299360D01*
Y128583D01*
X299309Y128634D01*
G02X299486Y129060I177J176D01*
G01X312701D01*
X313376Y128386D01*
X315167D01*
G03X316548Y131114I1358J1026D01*
G02X316302Y131360I4J250D01*
G03X313242Y132364I-1702J-23D01*
G01X297681D01*
X295698Y130380D01*
Y128942D01*
X295338Y128583D01*
Y127078D01*
X288550D01*
G02X288108Y127810I1J500D01*
G03X284902Y128477I-1508J789D01*
G01X284911Y128362D01*
X283626Y127078D01*
X273784D01*
G02X273431Y127932I0J500D01*
G01X278502Y133002D01*
Y134942D01*
X279102D01*
Y135792D01*
X279899D01*
G02X280698Y135392I299J-400D01*
G01Y134942D01*
X284302D01*
Y135968D01*
X286648D01*
G03Y138020I1358J1026D01*
G01X284302D01*
Y143046D01*
X280698D01*
Y142196D01*
X280008D01*
X278752Y140939D01*
Y139396D01*
X276098D01*
Y139046D01*
X275538D01*
Y143046D01*
X271762D01*
Y147011D01*
X275950Y151198D01*
X281002D01*
Y155050D01*
X291850Y165898D01*
Y166805D01*
X294796D01*
Y162448D01*
X279638Y147289D01*
X279523Y147298D01*
G03X281098Y145723I-123J-1698D01*
G01X281089Y145838D01*
X296850Y161598D01*
Y166805D01*
X318396D01*
Y176283D01*
X281850D01*
Y177602D01*
X279725Y179726D01*
X259875D01*
X258482Y178334D01*
G02X257628Y178687I-354J353D01*
G01Y241617D01*
X248152D01*
Y240746D01*
X237739D01*
X236239Y239246D01*
X234942D01*
Y243189D01*
X235352Y243599D01*
Y245482D01*
X235946D01*
Y250586D01*
X231354D01*
Y245346D01*
X230838D01*
Y244746D01*
X230488D01*
Y242342D01*
X230838D01*
Y241746D01*
X230488D01*
Y239342D01*
X230838D01*
Y238746D01*
X230488D01*
Y236346D01*
X226838D01*
Y236246D01*
X224002D01*
Y245529D01*
X224805Y246332D01*
X225834D01*
Y245482D01*
X230426D01*
Y250586D01*
X225834D01*
Y249736D01*
X223395D01*
X220598Y246939D01*
Y236246D01*
X119200D01*
Y257500D01*
X121053Y259353D01*
X535381D01*
G02X543381Y251353I0J-8000D01*
G01Y-90547D01*
G02X535381Y-98547I-8000J0D01*
G01X125694D01*
G37*
G36*
G01X206648Y137614D02*
G02X205865Y137202I-500J0D01*
G03X204777Y137498I-966J-1402D01*
G01X204662Y137489D01*
X194282Y147870D01*
X126510D01*
Y148650D01*
X119200D01*
Y156918D01*
X121524D01*
X130102Y165495D01*
Y178005D01*
X126045Y182062D01*
X122956D01*
Y186412D01*
X120554D01*
X119200Y187766D01*
Y195824D01*
X190199D01*
X197449Y188574D01*
X198442D01*
G03X198889Y188163I1357J1027D01*
G01X198755Y187702D01*
X191900D01*
G03Y184298I0J-1702D01*
G01X205500D01*
G03X206703Y184797I-1J1702D01*
G01X224002Y202095D01*
Y232842D01*
X226838D01*
Y232742D01*
X234942D01*
Y232842D01*
X236195D01*
G03X237400Y232342I1205J1202D01*
G01X248152D01*
Y200070D01*
X234942D01*
Y200846D01*
X226838D01*
Y198444D01*
X219474Y191079D01*
Y165375D01*
X224593Y160255D01*
G02X224240Y159402I-353J-353D01*
G01X222798D01*
Y151198D01*
X226350D01*
X228093Y149455D01*
G02X227740Y148602I-353J-353D01*
G01X210405D01*
X208602Y150405D01*
Y151198D01*
X211002D01*
Y159402D01*
X202798D01*
Y157002D01*
X191900D01*
G03Y153598I0J-1702D01*
G01X202798D01*
Y151198D01*
X205198D01*
Y148995D01*
X208995Y145198D01*
X223895D01*
X224735Y144359D01*
X224607Y144050D01*
X224558D01*
Y139458D01*
X229662D01*
Y144050D01*
X228812D01*
Y145198D01*
X233895D01*
X235798Y143295D01*
Y139396D01*
X233398D01*
Y139046D01*
X232802D01*
Y139396D01*
X230398D01*
Y139046D01*
X229798D01*
Y138530D01*
X224558D01*
Y138020D01*
X223902D01*
Y139046D01*
X223302D01*
Y139396D01*
X220902D01*
Y143046D01*
X217298D01*
Y142020D01*
X216352D01*
Y142152D01*
X206648D01*
Y137614D01*
G37*
G36*
G01X330400Y-90200D02*
X327500Y-87300D01*
Y-82100D01*
X328800Y-80800D01*
X335200D01*
X337200Y-78800D01*
Y-76999D01*
X337202Y-76998D01*
Y-57498D01*
X340400Y-54300D01*
X354500D01*
X356200Y-56000D01*
Y-61000D01*
X355100Y-62100D01*
X345000D01*
X343800Y-63300D01*
Y-88900D01*
X342500Y-90200D01*
X330400D01*
G37*
G36*
G01X282030Y-59150D02*
X281552Y-58672D01*
Y-56698D01*
X281202D01*
Y-56098D01*
X281000D01*
Y-53332D01*
X281242D01*
Y-49328D01*
X280828D01*
X280350Y-48850D01*
Y-46250D01*
X275600Y-41500D01*
X273200D01*
X272780Y-41080D01*
Y-36110D01*
X284500D01*
X286710Y-33900D01*
X308080D01*
X310290Y-36110D01*
Y-48610D01*
X287720D01*
Y-59150D01*
X282030D01*
G37*
G36*
G01X322980Y-71200D02*
X317500D01*
Y-62120D01*
X317000Y-61620D01*
X311000D01*
X310000Y-62620D01*
Y-70560D01*
X296180D01*
Y-62400D01*
X289500D01*
Y-51190D01*
X322980D01*
Y-71200D01*
G37*
G36*
G01X360700Y-88400D02*
X358302Y-86002D01*
Y-82528D01*
X358300D01*
Y-80500D01*
X358000Y-80200D01*
Y-78800D01*
X357500Y-78300D01*
X356100D01*
X355750Y-77950D01*
X350250D01*
X345700Y-73400D01*
Y-64800D01*
X347200Y-63300D01*
X356100D01*
X358700Y-60700D01*
Y-41850D01*
X363000Y-37550D01*
X367850D01*
X370800Y-34600D01*
X385360D01*
Y-60060D01*
X386000Y-60700D01*
Y-80500D01*
X378100Y-88400D01*
X360700D01*
G37*
G36*
G01X316698Y-72002D02*
X317002D01*
X321900Y-76900D01*
Y-80700D01*
X322300Y-81100D01*
X323300D01*
X324800Y-82600D01*
Y-87498D01*
X315902D01*
Y-83264D01*
X311302D01*
Y-82336D01*
X315902D01*
Y-77744D01*
X315552D01*
Y-76638D01*
X312402Y-73488D01*
X311200D01*
Y-63100D01*
X311600Y-62700D01*
X316100D01*
X316698Y-63298D01*
Y-72002D01*
G37*
G36*
G01X58100Y-98800D02*
Y-73400D01*
X60600Y-70900D01*
X66700D01*
X69450Y-73650D01*
Y-81050D01*
X78200Y-89800D01*
X85994D01*
X90695Y-94502D01*
X125600D01*
Y-96300D01*
X123900Y-98000D01*
X123700D01*
X123100Y-98600D01*
X85500D01*
X85300Y-98800D01*
X58100D01*
G37*
G36*
G01X88000Y204126D02*
X63025D01*
X61452Y205700D01*
Y224200D01*
X70826Y233575D01*
Y238142D01*
G03X71295Y242593I-1026J2358D01*
G02Y243407I290J407D01*
G03X71729Y243798I-1494J2094D01*
G01X75695D01*
X86651Y232842D01*
X88000D01*
Y204126D01*
G37*
%LPC*%
G75*
G36*
G01X40535Y168454D02*
X44944Y172863D01*
Y176260D01*
X49536D01*
Y171156D01*
X46140D01*
X45690Y170706D01*
G03X45867Y170280I177J-176D01*
G01X49536D01*
Y165176D01*
X44944D01*
Y165201D01*
X44635Y165329D01*
X39718Y160412D01*
X38890D01*
G02X38351Y164606I-3350J1701D01*
G03X39078Y164584I374J332D01*
G01X40042Y165548D01*
G03X39688Y166402I-354J354D01*
G01X28189D01*
X28138Y166219D01*
G02X28073Y168454I-3618J1013D01*
G01X40535D01*
G37*
G36*
G01X22687Y174578D02*
X7926Y159818D01*
Y93625D01*
X18252Y83300D01*
X22944D01*
Y84824D01*
X27536D01*
Y79722D01*
X22944D01*
Y81246D01*
X17402D01*
X5874Y92775D01*
Y160668D01*
X21235Y176030D01*
X21156Y176191D01*
G02X22848Y174499I3364J1672D01*
G01X22687Y174578D01*
G37*
G36*
G01X44944Y1605D02*
X42777Y3772D01*
X28189D01*
X28138Y3589D01*
G02X28073Y5824I-3618J1013D01*
G01X43627D01*
X44090Y5362D01*
G03X44944Y5715I354J353D01*
G01Y7585D01*
X43442Y9086D01*
X39159D01*
X39101Y8916D01*
G02Y11310I-3561J1197D01*
G01X39159Y11140D01*
X44292D01*
X44517Y10915D01*
G03X44944Y11092I177J177D01*
G01Y13565D01*
X44107Y14402D01*
X28189D01*
X28138Y14219D01*
G02X28073Y16454I-3618J1013D01*
G01X44944D01*
Y19545D01*
X44772Y19716D01*
X39296D01*
Y16986D01*
X31784D01*
Y24500D01*
X39296D01*
Y21770D01*
X45622D01*
X46140Y21252D01*
X49536D01*
Y16148D01*
X45867D01*
G03X45690Y15722I0J-250D01*
G01X46140Y15272D01*
X49536D01*
Y10168D01*
X45867D01*
G03X45690Y9742I0J-250D01*
G01X46140Y9292D01*
X49536D01*
Y4188D01*
X45867D01*
G03X45690Y3762I0J-250D01*
G01X46140Y3312D01*
X49536D01*
Y-1792D01*
X44944D01*
Y1605D01*
G37*
G36*
G01X38825Y-2350D02*
X40668Y-4194D01*
X44944D01*
Y-2668D01*
X49536D01*
Y-7772D01*
X44944D01*
Y-6246D01*
X39818D01*
X37373Y-3802D01*
X37212Y-3881D01*
G02X38904Y-2189I-1672J3364D01*
G01X38825Y-2350D01*
G37*
G36*
G01X49536Y-26588D02*
Y-31692D01*
X44944D01*
Y-26588D01*
X45038D01*
Y-25712D01*
X44944D01*
Y-25362D01*
X36666D01*
X36630Y-25372D01*
G02X39161Y-20775I-1090J3595D01*
G01X39212Y-20958D01*
X44944D01*
Y-20608D01*
X49536D01*
Y-25712D01*
X49442D01*
Y-26588D01*
X49536D01*
G37*
G36*
G01X26722Y-23508D02*
X36132Y-32918D01*
X44944D01*
Y-32568D01*
X49536D01*
Y-37672D01*
X44944D01*
Y-37322D01*
X34308D01*
X22318Y-25332D01*
Y-19701D01*
G02X26722I2202J3044D01*
G01Y-23508D01*
G37*
G36*
G01X54290Y-75612D02*
Y-78902D01*
X47886D01*
Y-72498D01*
X50558D01*
Y-37672D01*
X50464D01*
Y-32568D01*
X55056D01*
Y-37672D01*
X54962D01*
Y-74940D01*
X54290Y-75612D01*
G37*
G36*
G01X31098Y-70029D02*
Y-63482D01*
X28328Y-60712D01*
Y-59849D01*
X28123Y-59812D01*
G02X33028Y-59553I1906J10475D01*
G03X32816Y-60386I141J-479D01*
G01X34502Y-62072D01*
Y-70029D01*
G02X35352Y-71930I-1701J-1901D01*
G01Y-72930D01*
G02X34350Y-74957I-2551J0D01*
G01X34251Y-75032D01*
Y-75528D01*
X34350Y-75603D01*
G02X35352Y-77630I-1549J-2027D01*
G01Y-78630D01*
G02X30737Y-80132I-2552J0D01*
G01X28798D01*
Y-76128D01*
X30737D01*
G02X31250Y-75603I2063J-1502D01*
G01X31348Y-75528D01*
Y-75032D01*
X31250Y-74957D01*
G02X30737Y-74432I1550J2027D01*
G01X28798D01*
Y-70428D01*
X30737D01*
G02X31098Y-70029I2062J-1503D01*
G37*
G36*
G01X54290Y-87882D02*
X47886D01*
Y-86382D01*
X26175D01*
X11098Y-71305D01*
Y62905D01*
X23295Y75102D01*
X34295D01*
X54598Y95405D01*
Y137442D01*
X50463D01*
Y140838D01*
X50390Y140911D01*
G03X49536Y140558I-354J-353D01*
G01Y137442D01*
X44944D01*
Y139402D01*
X39005D01*
G02X32574Y143160I-3465J1451D01*
G03X32180Y143966I-395J306D01*
G01X27696D01*
G02X27413Y148370I-3176J2007D01*
G01X32180D01*
G03X32574Y149176I-1J500D01*
G02X31987Y150262I2967J2305D01*
G01X20986D01*
X13174Y158074D01*
X11924D01*
X10828Y156977D01*
Y96925D01*
X18473Y89280D01*
X22944D01*
Y90804D01*
X27536D01*
Y85702D01*
X22944D01*
Y87226D01*
X17623D01*
X8774Y96075D01*
Y157827D01*
X11074Y160126D01*
X14024D01*
X21836Y152314D01*
X31871D01*
X31922Y152497D01*
G02X39196Y150619I3618J-1013D01*
G03X40036Y150151I487J-114D01*
G01X44040Y154154D01*
X44944D01*
Y154504D01*
X49495D01*
X49544Y154690D01*
G02X49609Y154803I242J-64D01*
G01X49786Y154980D01*
X47298Y157468D01*
Y159196D01*
X46140D01*
X42715Y155772D01*
X28189D01*
X28138Y155589D01*
G02X28073Y157824I-3618J1013D01*
G01X41865D01*
X44944Y160903D01*
Y164300D01*
X49536D01*
Y159702D01*
X50464D01*
Y164300D01*
X55056D01*
Y159702D01*
X57332D01*
X59202Y157832D01*
Y145068D01*
X58002Y143868D01*
Y93995D01*
X35705Y71698D01*
X24705D01*
X14502Y61495D01*
Y-69895D01*
X27585Y-82978D01*
X47886D01*
Y-81478D01*
X54290D01*
Y-87882D01*
G37*
G36*
G01X33028Y220359D02*
G02X28123Y220618I-2999J-10216D01*
G01X28328Y220655D01*
Y221518D01*
X31098Y224288D01*
Y230599D01*
G02X30737Y230998I1701J1902D01*
G01X28798D01*
Y235002D01*
X30737D01*
G02X31250Y235527I2063J-1502D01*
G01X31348Y235602D01*
Y236098D01*
X31250Y236173D01*
G02X30737Y236698I1550J2027D01*
G01X28798D01*
Y240702D01*
X30737D01*
G02X30947Y240954I2061J-1504D01*
G03X30584Y241798I-363J344D01*
G01X25748D01*
Y245407D01*
G03X26162Y246038I-67J495D01*
G02X29438I1638J462D01*
G03X29919Y245402I481J-136D01*
G01X30292D01*
Y245709D01*
X30267Y245761D01*
G02X33438Y246038I1533J739D01*
G03X33852Y245407I481J-136D01*
G01Y241525D01*
G02X35352Y239200I-1052J-2325D01*
G01Y238200D01*
G02X34350Y236173I-2551J0D01*
G01X34252Y236098D01*
Y235602D01*
X34350Y235527D01*
G02X35352Y233500I-1549J-2027D01*
G01Y232500D01*
G02X34502Y230599I-2551J0D01*
G01Y222878D01*
X32816Y221192D01*
G03X33028Y220359I353J-354D01*
G37*
G36*
G01X38825Y174576D02*
X38904Y174415D01*
G02X37370Y176024I-3364J-1672D01*
G01X42060Y180714D01*
X44944D01*
Y182346D01*
X39296D01*
Y179616D01*
X31784D01*
Y187130D01*
X39296D01*
Y184400D01*
X44520D01*
X44944Y184823D01*
Y188220D01*
X49536D01*
Y183116D01*
X46140D01*
X45690Y182666D01*
G03X45867Y182240I177J-176D01*
G01X49536D01*
Y177136D01*
X44944D01*
Y178662D01*
X42910D01*
X38825Y174576D01*
G37*
G36*
G01X49536Y-19732D02*
X44944D01*
Y-18206D01*
X43856D01*
X39166Y-13516D01*
G03X38428Y-13550I-353J-354D01*
G02X36925Y-7655I-2888J2403D01*
G01X37077Y-7715D01*
X37370Y-7422D01*
X36807Y-6858D01*
X28189D01*
X28138Y-7041D01*
G02X28073Y-4806I-3618J1013D01*
G01X37657D01*
X43025Y-10174D01*
X44944D01*
Y-8648D01*
X49536D01*
Y-13752D01*
X44944D01*
Y-12226D01*
X42175D01*
X40102Y-10154D01*
G03X39254Y-10583I-354J-353D01*
G02X39262Y-10638I-3714J-568D01*
G01X39274Y-10721D01*
X44090Y-15537D01*
G03X44944Y-15184I354J353D01*
G01Y-14628D01*
X49536D01*
Y-19732D01*
G37*
G36*
G01X175402Y-83828D02*
Y-87432D01*
X168798D01*
Y-87332D01*
X163575D01*
X162845Y-86602D01*
X161398D01*
Y-86002D01*
X161048D01*
Y-83602D01*
X157398D01*
Y-76998D01*
Y-73998D01*
X157748D01*
Y-67806D01*
X157148D01*
Y-63214D01*
X162252D01*
Y-63808D01*
X162805D01*
X164465Y-65469D01*
G03X165318Y-65115I353J354D01*
G01Y-64052D01*
X164218D01*
Y-58448D01*
X169822D01*
Y-64052D01*
X168722D01*
Y-67675D01*
X167586Y-68810D01*
Y-71252D01*
X162994D01*
Y-68810D01*
X161990Y-67806D01*
X161152D01*
Y-73998D01*
X161502D01*
Y-74598D01*
X161852D01*
Y-76998D01*
X165502D01*
Y-83928D01*
X168798D01*
Y-83828D01*
X175402D01*
G37*
G36*
G01X195166Y-82448D02*
Y-87552D01*
X190574D01*
Y-82448D01*
X191168D01*
Y-81572D01*
X190574D01*
Y-79932D01*
X186202D01*
Y-80032D01*
X184602D01*
Y-83828D01*
X186202D01*
Y-87432D01*
X179598D01*
Y-83828D01*
X181198D01*
Y-80032D01*
X179598D01*
Y-76428D01*
X186202D01*
Y-76528D01*
X190574D01*
Y-76468D01*
X191168D01*
Y-73625D01*
X192788Y-72005D01*
Y-71402D01*
X191112D01*
Y-72106D01*
X183328D01*
Y-63815D01*
X182465Y-62952D01*
X180482D01*
Y-64052D01*
X179382D01*
Y-71225D01*
X175031Y-75575D01*
G03X175385Y-76428I354J-353D01*
G01X175402D01*
Y-80032D01*
X168798D01*
Y-76428D01*
X170398D01*
Y-75395D01*
X175978Y-69815D01*
Y-64052D01*
X174878D01*
Y-58448D01*
X180482D01*
Y-59548D01*
X183328D01*
Y-58494D01*
X191112D01*
Y-59198D01*
X192788D01*
Y-58494D01*
X200572D01*
Y-72106D01*
X197500D01*
X194572Y-75035D01*
Y-76468D01*
X195166D01*
Y-81572D01*
X194572D01*
Y-82448D01*
X195166D01*
G37*
G36*
G01X146092Y-77615D02*
X143103Y-80603D01*
G02X140697Y-78197I-1203J1203D01*
G01X142688Y-76205D01*
Y-70394D01*
X141188D01*
Y-63990D01*
X147592D01*
Y-70394D01*
X146092D01*
Y-77615D01*
G37*
G36*
G01X328494Y176471D02*
X319018D01*
Y241617D01*
X328494D01*
Y230070D01*
X348419D01*
X351098Y232750D01*
Y239502D01*
X359302D01*
Y231298D01*
X352550D01*
X351607Y230355D01*
G03X351960Y229502I353J-353D01*
G01X359302D01*
Y221298D01*
X351098D01*
Y223018D01*
X328494D01*
Y180070D01*
X339619D01*
X342074Y182525D01*
Y202825D01*
X345675Y206426D01*
X351098D01*
Y209502D01*
X359302D01*
Y201298D01*
X351098D01*
Y204374D01*
X346525D01*
X344126Y201975D01*
Y181675D01*
X340469Y178018D01*
X328494D01*
Y176471D01*
G37*
G36*
G01X353102Y-39814D02*
Y-45480D01*
G02X347698I-2702J-3020D01*
G01Y-39814D01*
X347198D01*
Y-33410D01*
X353602D01*
Y-39814D01*
X353102D01*
G37*
G36*
G01X480832Y-91302D02*
X454668D01*
X452028Y-88662D01*
G03X451602Y-88839I-176J-177D01*
G01Y-89032D01*
X449632Y-91002D01*
X441768D01*
X440898Y-90132D01*
Y-72232D01*
X439968Y-71302D01*
X437268D01*
X436255Y-70288D01*
G03X435402Y-70642I-353J-354D01*
G01Y-73632D01*
X433132Y-75902D01*
X402268D01*
X399386Y-73019D01*
Y-69575D01*
X399498Y-65688D01*
Y-38968D01*
X402668Y-35798D01*
X431732D01*
X434402Y-38468D01*
Y-43532D01*
X432732Y-45202D01*
X418932D01*
X418902Y-45232D01*
Y-54168D01*
X419402Y-54668D01*
Y-63368D01*
X420232Y-64198D01*
X424798D01*
Y-56418D01*
X425774D01*
Y-52977D01*
G02X424946Y-52080I1026J1777D01*
G02X424298Y-51600I-146J480D01*
G01Y-50800D01*
G02X424946Y-50320I502J0D01*
G02X428577Y-50174I1854J-880D01*
G01X432323D01*
G02X435954Y-50320I1777J-1026D01*
G02X436246I146J-480D01*
G02X439877Y-50174I1854J-880D01*
G01X441425D01*
X442762Y-51511D01*
X442877Y-51502D01*
G02X441302Y-53077I123J-1698D01*
G01X441311Y-52962D01*
X440575Y-52226D01*
X439877D01*
G02X436246Y-52080I-1777J1026D01*
G02X435954I-146J480D01*
G02X432323Y-52226I-1854J880D01*
G01X428577D01*
G02X427826Y-52977I-1777J1026D01*
G01Y-54498D01*
X435402D01*
Y-55098D01*
X438332D01*
X440432Y-57198D01*
X447432D01*
X449445Y-59212D01*
G03X450298Y-58858I353J354D01*
G01Y-58332D01*
X450098Y-58132D01*
Y-51568D01*
X451548Y-50118D01*
Y-46118D01*
X457668Y-39998D01*
X474578D01*
G03X474932Y-39145I0J500D01*
G01X464888Y-29102D01*
X350800D01*
X350488Y-28790D01*
X347198D01*
Y-22386D01*
X353602D01*
Y-24698D01*
X466712D01*
X477412Y-35398D01*
X499112D01*
X501912Y-38198D01*
X524988D01*
X532798Y-30388D01*
Y9388D01*
X530288Y11898D01*
X520088D01*
X515798Y16188D01*
Y17048D01*
X513748D01*
Y26752D01*
X518998D01*
Y27296D01*
X518923Y27369D01*
G02X518148Y29200I1777J1832D01*
G01Y30200D01*
G02X518998Y32101I2551J0D01*
G01Y34405D01*
X519684Y35091D01*
X519700Y35160D01*
G02X523554Y35580I2000J-460D01*
G02X524202Y35100I146J-480D01*
G01Y34300D01*
G02X523554Y33820I-502J0D01*
G02X522548Y32831I-1854J880D01*
G01X522402Y32765D01*
Y32104D01*
X522477Y32031D01*
G02X522763Y31702I-1776J-1832D01*
G01X524702D01*
Y27698D01*
X522763D01*
G02X522402Y27299I-2062J1503D01*
G01Y23895D01*
X522252Y23745D01*
Y17048D01*
X521768D01*
G03X521592Y16622I1J-250D01*
G01X521912Y16302D01*
X532112D01*
X537202Y11212D01*
Y-32212D01*
X526812Y-42602D01*
X502142D01*
G03X501788Y-43455I0J-500D01*
G01X501902Y-43568D01*
Y-57932D01*
X496932Y-62902D01*
X494832D01*
X489032Y-68702D01*
X468502D01*
Y-69102D01*
X453168D01*
X450755Y-66688D01*
G03X449902Y-67042I-353J-354D01*
G01Y-67968D01*
X451602Y-69668D01*
Y-72858D01*
G03X452455Y-73212I500J0D01*
G01X454268Y-71398D01*
X460232D01*
X463302Y-74468D01*
Y-85268D01*
X465132Y-87098D01*
X481632D01*
X482702Y-88168D01*
Y-89432D01*
X480832Y-91302D01*
G37*
G54D76*
X336400Y500D03*
G54D73*
X312190Y68565D03*
G54D67*
X10180Y-83393D03*
Y243800D03*
X510800Y-83393D03*
Y243800D03*
G54D68*
X30030Y113293D03*
Y47513D03*
G54D75*
X355200Y195400D03*
G54D69*
X30760Y88253D03*
Y82273D03*
G54D72*
X295400Y-79100D03*
G54D71*
X159700Y-59990D03*
G54D70*
X52760Y185668D03*
Y18700D03*
Y12720D03*
Y-11200D03*
Y-29140D03*
Y-17180D03*
G54D74*
X493900Y76447D03*
%LPD*%
G75*
G36*
G01X332970Y-37900D02*
Y-49980D01*
X312500D01*
Y-37900D01*
X332970D01*
G37*
G36*
G01X438400Y-90300D02*
X418500D01*
X416500Y-88300D01*
Y-78300D01*
X418300Y-76500D01*
X438900D01*
X439100Y-76700D01*
Y-89600D01*
X438400Y-90300D01*
G37*
G36*
G01X482600Y-70800D02*
Y-86100D01*
X468300D01*
Y-70800D01*
X482600D01*
G37*
G36*
G01X458000Y-40800D02*
X498000D01*
X501100Y-43900D01*
Y-57600D01*
X496600Y-62100D01*
X494500D01*
X488700Y-67900D01*
X467700D01*
Y-68300D01*
X453500D01*
X451100Y-65900D01*
Y-58000D01*
X450900Y-57800D01*
Y-51900D01*
X452350Y-50450D01*
Y-46450D01*
X458000Y-40800D01*
G37*
G36*
G01X402600Y-75100D02*
X400187Y-72687D01*
Y-69587D01*
X400300Y-65700D01*
Y-39300D01*
X403000Y-36600D01*
X431400D01*
X433600Y-38800D01*
Y-43200D01*
X432400Y-44400D01*
X418600D01*
X418100Y-44900D01*
Y-54500D01*
X418600Y-55000D01*
Y-63700D01*
X419900Y-65000D01*
X427900D01*
X428578Y-64322D01*
X428802D01*
Y-64098D01*
X429100Y-63800D01*
Y-55300D01*
X434600D01*
Y-73300D01*
X432800Y-75100D01*
X402600D01*
G37*
G36*
G01X442100Y-90200D02*
X441700Y-89800D01*
Y-71900D01*
X440300Y-70500D01*
X437600D01*
X435600Y-68500D01*
Y-60400D01*
X435402Y-60202D01*
Y-56398D01*
X435900Y-55900D01*
X438000D01*
X440100Y-58000D01*
X447100D01*
X449100Y-60000D01*
Y-68300D01*
X450800Y-70000D01*
Y-88700D01*
X449300Y-90200D01*
X442100D01*
G37*
G36*
G01X462500Y-74800D02*
Y-85600D01*
X464800Y-87900D01*
X481300D01*
X481900Y-88500D01*
Y-89100D01*
X480500Y-90500D01*
X455000D01*
X452800Y-88300D01*
Y-74000D01*
X454600Y-72200D01*
X459900D01*
X462500Y-74800D01*
G37*
G36*
G01X51400Y144000D02*
X51000Y144400D01*
Y154900D01*
X48100Y157800D01*
Y158700D01*
X48300Y158900D01*
X57000D01*
X58400Y157500D01*
Y145400D01*
X57000Y144000D01*
X51400D01*
G37*
G54D10*
G01X122321Y8960D02*
X132260D01*
G01X122321Y13960D02*
X132140D01*
G01X266837Y122776D02*
Y118463D01*
X269800Y115500D01*
G01X138892Y35960D02*
X141940D01*
G01X234400Y50800D02*
X233367Y51833D01*
X227390D01*
G01Y104982D02*
X233682D01*
X234400Y105700D01*
G01X209172Y80830D02*
X205230D01*
G01X240200Y114800D02*
Y117200D01*
X241247Y118247D01*
Y122776D01*
G01X209172Y92830D02*
X205130D01*
G01X209172Y89830D02*
Y92830D01*
G01D02*
Y95830D01*
G01X286522Y122776D02*
Y116778D01*
G01X312190Y106951D02*
X318451D01*
G01X312190Y59707D02*
X305893D01*
X304900Y60700D01*
G01X298333Y37976D02*
Y31133D01*
G01X302600Y19758D02*
X298258D01*
G01X272300D02*
X275758D01*
G01X270774Y37976D02*
Y32574D01*
X269600Y31400D01*
G01X209172Y47650D02*
Y44650D01*
G01Y38650D02*
Y41650D01*
G01Y38650D02*
X205450D01*
G01X209172Y51450D02*
X204850D01*
G01X214322Y71970D02*
X219870D01*
G01X227390Y81360D02*
X220540D01*
X219800Y82100D01*
G01X209172Y44650D02*
X205350D01*
G01X209172D02*
Y41650D01*
G01X330300Y108400D02*
Y111400D01*
G01D02*
Y114300D01*
G01X205750Y31650D02*
X209172D01*
G01D02*
Y28650D01*
G01X213172Y77830D02*
X214322Y76680D01*
Y71970D01*
G01X243600Y140994D02*
Y144300D01*
G01X246600Y140994D02*
Y143700D01*
X246000Y144300D01*
X243600D01*
G01X240600Y140994D02*
Y143500D01*
X241400Y144300D01*
X243600D01*
G01X209172Y113400D02*
Y116400D01*
G01D02*
X205200D01*
G01X243215Y37976D02*
Y33876D01*
X240439Y31100D01*
G01X208022Y63310D02*
X209172Y62160D01*
Y57450D01*
G01D02*
X204750D01*
G01X138892Y41960D02*
X143360D01*
G01X138892Y29960D02*
X142440D01*
G01X138892Y26960D02*
X142560D01*
G01X138892Y23960D02*
X142560D01*
G01X138892Y20960D02*
X142660D01*
G01X122321Y53960D02*
X135240D01*
G01X228890Y243544D02*
X225544D01*
G01X228890Y240544D02*
X225744D01*
G01X228890Y237544D02*
X225744D01*
G01X312190Y77423D02*
X319023D01*
G01X330300Y71700D02*
X334300D01*
G01X330300Y88800D02*
Y85300D01*
G01Y92500D02*
Y88800D01*
G01X227390Y93171D02*
X220871D01*
X219700Y92000D01*
G01X227390Y89234D02*
X221566D01*
X219700Y91100D01*
Y92000D01*
G01X330300Y88800D02*
X333700D01*
G01X105120Y-45030D02*
Y-46520D01*
X106300Y-47700D01*
X115300D01*
X121000Y-42000D01*
G01X64800Y245500D02*
Y249100D01*
X65200Y249500D01*
G01X64800Y245500D02*
X59800D01*
G01X309000Y-75200D02*
Y-75690D01*
G01X92990Y-26230D02*
X88800D01*
X87800Y-27230D01*
Y-55600D01*
X89200Y-57000D01*
X96500D01*
X97900Y-58400D01*
Y-63530D01*
X96700Y-64730D01*
X92990D01*
G01X310100Y-86500D02*
Y-80000D01*
X309200Y-79100D01*
X306200D01*
G01X227390Y103014D02*
X223286D01*
X221500Y104800D01*
Y122576D01*
X221700Y122776D01*
G01X302270Y37976D02*
Y42476D01*
X303800Y44006D01*
Y48170D01*
X302270Y49700D01*
Y56270D01*
X302300Y56300D01*
G01X227390Y53801D02*
X236101D01*
X238600Y56300D01*
G01X264869Y122776D02*
Y116431D01*
X269500Y111800D01*
X301800D01*
X303100Y110500D01*
X307476D01*
X307864Y110888D01*
X312190D01*
G01D02*
X320000D01*
G01X272300Y23758D02*
X272743Y24201D01*
Y37976D01*
G01X312190Y83329D02*
X321900D01*
G01X326300Y88800D02*
Y85300D01*
G01Y92500D02*
Y88800D01*
G01X302600Y23758D02*
X302270Y24088D01*
Y37976D01*
G01X227390Y91203D02*
X238597D01*
X238600Y91200D01*
G01Y56300D02*
Y79300D01*
G01X272600Y56300D02*
X238600D01*
G01X302300D02*
X303900D01*
X305338Y57738D01*
X312190D01*
G01X238600Y79300D02*
Y91200D01*
G01X227390Y79392D02*
X238508D01*
X238600Y79300D01*
G01X245300Y23758D02*
Y26008D01*
X245184Y26124D01*
Y37976D01*
G01X272600Y56300D02*
X302300D01*
G01X272743Y37976D02*
Y56157D01*
X272600Y56300D01*
G01X238600D02*
Y49400D01*
X245184Y42816D01*
Y37976D01*
G01X330300Y76800D02*
Y80700D01*
G01Y76800D02*
Y76200D01*
X326300Y72200D01*
Y71700D01*
G01X330300Y80700D02*
Y81900D01*
X329300Y82900D01*
X327300D01*
X326300Y83900D01*
Y85300D01*
G01D02*
X323871D01*
X321900Y83329D01*
G01X213172Y47650D02*
X215750D01*
X221901Y53801D01*
X227390D01*
G01X209172Y86830D02*
Y86328D01*
X213172Y82328D01*
Y80830D01*
G01X235341Y122776D02*
X221700D01*
G01D02*
X219076D01*
X217000Y120700D01*
X213172D01*
G01X238600Y91200D02*
Y100514D01*
X236100Y103014D01*
X227390D01*
G01X277300Y136994D02*
X279394D01*
X279953Y137553D01*
Y140441D01*
X280506Y140994D01*
X282500D01*
G01X320000Y110888D02*
X322888D01*
X323400Y111400D01*
X326300D01*
G01D02*
Y108400D01*
G01X213172Y80830D02*
X216770D01*
X218208Y79392D01*
X227390D01*
G01X326300Y71700D02*
X325800D01*
X320200Y66100D01*
Y59600D01*
X318338Y57738D01*
X312190D01*
G01X329190Y-77800D02*
X334700D01*
X336000Y-76500D01*
Y-34000D01*
G01X277300Y136994D02*
Y133500D01*
X271800Y128000D01*
X265869D01*
X264869Y127000D01*
Y122776D01*
G01X213172Y95830D02*
Y97000D01*
X212172Y98000D01*
X203900D01*
X200700Y101200D01*
Y122500D01*
X204700Y126500D01*
X211500D01*
G01X250600Y136994D02*
X253600D01*
G01X250600D02*
Y134400D01*
X247300Y131100D01*
G01X330300Y102400D02*
X336000D01*
X336400Y102800D01*
G01X329800Y102400D02*
X330300D01*
X10180Y-83393D03*
Y243800D03*
X510800Y-83393D03*
Y243800D03*
G54D20*
X529400Y21900D03*
X518000D03*
G54D11*
G01X114250Y-31230D02*
X119270D01*
G01X228890Y175800D02*
Y172290D01*
G01X495573Y79400D02*
X501200D01*
G01X492227D02*
X495573D01*
G01X501800Y72857D02*
X498343D01*
G01X501800Y89918D02*
X498082D01*
G01X323756Y244044D02*
X333556D01*
G01X282890Y204044D02*
X275156D01*
G01X252890Y244044D02*
X240844D01*
G01X526700Y29700D02*
Y33700D01*
X525700Y34700D01*
G01D02*
Y38800D01*
G01X329190Y-73370D02*
X332720D01*
G01X292357Y-67470D02*
X288300D01*
G01X330190Y-66490D02*
X333650D01*
G01X421800Y-60370D02*
Y-52200D01*
X422800Y-51200D01*
G01X487900Y79400D02*
X492227D01*
G01X209172Y100257D02*
X205243D01*
X205170Y100330D01*
G01X159450Y-84800D02*
Y-88450D01*
G01X170810Y-68700D02*
X174300D01*
G01X163450Y-75800D02*
X167400D01*
G01X172100Y-81930D02*
X177070D01*
G01X355300Y-80780D02*
X350280D01*
X349200Y-79700D01*
G01X354300Y-84530D02*
Y-85200D01*
X351500Y-88000D01*
G01X348020Y-84530D02*
X348030D01*
X351500Y-88000D01*
G01X94565Y238368D02*
X112675D01*
G01X49800Y245500D02*
Y247500D01*
X51800Y249500D01*
X65200D01*
G01X102120Y-45030D02*
X105120D01*
G01X65200Y249500D02*
X82200D01*
X93332Y238368D01*
X94565D01*
G01X121700Y-70700D02*
X120730Y-69730D01*
G01X124000Y240900D02*
X121468Y238368D01*
G01X92990Y-64730D02*
X89071D01*
X86700Y-67101D01*
Y-83200D01*
X93600Y-90100D01*
X134500D01*
G01X121468Y238368D02*
X112675D01*
G01X120730Y-69730D02*
X114250D01*
G01X134500Y-90100D02*
X136700Y-87900D01*
G01X143400Y11100D02*
X168200Y-13700D01*
X334000D01*
X340800Y-20500D01*
Y-48900D01*
X350400Y-58500D01*
G01X134892Y20960D02*
Y23960D01*
G01X122321Y18960D02*
X126592D01*
X128592Y20960D01*
X134892D01*
G01Y118843D02*
Y121843D01*
G01X122321Y116843D02*
X127392D01*
X129392Y118843D01*
X134892D01*
G01X141200Y113600D02*
X137600D01*
X134892Y116308D01*
Y118843D01*
G01Y20960D02*
Y19608D01*
X143400Y11100D01*
G01X313200Y-89200D02*
X326664D01*
X331334Y-84530D01*
G01X313200Y-89200D02*
X262000D01*
X257800Y-85000D01*
X198390D01*
G01X313200Y-89200D02*
X313350Y-89050D01*
Y-85560D01*
G01D02*
X312410Y-86500D01*
X310100D01*
G01D02*
X306200D01*
G01X92990Y-21230D02*
X84870D01*
X80098Y-26002D01*
Y-59800D01*
G01X228890Y178800D02*
Y182290D01*
G01X209172Y54450D02*
X191950D01*
X191900Y54400D01*
G01X205500Y186000D02*
X191900D01*
G01X209172Y86830D02*
X191930D01*
G01X237600Y140994D02*
Y143900D01*
X234600Y146900D01*
X224600D01*
G01D02*
X227110Y144390D01*
Y141754D01*
G01X224600Y146900D02*
X209700D01*
X206900Y149700D01*
Y155300D01*
G01X221900Y234544D02*
X87356D01*
X76400Y245500D01*
X69800D01*
G01X228890Y234544D02*
X221900D01*
G01D02*
X222300Y234944D01*
Y246234D01*
X224100Y248034D01*
X228130D01*
G01X221900Y234544D02*
X222300Y234144D01*
Y202800D01*
X205500Y186000D01*
G01X209172Y25650D02*
X191900D01*
G01X206900Y155300D02*
X191900D01*
G01X134892Y127843D02*
Y124843D01*
G01X131100D02*
X129792D01*
X126792Y121843D01*
X122321D01*
G01X131100Y124843D02*
X134892D01*
G01Y29960D02*
Y26960D01*
G01X122321Y23960D02*
X126392D01*
X128416Y25984D01*
G01D02*
X129392Y26960D01*
X134892D01*
G01X298040Y-42037D02*
X302340D01*
G01X487600Y-30600D02*
X481300D01*
X472384Y-21684D01*
X373000D01*
G01X487600Y-27600D02*
Y-24600D01*
G01Y-30600D02*
Y-27600D01*
G01Y-20300D02*
Y-24600D01*
G01Y-17300D02*
Y-20300D01*
G01X302340Y-42037D02*
X310377Y-34000D01*
X336000D01*
G01X280030Y-80040D02*
Y-75370D01*
X283150Y-72250D01*
Y-57900D01*
G01X286950Y-80040D02*
X280030D01*
G01X80098Y-59800D02*
Y-81498D01*
X91400Y-92800D01*
X213500D01*
X218000Y-88300D01*
G01X92990Y-59730D02*
X80168D01*
X80098Y-59800D01*
G01X144390Y-67192D02*
Y-76910D01*
X141900Y-79400D01*
G01X32800Y233000D02*
Y223583D01*
X30030Y220813D01*
Y210143D01*
G01X35540Y162113D02*
X39013D01*
X44628Y167728D01*
X47240D01*
G01X252890Y234044D02*
X237400D01*
G01D02*
X236900Y234544D01*
X232890D01*
G01X520700Y29700D02*
Y33700D01*
X521700Y34700D01*
G01X518000Y21900D02*
X520700Y24600D01*
Y29700D01*
G01X56300Y145800D02*
Y94700D01*
X35000Y73400D01*
X24000D01*
X12800Y62200D01*
Y-70600D01*
X26880Y-84680D01*
X51088D01*
G01X232890Y240544D02*
Y237544D01*
G01Y243544D02*
Y240544D01*
G01X233650Y248034D02*
Y244304D01*
X232890Y243544D01*
G01X252890Y239044D02*
X238444D01*
X236944Y237544D01*
X232890D01*
G01X30030Y-49337D02*
Y-60007D01*
X32800Y-62777D01*
Y-72430D01*
G01X135410Y-28672D02*
X148900Y-42162D01*
Y-51658D01*
X144390Y-56168D01*
G01X159450Y-75800D02*
Y-70800D01*
G01Y-78800D02*
Y-75800D01*
G01Y-81800D02*
Y-78800D01*
G01X167020Y-61250D02*
Y-66970D01*
X165290Y-68700D01*
G01X159450Y-70800D02*
Y-65760D01*
X159700Y-65510D01*
G01X165290Y-68700D02*
X162100Y-65510D01*
X159700D01*
G01X135410Y-67192D02*
Y-65148D01*
X144390Y-56168D01*
G01X135410Y-67192D02*
Y-73294D01*
G01X163450Y-81800D02*
Y-78800D01*
G01Y-84800D02*
Y-81800D01*
G01Y-84800D02*
X164280Y-85630D01*
X172100D01*
G01X177680Y-61250D02*
X183170D01*
X187220Y-65300D01*
G01X172100Y-78230D02*
Y-76100D01*
X177680Y-70520D01*
Y-61250D01*
G01X182900Y-85630D02*
Y-78230D01*
G01X192870Y-85000D02*
Y-79020D01*
G01X182900Y-78230D02*
X192080D01*
X192870Y-79020D01*
G01D02*
Y-74330D01*
X196680Y-70520D01*
Y-65300D01*
G01X114250Y-21230D02*
X118570D01*
X122152Y-17648D01*
X126430D01*
G01D02*
X135410D01*
G01X108120Y-45030D02*
X111120D01*
G01X126430Y-28672D02*
Y-31970D01*
X113370Y-45030D01*
X111120D01*
G01Y-83530D02*
X108120D01*
G01X111120D02*
X116670D01*
X126430Y-73770D01*
Y-67192D01*
G01Y-56168D02*
X135410D01*
G01X114250Y-59730D02*
X122868D01*
X126430Y-56168D01*
G01X529400Y21900D02*
X531300Y23800D01*
Y72300D01*
X527700Y75900D01*
G01X85300Y97500D02*
X119000D01*
X126800Y89700D01*
Y83200D01*
X124300Y80700D01*
X121154D01*
G01Y82402D02*
Y80700D01*
G01D02*
Y78402D01*
G01Y176360D02*
Y180360D01*
G01X84919Y158619D02*
X120819D01*
X128400Y166200D01*
Y177300D01*
X125340Y180360D01*
X121154D01*
X-200Y248700D03*
Y240100D03*
Y244400D03*
X8100Y210900D03*
X-500D03*
X3800D03*
X8700Y206200D03*
X100D03*
X4400D03*
X3300Y103900D03*
Y95300D03*
Y99600D03*
X3600Y120000D03*
Y111400D03*
Y115700D03*
X8900Y-94500D03*
X7900Y-61000D03*
X-700D03*
X3600D03*
X6900Y-52500D03*
X-1700D03*
X2600D03*
X7800Y-46200D03*
X-800D03*
X3500D03*
X7000Y-5600D03*
X-1600D03*
X2700D03*
X7300Y3700D03*
X-1300D03*
X3000D03*
X8800Y216700D03*
X200D03*
X4500D03*
X9300Y254700D03*
X-200Y120200D03*
Y115900D03*
Y107200D03*
Y111600D03*
Y103000D03*
Y98700D03*
Y94400D03*
Y85800D03*
Y90100D03*
Y81500D03*
Y77200D03*
Y72900D03*
Y68600D03*
Y64300D03*
Y60000D03*
Y55700D03*
Y51400D03*
Y47100D03*
Y42800D03*
X7000Y83000D03*
Y87300D03*
Y78700D03*
Y74400D03*
Y70100D03*
Y65800D03*
Y61500D03*
Y57200D03*
Y52900D03*
X-2092Y35008D03*
Y26028D03*
Y17048D03*
X-1962Y197638D03*
Y188658D03*
Y161718D03*
Y152738D03*
Y143758D03*
Y134778D03*
Y125798D03*
X-2092Y8068D03*
Y-912D03*
Y-9892D03*
Y-18872D03*
Y-27852D03*
Y-36832D03*
X215900Y217300D03*
X207300D03*
X211600D03*
X200000D03*
X191400D03*
X195700D03*
X184800Y217600D03*
X176200D03*
X180500D03*
X214900Y227700D03*
X206300D03*
X210600D03*
X199300Y228400D03*
X190700D03*
X195000D03*
X184600Y228900D03*
X176000D03*
X180300D03*
X169500Y228400D03*
X160900D03*
X165200D03*
X170800Y215300D03*
X162200D03*
X166500D03*
X164200Y222300D03*
X155600D03*
X159900D03*
X155400Y213300D03*
X146800D03*
X151100D03*
X150800Y224300D03*
X142200D03*
X146500D03*
X136300Y214400D03*
X127700D03*
X132000D03*
X135400Y225100D03*
X126800D03*
X131100D03*
X185600Y54600D03*
Y58900D03*
Y63200D03*
Y67500D03*
Y71800D03*
Y76100D03*
Y80400D03*
Y89000D03*
Y84700D03*
X179100Y57200D03*
Y61500D03*
Y65800D03*
Y70100D03*
Y74400D03*
Y78700D03*
Y83000D03*
Y91600D03*
Y87300D03*
X168100Y59000D03*
Y63300D03*
Y67600D03*
Y71900D03*
Y76200D03*
Y80500D03*
Y84800D03*
Y93400D03*
Y89100D03*
X156100Y61100D03*
Y65400D03*
Y69700D03*
Y74000D03*
Y78300D03*
Y82600D03*
Y86900D03*
Y95500D03*
Y91200D03*
X147400Y63900D03*
Y68200D03*
Y72500D03*
Y76800D03*
Y81100D03*
Y85400D03*
Y89700D03*
Y98300D03*
Y94000D03*
X138000Y69800D03*
Y74100D03*
Y78400D03*
Y82700D03*
Y87000D03*
Y91300D03*
Y95600D03*
Y104200D03*
Y99900D03*
X154600Y99500D03*
Y103800D03*
Y108100D03*
Y112400D03*
Y116700D03*
X164200Y101800D03*
Y106100D03*
Y110400D03*
Y114700D03*
Y119000D03*
X178500Y101000D03*
Y105300D03*
Y109600D03*
Y113900D03*
Y118200D03*
Y135400D03*
Y131100D03*
X186700Y102000D03*
Y106300D03*
Y110600D03*
Y114900D03*
Y119200D03*
Y136400D03*
Y132100D03*
X167500Y154500D03*
Y158800D03*
Y163100D03*
Y167400D03*
Y171700D03*
Y176000D03*
Y180300D03*
Y188900D03*
Y184600D03*
X157200Y153300D03*
Y157600D03*
Y161900D03*
Y166200D03*
Y170500D03*
Y174800D03*
Y179100D03*
Y187700D03*
Y183400D03*
X147700Y153400D03*
Y157700D03*
Y162000D03*
Y166300D03*
Y170600D03*
Y174900D03*
Y179200D03*
Y187800D03*
Y183500D03*
X138900Y153000D03*
Y157300D03*
Y161600D03*
Y165900D03*
Y170200D03*
Y174500D03*
Y178800D03*
Y187400D03*
Y183100D03*
X528400Y221700D03*
Y226000D03*
Y230300D03*
Y234600D03*
Y238900D03*
Y243200D03*
Y247500D03*
Y256100D03*
Y251800D03*
X540900Y-87400D03*
Y-83100D03*
Y-78800D03*
Y-74500D03*
Y-70200D03*
Y-65900D03*
Y-61600D03*
Y-53000D03*
Y-57300D03*
X541300Y-25700D03*
Y-21400D03*
Y-17100D03*
Y-12800D03*
Y-8500D03*
Y-4200D03*
Y100D03*
Y8700D03*
Y4400D03*
X539500Y136800D03*
Y141100D03*
Y145400D03*
Y149700D03*
Y154000D03*
Y158300D03*
Y162600D03*
Y171200D03*
Y166900D03*
Y179500D03*
Y183800D03*
Y188100D03*
Y192400D03*
Y196700D03*
Y201000D03*
Y205300D03*
Y213900D03*
Y209600D03*
X539200Y218000D03*
Y222300D03*
Y226600D03*
Y230900D03*
Y235200D03*
Y239500D03*
Y243800D03*
Y252400D03*
Y248100D03*
X527100Y183500D03*
X522800D03*
X518500D03*
X528400Y190900D03*
X524100D03*
X519800D03*
X515500D03*
X511200D03*
X524700Y197200D03*
X529000D03*
X520400D03*
X516100D03*
X511800D03*
X507500D03*
X524100Y204800D03*
X528400D03*
X519800D03*
X515500D03*
X511200D03*
X506900D03*
X521700Y211400D03*
X526000D03*
X517400D03*
X513100D03*
X508800D03*
X504500D03*
X503700Y183600D03*
X508000D03*
X493600Y186900D03*
X489300D03*
X485000D03*
X494900Y194300D03*
X490600D03*
X486300D03*
X482000D03*
X477700D03*
X491200Y200600D03*
X495500D03*
X486900D03*
X482600D03*
X478300D03*
X474000D03*
X490600Y208200D03*
X494900D03*
X486300D03*
X482000D03*
X477700D03*
X473400D03*
X488200Y214800D03*
X492500D03*
X483900D03*
X479600D03*
X475300D03*
X471000D03*
X470200Y187000D03*
X474500D03*
X461300Y187500D03*
X457000D03*
X452700D03*
X462600Y194900D03*
X458300D03*
X454000D03*
X449700D03*
X445400D03*
X458900Y201200D03*
X463200D03*
X454600D03*
X450300D03*
X446000D03*
X441700D03*
X458300Y208800D03*
X462600D03*
X454000D03*
X449700D03*
X445400D03*
X441100D03*
X455900Y215400D03*
X460200D03*
X451600D03*
X447300D03*
X443000D03*
X438700D03*
X437900Y187600D03*
X442200D03*
X501500Y219900D03*
X505800D03*
X510100D03*
X514400D03*
X523000D03*
X518700D03*
X468300Y220900D03*
X472600D03*
X476900D03*
X481200D03*
X489800D03*
X485500D03*
X443100Y221900D03*
X447400D03*
X451700D03*
X456000D03*
X464600D03*
X460300D03*
X431300Y230700D03*
X435600D03*
X439900D03*
X444200D03*
X452800D03*
X448500D03*
X494900Y232400D03*
X499200D03*
X503500D03*
X507800D03*
X516400D03*
X512100D03*
X462200Y240900D03*
X466500D03*
X470800D03*
X475100D03*
X483700D03*
X479400D03*
X475000Y245200D03*
X479300D03*
X483600D03*
X487900D03*
X496500D03*
X492200D03*
X443000Y246100D03*
X447300D03*
X451600D03*
X455900D03*
X464500D03*
X460200D03*
X424300Y241000D03*
X428600D03*
X432900D03*
X437200D03*
X445800D03*
X441500D03*
X401300Y184700D03*
X405600D03*
X409900D03*
X414200D03*
X422800D03*
X418500D03*
X402500Y190900D03*
X406800D03*
X411100D03*
X415400D03*
X424000D03*
X419700D03*
X411300Y197500D03*
X415600D03*
X419900D03*
X424200D03*
X432800D03*
X428500D03*
X404000Y204900D03*
X408300D03*
X412600D03*
X416900D03*
X425500D03*
X421200D03*
X400300Y211200D03*
X404600D03*
X408900D03*
X413200D03*
X421800D03*
X417500D03*
X399700Y218800D03*
X404000D03*
X408300D03*
X412600D03*
X421200D03*
X416900D03*
X397300Y225400D03*
X401600D03*
X405900D03*
X410200D03*
X418800D03*
X414500D03*
X394900Y235100D03*
X399200D03*
X403500D03*
X407800D03*
X416400D03*
X412100D03*
X431000Y134900D03*
X435300D03*
X439600D03*
X443900D03*
X452500D03*
X448200D03*
X393600Y143900D03*
X397900D03*
X402200D03*
X406500D03*
X415100D03*
X410800D03*
X390600Y130600D03*
X394900D03*
X399200D03*
X403500D03*
X412100D03*
X407800D03*
X339600Y136100D03*
X343900D03*
X348200D03*
X352500D03*
X361100D03*
X356800D03*
X374000Y138500D03*
X378300D03*
X382600D03*
X386900D03*
X395500D03*
X391200D03*
X372500Y150300D03*
X376800D03*
X381100D03*
X385400D03*
X394000D03*
X389700D03*
X380800Y161500D03*
X385100D03*
X389400D03*
X393700D03*
X402300D03*
X398000D03*
X379600Y170100D03*
X383900D03*
X388200D03*
X392500D03*
X401100D03*
X396800D03*
X392100Y179800D03*
X396400D03*
X400700D03*
X405000D03*
X413600D03*
X409300D03*
X379300Y197600D03*
X383600D03*
X387900D03*
X392200D03*
X400800D03*
X396500D03*
X371100Y187300D03*
X375400D03*
X379700D03*
X384000D03*
X392600D03*
X388300D03*
X358500Y177800D03*
X362800D03*
X367100D03*
X371400D03*
X380000D03*
X375700D03*
X326500Y170500D03*
X330800D03*
X335100D03*
X339400D03*
X352600Y166600D03*
X356900D03*
X365500D03*
X361200D03*
X332400Y152100D03*
X336700D03*
X341000D03*
X345300D03*
X353900D03*
X349600D03*
X346400Y157400D03*
X350700D03*
X355000D03*
X359300D03*
X367900D03*
X363600D03*
X330500Y157900D03*
X326200D03*
X473200Y-800D03*
X477500D03*
X481800D03*
X486100D03*
X494700D03*
X490400D03*
X466700Y4400D03*
X471000D03*
X475300D03*
X479600D03*
X488200D03*
X483900D03*
X462400Y8900D03*
X466700D03*
X471000D03*
X475300D03*
X483900D03*
X479600D03*
X348900Y-11500D03*
X353200D03*
X357500D03*
X361800D03*
X370400D03*
X366100D03*
X389100Y-80500D03*
X393400D03*
X397700D03*
X402000D03*
X410600D03*
X406300D03*
X392600Y-44700D03*
Y-49000D03*
Y-66200D03*
Y-61900D03*
X415700Y-32200D03*
X411400D03*
X407100D03*
X402800D03*
X394200D03*
X398500D03*
X457500Y-32800D03*
X453200D03*
X448900D03*
X444600D03*
X436000D03*
X440300D03*
X529700Y-65600D03*
Y-69900D03*
Y-74200D03*
Y-78500D03*
Y-87100D03*
Y-82800D03*
X267200Y-47400D03*
Y-51700D03*
Y-56000D03*
Y-60300D03*
Y-64600D03*
Y-68900D03*
Y-73200D03*
Y-81800D03*
Y-77500D03*
X254900Y-45600D03*
Y-49900D03*
Y-54200D03*
Y-58500D03*
Y-62800D03*
Y-67100D03*
Y-71400D03*
Y-80000D03*
Y-75700D03*
X245400Y-45000D03*
Y-49300D03*
Y-53600D03*
Y-57900D03*
Y-62200D03*
Y-66500D03*
Y-70800D03*
Y-79400D03*
Y-75100D03*
X235500Y-44400D03*
Y-48700D03*
Y-53000D03*
Y-57300D03*
Y-61600D03*
Y-65900D03*
Y-70200D03*
Y-78800D03*
Y-74500D03*
X224300Y-43400D03*
Y-47700D03*
Y-52000D03*
Y-56300D03*
Y-60600D03*
Y-64900D03*
Y-69200D03*
Y-77800D03*
Y-73500D03*
X213100Y-43400D03*
Y-47700D03*
Y-52000D03*
Y-56300D03*
Y-60600D03*
Y-64900D03*
X143400Y4400D03*
Y100D03*
Y-4200D03*
Y-8500D03*
Y-12800D03*
Y-17100D03*
Y-21400D03*
Y-30000D03*
Y-25700D03*
X147600Y-600D03*
Y-4900D03*
Y-9200D03*
Y-13500D03*
Y-17800D03*
Y-22100D03*
Y-26400D03*
Y-30700D03*
X152100Y-4100D03*
Y-8400D03*
Y-12700D03*
Y-17000D03*
Y-21300D03*
Y-25600D03*
Y-29900D03*
X156300Y-8600D03*
Y-12900D03*
Y-17200D03*
Y-21500D03*
Y-25800D03*
Y-30100D03*
X159000Y20900D03*
X154700D03*
X146100D03*
X150400D03*
X181400Y15700D03*
X159900D03*
X155600D03*
X147000D03*
X151300D03*
X188800Y8700D03*
X184500D03*
X163000D03*
X154400D03*
X158700D03*
X182700Y2200D03*
X208100Y-7100D03*
X182300D03*
X231400Y-3300D03*
X227100D03*
X222800D03*
X218500D03*
X214200D03*
X209900D03*
X300200Y-4900D03*
X291600D03*
X295900D03*
X301100Y5400D03*
X292500D03*
X296800D03*
X298700Y0D03*
X294400D03*
X290100D03*
X285800D03*
X281500D03*
X277200D03*
X268600D03*
X272900D03*
X276700Y-3900D03*
X272400D03*
X268100D03*
X263800D03*
X259500D03*
X255200D03*
X250900D03*
X242300D03*
X246600D03*
X279400Y5000D03*
X275100D03*
X270800D03*
X266500D03*
X262200D03*
X257900D03*
X253600D03*
X245000D03*
X249300D03*
X449400Y-1500D03*
X445100D03*
X440800D03*
X436500D03*
X432200D03*
X427900D03*
X423600D03*
X415000D03*
X419300D03*
X403100Y200D03*
X398800D03*
X394500D03*
X390200D03*
X385900D03*
X381600D03*
X377300D03*
X368700D03*
X373000D03*
X353600Y500D03*
X349300D03*
X345000D03*
X340700D03*
X332100D03*
X382800Y-5800D03*
X378500D03*
X374200D03*
X369900D03*
X365600D03*
X361300D03*
X357000D03*
X348400D03*
X352700D03*
X426900Y-6800D03*
X422600D03*
X418300D03*
X414000D03*
X409700D03*
X405400D03*
X401100D03*
X392500D03*
X396800D03*
X467500Y-7100D03*
X463200D03*
X458900D03*
X454600D03*
X450300D03*
X446000D03*
X441700D03*
X433100D03*
X437400D03*
X400300Y5500D03*
X396000D03*
X391700D03*
X387400D03*
X383100D03*
X378800D03*
X374500D03*
X365900D03*
X370200D03*
X381600Y22300D03*
X377300D03*
X373000D03*
X368700D03*
X364400D03*
X360100D03*
X355800D03*
X347200D03*
X351500D03*
X432800Y26700D03*
X428500D03*
X424200D03*
X419900D03*
X415600D03*
X411300D03*
X407000D03*
X398400D03*
X402700D03*
X419100Y81200D03*
X414800D03*
X410500D03*
X406200D03*
X401900D03*
X397600D03*
X393300D03*
X384700D03*
X389000D03*
X379500Y86500D03*
X375200D03*
X370900D03*
X366600D03*
X362300D03*
X358000D03*
X353700D03*
X345100D03*
X349400D03*
X387100Y59800D03*
Y55500D03*
Y51200D03*
Y46900D03*
Y42600D03*
Y38300D03*
Y34000D03*
Y25400D03*
Y29700D03*
X438700Y63000D03*
Y58700D03*
Y54400D03*
Y50100D03*
Y45800D03*
Y41500D03*
Y37200D03*
Y28600D03*
Y32900D03*
X517300Y41400D03*
X513000D03*
X508700D03*
X504400D03*
X500100D03*
X495800D03*
X491500D03*
X482900D03*
X487200D03*
X502300Y47700D03*
X498000D03*
X493700D03*
X489400D03*
X485100D03*
X480800D03*
X476500D03*
X467900D03*
X472200D03*
X494200Y53600D03*
X489900D03*
X485600D03*
X481300D03*
X477000D03*
X472700D03*
X468400D03*
X459800D03*
X464100D03*
X508200Y46000D03*
X519800Y45000D03*
X538900Y42800D03*
X540100Y48800D03*
X536300Y49300D03*
X524900Y50400D03*
X520400Y51200D03*
X515500Y51900D03*
X531500Y109000D03*
Y103000D03*
X538300Y72400D03*
X537600Y81000D03*
X534400Y89700D03*
X510900Y65500D03*
X511100Y68900D03*
X511500Y71800D03*
X511800Y90300D03*
X511300Y93000D03*
X510800Y97000D03*
X507400Y86800D03*
X506800Y79500D03*
X503900Y79400D03*
X495100Y86500D03*
X492100Y86700D03*
X485200Y79200D03*
X482500Y79500D03*
X474100Y96900D03*
X476100Y94600D03*
X478200Y92200D03*
X480300Y90200D03*
X482700Y88200D03*
X485200Y86000D03*
X480100Y81800D03*
X477900Y83900D03*
X475800Y86200D03*
X470400Y91000D03*
X467600Y93500D03*
X319800Y90100D03*
X318100Y86300D03*
X437500Y100800D03*
X436900Y94600D03*
X395400Y94400D03*
X392400D03*
X389600Y94500D03*
X395100Y101000D03*
X392000D03*
X389100Y101100D03*
X385600Y94500D03*
X381300D03*
X377000D03*
X386300Y101100D03*
X382000D03*
X377700D03*
X147600Y-78900D03*
X300800Y-82600D03*
X304400Y-74300D03*
X254800Y144100D03*
X132260Y8960D03*
X132140Y13960D03*
X264000Y99300D03*
Y90700D03*
Y86400D03*
Y82100D03*
Y77800D03*
Y73500D03*
Y69200D03*
Y64900D03*
X269800Y115500D03*
X333700Y88800D03*
X334300Y71700D03*
X319023Y77423D03*
X141940Y35960D03*
X331100Y9300D03*
X329900Y-9700D03*
X325600D03*
X205200Y116400D03*
X260300Y188400D03*
X260200Y184200D03*
X265400Y181700D03*
X263700Y185700D03*
X269000Y180900D03*
X259500Y181200D03*
X234400Y50800D03*
X240439Y31100D03*
X234400Y105700D03*
X219700Y92000D03*
X205230Y80830D03*
X240200Y114800D03*
X375900Y217800D03*
Y213500D03*
X386300Y224100D03*
X338000Y189700D03*
Y185400D03*
X414600Y246700D03*
X418900D03*
X426100Y255200D03*
X430400D03*
X205170Y100330D03*
X205130Y92830D03*
X243600Y144300D03*
X228890Y172290D03*
X366200Y242600D03*
Y238300D03*
X375900Y243600D03*
X311700Y206200D03*
X302700Y199000D03*
Y194700D03*
X338000Y219800D03*
X387700Y255000D03*
X501200Y79400D03*
X487900D03*
X539100Y28300D03*
Y24000D03*
Y2500D03*
X512600Y85100D03*
X512300Y79500D03*
X509500D03*
X509900Y85000D03*
X505000Y85200D03*
X500300Y85000D03*
X489000Y87400D03*
X486200Y90100D03*
X484200Y92700D03*
X481400Y95100D03*
X478500Y97900D03*
X463700Y94600D03*
X459400D03*
X455100D03*
X450800D03*
X453900Y100800D03*
X449600D03*
X458200D03*
X462500D03*
X466800D03*
X471100D03*
X475400D03*
X479700D03*
X484000D03*
X415400Y94700D03*
X411100D03*
X419700D03*
X424000D03*
X428300D03*
X432600D03*
X441200D03*
X445500D03*
X416300Y100900D03*
X412000D03*
X420600D03*
X424900D03*
X429200D03*
X433500D03*
X442100D03*
X446400D03*
X372700Y94800D03*
X398500D03*
X402800D03*
X407100D03*
X373700Y100900D03*
X399500D03*
X403800D03*
X408100D03*
X343500Y94900D03*
X347800D03*
X352100D03*
X356400D03*
X360700D03*
X365000D03*
X369300D03*
X339500Y100900D03*
X343800D03*
X348100D03*
X352400D03*
X356700D03*
X361000D03*
X365300D03*
X369600D03*
X356900Y9300D03*
X352600D03*
X348300D03*
X344000D03*
X339700D03*
X303300Y10200D03*
X299000D03*
X294700D03*
X290400D03*
X286100D03*
X281800D03*
X277500D03*
X268900D03*
X273200D03*
X284000Y64700D03*
Y69000D03*
Y73300D03*
Y77600D03*
Y81900D03*
Y86200D03*
Y90500D03*
Y99100D03*
Y94800D03*
X253700Y64100D03*
Y68400D03*
Y72700D03*
Y77000D03*
Y81300D03*
Y85600D03*
Y89900D03*
Y98500D03*
Y94200D03*
X278000Y65100D03*
Y69400D03*
Y73700D03*
Y78000D03*
Y82300D03*
Y86600D03*
Y90900D03*
Y99500D03*
Y95200D03*
X203400Y244700D03*
X199100D03*
X194800D03*
X190500D03*
X186200D03*
X181900D03*
X177600D03*
X169000D03*
X173300D03*
X153600Y209300D03*
X149300D03*
X145000D03*
X140700D03*
X136400D03*
X132100D03*
X127800D03*
X123500D03*
X203800Y212400D03*
X199500D03*
X195200D03*
X190900D03*
X186600D03*
X182300D03*
X178000D03*
X169400D03*
X173700D03*
X155400Y218700D03*
X151100D03*
X146800D03*
X142500D03*
X138200D03*
X133900D03*
X129600D03*
X121000D03*
X125300D03*
X203600Y223700D03*
X199300D03*
X195000D03*
X190700D03*
X186400D03*
X182100D03*
X177800D03*
X169200D03*
X173500D03*
X155900Y230700D03*
X151600D03*
X147300D03*
X143000D03*
X138700D03*
X134400D03*
X130100D03*
X121500D03*
X125800D03*
X201900Y240000D03*
X197600D03*
X193300D03*
X189000D03*
X184700D03*
X180400D03*
X176100D03*
X167500D03*
X171800D03*
X158400Y240900D03*
X154100D03*
X149800D03*
X145500D03*
X141200D03*
X136900D03*
X132600D03*
X124000D03*
X128300D03*
X129600Y255000D03*
X125300D03*
X121000D03*
X172700Y254800D03*
X168400D03*
X164100D03*
X159800D03*
X155500D03*
X151200D03*
X146900D03*
X138300D03*
X142600D03*
X215200Y254600D03*
X210900D03*
X206600D03*
X202300D03*
X198000D03*
X193700D03*
X189400D03*
X180800D03*
X185100D03*
X259800Y255000D03*
X255500D03*
X251200D03*
X246900D03*
X242600D03*
X238300D03*
X234000D03*
X225400D03*
X229700D03*
X300900Y254800D03*
X296600D03*
X292300D03*
X288000D03*
X283700D03*
X279400D03*
X275100D03*
X266500D03*
X270800D03*
X344700Y254600D03*
X340400D03*
X336100D03*
X331800D03*
X327500D03*
X323200D03*
X318900D03*
X310300D03*
X314600D03*
X383400Y255000D03*
X379100D03*
X374800D03*
X370500D03*
X366200D03*
X361900D03*
X353300D03*
X357600D03*
X434700Y255200D03*
X421800D03*
X417500D03*
X413200D03*
X408900D03*
X400300D03*
X404600D03*
X477400Y255500D03*
X473100D03*
X468800D03*
X464500D03*
X460200D03*
X455900D03*
X451600D03*
X443000D03*
X447300D03*
X518400Y255300D03*
X514100D03*
X509800D03*
X505500D03*
X501200D03*
X496900D03*
X492600D03*
X484000D03*
X488300D03*
X427500Y246700D03*
X423200D03*
X410300D03*
X406000D03*
X401700D03*
X393100D03*
X397400D03*
X338000Y194000D03*
Y198300D03*
Y202600D03*
Y206900D03*
Y211200D03*
Y215500D03*
X286900Y192200D03*
Y196500D03*
Y200800D03*
Y205100D03*
Y209400D03*
Y213700D03*
Y222300D03*
Y218000D03*
X302700Y186100D03*
Y190400D03*
Y203300D03*
Y207600D03*
Y211900D03*
Y220500D03*
Y216200D03*
X311700Y210500D03*
Y214800D03*
Y219100D03*
Y223400D03*
Y227700D03*
Y232000D03*
Y240600D03*
Y236300D03*
X291400Y206200D03*
Y210500D03*
Y214800D03*
Y219100D03*
Y223400D03*
Y227700D03*
Y232000D03*
Y240600D03*
Y236300D03*
X269500Y211200D03*
Y215500D03*
Y219800D03*
Y224100D03*
Y228400D03*
Y232700D03*
Y241300D03*
Y237000D03*
X393300Y240800D03*
X386300Y206900D03*
Y211200D03*
Y215500D03*
Y219800D03*
Y228400D03*
Y232700D03*
Y241300D03*
Y237000D03*
X375900Y209200D03*
Y222100D03*
Y226400D03*
Y230700D03*
Y235000D03*
Y239300D03*
X366200Y212500D03*
Y216800D03*
Y221100D03*
Y225400D03*
Y229700D03*
Y234000D03*
Y246900D03*
X422000Y138600D03*
Y142900D03*
Y147200D03*
Y151500D03*
Y155800D03*
Y160100D03*
Y164400D03*
Y168700D03*
X362800Y145400D03*
X358500D03*
X354200D03*
X349900D03*
X345600D03*
X341300D03*
X337000D03*
X328400D03*
X332700D03*
X527900Y158300D03*
X523600D03*
X519300D03*
X515000D03*
X510700D03*
X506400D03*
X502100D03*
X493500D03*
X497800D03*
X477000Y160300D03*
X472700D03*
X468400D03*
X464100D03*
X459800D03*
X455500D03*
X451200D03*
X442600D03*
X446900D03*
X477700Y130400D03*
X473400D03*
X469100D03*
X464800D03*
X460500D03*
X456200D03*
X451900D03*
X443300D03*
X447600D03*
X477400Y141800D03*
X473100D03*
X468800D03*
X464500D03*
X460200D03*
X455900D03*
X451600D03*
X443000D03*
X447300D03*
X476800Y150600D03*
X472500D03*
X468200D03*
X463900D03*
X459600D03*
X455300D03*
X451000D03*
X442400D03*
X446700D03*
X525400Y135000D03*
X521100D03*
X516800D03*
X512500D03*
X508200D03*
X503900D03*
X499600D03*
X491000D03*
X495300D03*
X527400Y147400D03*
X523100D03*
X518800D03*
X514500D03*
X510200D03*
X505900D03*
X501600D03*
X493000D03*
X497300D03*
X523800Y111700D03*
X519500D03*
X515200D03*
X510900D03*
X506600D03*
X502300D03*
X498000D03*
X489400D03*
X493700D03*
X525200Y120300D03*
X520900D03*
X516600D03*
X512300D03*
X508000D03*
X503700D03*
X499400D03*
X490800D03*
X495100D03*
X486300Y59500D03*
X482000D03*
X477700D03*
X473400D03*
X469100D03*
X464800D03*
X460500D03*
X451900D03*
X456200D03*
X482000Y68300D03*
X477700D03*
X473400D03*
X469100D03*
X464800D03*
X460500D03*
X456200D03*
X447600D03*
X451900D03*
X479200Y78000D03*
X474900D03*
X470600D03*
X466300D03*
X462000D03*
X457700D03*
X453400D03*
X444800D03*
X449100D03*
X472000Y86600D03*
X467700D03*
X463400D03*
X459100D03*
X454800D03*
X450500D03*
X441900D03*
X446200D03*
X478400Y110800D03*
X474100D03*
X469800D03*
X465500D03*
X461200D03*
X456900D03*
X452600D03*
X444000D03*
X448300D03*
X478300Y119900D03*
X474000D03*
X469700D03*
X465400D03*
X461100D03*
X456800D03*
X452500D03*
X443900D03*
X448200D03*
X432900Y107000D03*
X428600D03*
X424300D03*
X420000D03*
X415700D03*
X411400D03*
X407100D03*
X398500D03*
X402800D03*
X432700Y115600D03*
X428400D03*
X424100D03*
X419800D03*
X415500D03*
X411200D03*
X406900D03*
X398300D03*
X402600D03*
X433100Y123400D03*
X428800D03*
X424500D03*
X420200D03*
X415900D03*
X411600D03*
X407300D03*
X398700D03*
X403000D03*
X374100Y109200D03*
X369800D03*
X365500D03*
X361200D03*
X356900D03*
X352600D03*
X348300D03*
X339700D03*
X344000D03*
X370300Y118200D03*
X366000D03*
X361700D03*
X357400D03*
X353100D03*
X348800D03*
X344500D03*
X335900D03*
X340200D03*
X363100Y125900D03*
X358800D03*
X354500D03*
X350200D03*
X345900D03*
X341600D03*
X337300D03*
X328700D03*
X333000D03*
X371600Y41700D03*
Y46000D03*
Y50300D03*
Y54600D03*
Y58900D03*
Y63200D03*
Y67500D03*
Y76100D03*
Y71800D03*
X361900Y34900D03*
Y39200D03*
Y43500D03*
Y47800D03*
Y52100D03*
Y56400D03*
Y60700D03*
Y69300D03*
Y65000D03*
X351100Y29400D03*
Y33700D03*
Y38000D03*
Y42300D03*
Y46600D03*
Y50900D03*
Y55200D03*
Y63800D03*
Y59500D03*
X341500Y23800D03*
Y28100D03*
Y32400D03*
Y36700D03*
Y41000D03*
Y45300D03*
Y49600D03*
Y58200D03*
Y53900D03*
X425900Y50500D03*
Y54800D03*
Y59100D03*
Y63400D03*
Y67700D03*
Y72000D03*
Y76300D03*
Y84900D03*
Y80600D03*
X416400Y42600D03*
Y46900D03*
Y51200D03*
Y55500D03*
Y59800D03*
Y64100D03*
Y68400D03*
Y77000D03*
Y72700D03*
X404400Y33500D03*
Y37800D03*
Y42100D03*
Y46400D03*
Y50700D03*
Y55000D03*
Y59300D03*
Y67900D03*
Y63600D03*
X442900Y4100D03*
X438600D03*
X434300D03*
X430000D03*
X425700D03*
X421400D03*
X417100D03*
X408500D03*
X412800D03*
X451400Y20200D03*
Y24500D03*
Y28800D03*
Y33100D03*
Y37400D03*
Y41700D03*
Y46000D03*
Y54600D03*
Y50300D03*
X472400Y20600D03*
Y24900D03*
Y29200D03*
Y33500D03*
Y42100D03*
Y37800D03*
X486400Y20000D03*
Y24300D03*
Y28600D03*
Y37200D03*
Y32900D03*
X539100Y15400D03*
Y19700D03*
Y36900D03*
Y32600D03*
Y6800D03*
Y11100D03*
X540700Y-40400D03*
X536400D03*
X532100D03*
X522600Y-73400D03*
X518300D03*
X514000D03*
X509700D03*
X505400D03*
X501100D03*
X496800D03*
X488200D03*
X492500D03*
X535500Y-90400D03*
Y-86100D03*
Y-81800D03*
Y-77500D03*
Y-73200D03*
Y-68900D03*
Y-64600D03*
Y-56000D03*
Y-60300D03*
X524500Y-95200D03*
X520200D03*
X515900D03*
X511600D03*
X507300D03*
X503000D03*
X498700D03*
X490100D03*
X494400D03*
X457600Y-16400D03*
X453300D03*
X449000D03*
X444700D03*
X440400D03*
X436100D03*
X431800D03*
X423200D03*
X427500D03*
X409200Y-16100D03*
X404900D03*
X400600D03*
X396300D03*
X392000D03*
X387700D03*
X383400D03*
X374800D03*
X379100D03*
X342800Y-9700D03*
X338500D03*
X312700D03*
X270400Y-32400D03*
X266100D03*
X261800D03*
X257500D03*
X253200D03*
X248900D03*
X244600D03*
X236000D03*
X240300D03*
X290400Y-23200D03*
X286100D03*
X281800D03*
X277500D03*
X273200D03*
X268900D03*
X264600D03*
X256000D03*
X260300D03*
X289100Y-9700D03*
X284800D03*
X280500D03*
X276200D03*
X271900D03*
X267600D03*
X263300D03*
X254700D03*
X259000D03*
X241500Y8500D03*
X237200D03*
X232900D03*
X228600D03*
X224300D03*
X220000D03*
X215700D03*
X207100D03*
X211400D03*
X243900Y1900D03*
X239600D03*
X235300D03*
X231000D03*
X226700D03*
X222400D03*
X218100D03*
X209500D03*
X213800D03*
X247200Y-9700D03*
X242900D03*
X238600D03*
X234300D03*
X230000D03*
X225700D03*
X221400D03*
X212800D03*
X217100D03*
X247700Y-27300D03*
X243400D03*
X239100D03*
X234800D03*
X230500D03*
X226200D03*
X221900D03*
X213300D03*
X217600D03*
X351500Y-88000D03*
X205450Y38650D03*
X498343Y72857D03*
X498082Y89918D03*
X333556Y244044D03*
X275156Y204044D03*
X240844Y244044D03*
X525700Y38800D03*
X332720Y-73370D03*
X333650Y-66490D03*
X330320Y-39310D03*
X471800Y-81500D03*
X475900D03*
X479900Y-81600D03*
X472500Y-84400D03*
X476500Y-84300D03*
X481200Y-84400D03*
X422800Y-46600D03*
X443200Y-41400D03*
X286522Y116778D03*
X330300Y114300D03*
X318451Y106951D03*
X304900Y60700D03*
X298333Y31133D03*
X298258Y19758D03*
X275758D03*
X269600Y31400D03*
X205750Y31650D03*
X205350Y44650D03*
X204850Y51450D03*
X219870Y71970D03*
X219800Y82100D03*
X204750Y57450D03*
X159450Y-88450D03*
X174300Y-68700D03*
X167400Y-75800D03*
X177070Y-81930D03*
X143360Y41960D03*
X142440Y29960D03*
X142560Y26960D03*
Y23960D03*
X142660Y20960D03*
X135240Y53960D03*
X225544Y243544D03*
X225744Y240544D03*
Y237544D03*
X136700Y-87900D03*
X349200Y-79700D03*
X121000Y-42000D03*
X273736Y133836D03*
X479600Y-12500D03*
X503900Y-5900D03*
X58792Y173708D03*
X82116Y172284D03*
X142743Y130843D03*
X314600Y131337D03*
X316525Y129412D03*
X142857Y136843D03*
X141200Y113600D03*
X143400Y11100D03*
X218000Y-88300D03*
X191900Y-49700D03*
Y-22100D03*
Y25650D03*
Y54400D03*
X191930Y86830D03*
X191900Y155300D03*
Y186000D03*
X228890Y182290D03*
X205500Y186000D03*
X320000Y110888D03*
X321900Y83329D03*
X131100Y124843D03*
X128416Y25984D03*
X336000Y-34000D03*
X373000Y-21684D03*
X58988Y179688D03*
X81816Y184284D03*
X384100Y-62600D03*
X443000Y-53200D03*
X123500Y-95900D03*
X120700Y-97000D03*
X470500Y-89500D03*
X473500Y-89400D03*
X476600D03*
X479500D03*
X141900Y-79400D03*
X77100Y39000D03*
X81902Y74402D03*
X77200Y43960D03*
X82102Y86402D03*
X237400Y234044D03*
X286600Y128600D03*
X288006Y136994D03*
X304900Y97000D03*
X319900Y104500D03*
X27800Y246500D03*
X52300Y232300D03*
X253000Y129100D03*
X199800Y192300D03*
X249000Y45000D03*
X267736Y134036D03*
X251000Y30600D03*
X265500Y130600D03*
X297900Y104982D03*
Y48900D03*
X243200Y117000D03*
X244082Y104982D03*
X224800Y131100D03*
X243215D03*
X234300Y83300D03*
X247300Y131100D03*
X300200Y44100D03*
Y108919D03*
X144900Y38500D03*
X205600Y197700D03*
X261400Y129200D03*
X197900Y49500D03*
X199800Y189600D03*
X302700Y114800D03*
X199800Y195000D03*
X305100Y112800D03*
X199800Y200400D03*
X304100Y103000D03*
X199800Y203100D03*
X144900Y33700D03*
X306700Y28600D03*
X159450Y-70800D03*
X135410Y-73294D03*
X123400Y-51400D03*
X317640Y95140D03*
X336400Y500D03*
X123300Y-48600D03*
X336400Y102800D03*
X324000Y-19900D03*
X325925Y-17975D03*
X31800Y246500D03*
X279400Y106700D03*
Y145600D03*
X252950Y44650D03*
X264100Y133500D03*
X253500Y32400D03*
X261200Y132500D03*
X84600Y64800D03*
X77100Y23960D03*
X84100Y217600D03*
X75500D03*
X79800D03*
X71600Y224400D03*
Y215800D03*
Y220100D03*
X65600Y223400D03*
Y214800D03*
Y219100D03*
X38700Y231100D03*
Y222500D03*
Y226800D03*
X42300Y229800D03*
Y221200D03*
Y225500D03*
X41900Y244800D03*
Y240500D03*
X38200Y245200D03*
Y240900D03*
X20400Y247700D03*
Y239100D03*
Y243400D03*
X32100Y197000D03*
X28200Y186100D03*
X19600D03*
X23900D03*
X54200Y192200D03*
X66300Y192600D03*
X57700D03*
X62000D03*
X66700Y185000D03*
X58100D03*
X62400D03*
X74800Y188200D03*
X66200D03*
X70500D03*
X82100Y192900D03*
X73500D03*
X77800D03*
X69300Y181500D03*
Y172900D03*
X74900Y182800D03*
Y174200D03*
Y167500D03*
Y158900D03*
Y163200D03*
X68800Y167700D03*
Y159100D03*
Y163400D03*
X50400Y116700D03*
Y108100D03*
Y112400D03*
X46300Y118000D03*
Y109400D03*
Y113700D03*
X75600Y130800D03*
X67000D03*
X71300D03*
X68600Y134900D03*
X61100Y138100D03*
Y129500D03*
Y133800D03*
X80400Y101700D03*
Y93100D03*
Y97400D03*
X72000Y90800D03*
Y82200D03*
Y86500D03*
X75800Y97200D03*
Y88600D03*
Y92900D03*
X69000Y101900D03*
Y93300D03*
Y97600D03*
X63200Y103100D03*
Y94500D03*
Y98800D03*
X61800Y88500D03*
Y79900D03*
Y84200D03*
X54700Y86300D03*
Y77700D03*
Y82000D03*
X68100Y85600D03*
Y77000D03*
Y81300D03*
X68800Y63600D03*
Y55000D03*
Y59300D03*
X56300Y59200D03*
Y50600D03*
Y54900D03*
X47200Y54800D03*
Y46200D03*
Y50500D03*
X74200Y76700D03*
Y72400D03*
X61500Y75100D03*
Y66500D03*
Y70800D03*
X53300Y73400D03*
Y64800D03*
Y69100D03*
X46700Y71700D03*
Y63100D03*
Y67400D03*
X37900Y69400D03*
Y60800D03*
Y65100D03*
X30000Y68700D03*
Y60100D03*
Y64400D03*
X22200Y66200D03*
Y57600D03*
Y61900D03*
X36700Y35900D03*
Y27300D03*
Y31600D03*
X55700Y35300D03*
Y26700D03*
Y31000D03*
X64700Y37600D03*
Y29000D03*
Y33300D03*
X64300Y25600D03*
Y17000D03*
Y21300D03*
X71400Y3300D03*
Y-5300D03*
Y-1000D03*
X66500Y400D03*
Y-8200D03*
Y-3900D03*
X60500Y-2600D03*
Y-11200D03*
Y-6900D03*
X61700Y-37100D03*
Y-45700D03*
Y-41400D03*
X67900Y-36300D03*
Y-44900D03*
Y-40600D03*
X73200Y-35800D03*
Y-44400D03*
Y-40100D03*
X73600Y-54700D03*
Y-63300D03*
Y-59000D03*
X67300Y-55900D03*
Y-64500D03*
Y-60200D03*
X59800Y-55800D03*
Y-64400D03*
Y-60100D03*
X45800Y-60500D03*
Y-69100D03*
Y-64800D03*
X39600Y-59000D03*
Y-67600D03*
Y-63300D03*
X43100Y-48800D03*
Y-57400D03*
Y-53100D03*
X46700Y-43900D03*
Y-52500D03*
Y-48200D03*
X54800Y-93000D03*
X50500D03*
X38600Y-95400D03*
X42900D03*
X43700Y-90700D03*
X35100D03*
X39400D03*
X28200Y-90300D03*
X19600D03*
X23900D03*
X33500Y-95000D03*
X24900D03*
X29200D03*
X17500Y-94500D03*
X13200D03*
X46200Y93600D03*
X37600D03*
X41900D03*
X25100Y100800D03*
X16500D03*
X20800D03*
X46300Y99400D03*
X37700D03*
X42000D03*
X22300Y233000D03*
X56700Y255200D03*
X52400D03*
X61000D03*
X65300D03*
X69600D03*
X73900D03*
X78200D03*
X82500D03*
X86800D03*
X13600Y254700D03*
X17900D03*
X22200D03*
X26500D03*
X30800D03*
X35100D03*
X39400D03*
X43700D03*
X81300Y231600D03*
X77000D03*
X85600D03*
X80600Y222800D03*
X76300D03*
X84900D03*
X74300Y211100D03*
X70000D03*
X78600D03*
X82900D03*
X87200D03*
X14400Y75900D03*
Y80200D03*
X47300Y222700D03*
Y227000D03*
X56300Y-6600D03*
X56748Y161748D03*
X47300Y218400D03*
Y214100D03*
Y209800D03*
Y205500D03*
Y201200D03*
X56972Y167728D03*
X68348Y150352D03*
X64557Y125643D03*
X64503Y122203D03*
Y119203D03*
X64660Y107360D03*
X64140Y48960D03*
X77940Y33960D03*
X64960Y9140D03*
X26800Y-62100D03*
X23700Y224100D03*
X39200Y-79000D03*
X204900Y135800D03*
X245700Y133800D03*
X80300Y161900D03*
X77743Y121843D03*
G54D21*
X211500Y126500D03*
Y137900D03*
G54D12*
X486449Y-13028D03*
X492551D03*
G54D30*
X35540Y172743D03*
Y162113D03*
Y151483D03*
Y140853D03*
X24520Y177863D03*
Y167233D03*
Y156603D03*
Y145973D03*
X35540Y10113D03*
Y-517D03*
Y-11147D03*
Y-21777D03*
X24520Y15233D03*
Y4603D03*
Y-6027D03*
Y-16657D03*
G54D31*
X30030Y210143D03*
Y113293D03*
Y47513D03*
Y-49337D03*
G54D13*
X354300Y-84530D03*
X360300D03*
X348020D03*
X342020D03*
X277241Y-51330D03*
X283241D03*
X32800Y233000D03*
X26800D03*
X32800Y-72430D03*
X26800D03*
X526700Y29700D03*
X520700D03*
X32800Y238700D03*
X26800D03*
X32800Y-78130D03*
X26800D03*
G54D40*
X518874Y-51921D03*
X495252D03*
G54D22*
X298040Y-42037D03*
Y-57023D03*
G54D32*
X52760Y151953D03*
X47240D03*
X52760Y-35120D03*
X47240D03*
X30760Y88253D03*
X25240D03*
X52760Y161748D03*
X47240D03*
X52760Y173708D03*
X47240D03*
X52760Y179688D03*
X47240D03*
X30760Y82273D03*
X25240D03*
X52760Y185668D03*
X47240D03*
X52760Y18700D03*
X47240D03*
X52760Y12720D03*
X47240D03*
X52760Y6740D03*
X47240D03*
X52760Y760D03*
X47240D03*
X52760Y-5220D03*
X47240D03*
X52760Y-11200D03*
X47240D03*
X52760Y-29140D03*
X47240D03*
X52760Y-17180D03*
X47240D03*
X52760Y139993D03*
X47240D03*
X52760Y167728D03*
X47240D03*
X233650Y248034D03*
X228130D03*
X47240Y145973D03*
X52760D03*
X165290Y-68700D03*
X170810D03*
X192870Y-79020D03*
X198390D03*
Y-85000D03*
X192870D03*
X52760Y-23160D03*
X47240D03*
G54D41*
X501800Y89918D03*
X505800D03*
X501800Y72857D03*
X505800D03*
X232890Y234544D03*
X228890D03*
Y178800D03*
X232890D03*
Y175800D03*
X228890D03*
X232890Y243544D03*
X228890D03*
X209172Y54450D03*
X213172D03*
X326300Y85300D03*
X330300D03*
X326300Y88800D03*
X330300D03*
X326300Y71700D03*
X330300D03*
X326300Y92500D03*
X330300D03*
X326300Y111400D03*
X330300D03*
X326300Y108400D03*
X330300D03*
X213172Y47650D03*
X209172D03*
X213172Y80830D03*
X209172D03*
X213172Y31650D03*
X209172D03*
X213172Y28650D03*
X209172D03*
X213172Y38650D03*
X209172D03*
X213172Y41650D03*
X209172D03*
X213172Y89830D03*
X209172D03*
X213172Y92830D03*
X209172D03*
X213172Y95830D03*
X209172D03*
X330300Y105400D03*
X326300D03*
X213172Y116400D03*
X209172D03*
X359300Y-80780D03*
X355300D03*
X283150Y-57900D03*
X279150D03*
X213172Y44650D03*
X209172D03*
X326300Y76800D03*
X330300D03*
X326300Y80700D03*
X330300D03*
X213172Y34650D03*
X209172D03*
Y25650D03*
X213172D03*
Y120700D03*
X209172D03*
Y86830D03*
X213172D03*
X163450Y-81800D03*
X159450D03*
X27800Y243600D03*
X31800D03*
X163450Y-84800D03*
X159450D03*
X330300Y102400D03*
X326300D03*
X487600Y-24600D03*
X491600D03*
X487600Y-20300D03*
X491600D03*
X487600Y-27600D03*
X491600D03*
X487600Y-30600D03*
X491600D03*
X68348Y26140D03*
X72348D03*
X68348Y23140D03*
X72348D03*
X68348Y20140D03*
X72348D03*
Y12140D03*
X68348D03*
X213172Y51450D03*
X209172D03*
X138892Y41960D03*
X134892D03*
X138892Y35960D03*
X134892D03*
Y29960D03*
X138892D03*
X134892Y23960D03*
X138892D03*
X134892Y20960D03*
X138892D03*
X134892Y26960D03*
X138892D03*
X72348Y48960D03*
X68348D03*
X72348Y110557D03*
X68348D03*
Y125643D03*
X72348D03*
X68348Y122203D03*
X72348D03*
X68348Y119203D03*
X72348D03*
X134892Y124843D03*
X138892D03*
X134892Y127843D03*
X138892D03*
X134892Y121843D03*
X138892D03*
X134892Y118843D03*
X138892D03*
X72348Y146843D03*
X68348D03*
X138892Y133843D03*
X134892D03*
X138892Y139843D03*
X134892D03*
X138892Y130843D03*
X134892D03*
X138892Y136843D03*
X134892D03*
X138892Y38960D03*
X134892D03*
X138892Y32960D03*
X134892D03*
X72348Y9140D03*
X68348D03*
X72348Y16140D03*
X68348D03*
X72348Y107360D03*
X68348D03*
X72348Y114860D03*
X68348D03*
X232890Y240544D03*
X228890D03*
X232890Y237544D03*
X228890D03*
X232890Y199044D03*
X228890D03*
X491600Y-17300D03*
X487600D03*
X159450Y-78800D03*
X163450D03*
Y-75800D03*
X159450D03*
X209172Y77830D03*
X213172D03*
Y57450D03*
X209172D03*
Y113400D03*
X213172D03*
X209172Y100257D03*
X213172D03*
G54D14*
X525339Y-24600D03*
X515339D03*
X525339Y-14600D03*
X515339D03*
X355200Y235400D03*
Y225400D03*
Y205400D03*
Y215400D03*
X256900Y155300D03*
X246900D03*
X266900D03*
X276900D03*
X328300Y46734D03*
Y56734D03*
X216900Y155300D03*
X236900D03*
X226900D03*
X328300Y36734D03*
X206900Y155300D03*
X515339Y-4600D03*
X525339D03*
Y5400D03*
X515339D03*
X355200Y195400D03*
G54D50*
X69800Y245500D03*
Y240500D03*
X64800Y245500D03*
Y240500D03*
X59800Y245500D03*
Y240500D03*
X54800Y245500D03*
Y240500D03*
X49800Y245500D03*
Y240500D03*
G54D23*
X350400Y-48500D03*
Y-58500D03*
G54D60*
G01X102120Y-83530D02*
X105120D01*
G01X126200Y-6800D02*
X77300D01*
X60940Y-23160D01*
X52760D01*
G01X273736Y136994D02*
Y133836D01*
G01X309000Y-75690D02*
X311490D01*
X313350Y-77550D01*
Y-80040D01*
G01X191900Y-22100D02*
Y-37600D01*
G01D02*
Y-49700D01*
G01Y-37600D02*
X277300D01*
G01X24520Y145973D02*
X24715Y146168D01*
X39167D01*
X44952Y151953D01*
X47240D01*
G01Y-35120D02*
X35220D01*
X24520Y-24420D01*
Y-16657D01*
G01X47240Y-23160D02*
Y-29140D01*
G01X35540Y-21777D02*
X36923Y-23160D01*
X47240D01*
G01X350400Y-25588D02*
X351712Y-26900D01*
X465800D01*
X476500Y-37600D01*
X498200D01*
X501000Y-40400D01*
X525900D01*
X535000Y-31300D01*
Y10300D01*
X531200Y14100D01*
X521000D01*
X518000Y17100D01*
Y21900D01*
G01X52760Y-35120D02*
Y-74028D01*
X51088Y-75700D01*
G01X52760Y151953D02*
Y145973D01*
G54D33*
X280030Y-85560D03*
Y-80040D03*
X313350D03*
Y-85560D03*
X286950Y-80040D03*
Y-85560D03*
X159700Y-59990D03*
Y-65510D03*
X227110Y136234D03*
Y141754D03*
G54D15*
X94565Y246832D03*
X112675D03*
X94565Y238368D03*
X112675D03*
G54D42*
X261736Y136994D03*
Y140994D03*
X270736Y136994D03*
Y140994D03*
X267736Y136994D03*
Y140994D03*
X264736Y136994D03*
Y140994D03*
X256600D03*
Y136994D03*
X302600Y23758D03*
Y19758D03*
X277300Y136994D03*
Y140994D03*
X272300Y23758D03*
Y19758D03*
X245300Y23758D03*
Y19758D03*
X231600Y136994D03*
Y140994D03*
X234600Y136994D03*
Y140994D03*
X243600Y136994D03*
Y140994D03*
X240600Y136994D03*
Y140994D03*
X246600Y136994D03*
Y140994D03*
X237600D03*
Y136994D03*
X105120Y-41030D03*
Y-45030D03*
Y-79530D03*
Y-83530D03*
X111120Y-45030D03*
Y-41030D03*
X108120Y-45030D03*
Y-41030D03*
X96120Y-45030D03*
Y-41030D03*
X282500Y136994D03*
Y140994D03*
X219100D03*
Y136994D03*
X250600Y140994D03*
Y136994D03*
X99120Y-45030D03*
Y-41030D03*
X111120Y-83530D03*
Y-79530D03*
X108120Y-83530D03*
Y-79530D03*
X96120Y-83530D03*
Y-79530D03*
X99120Y-83530D03*
Y-79530D03*
X102120Y-41030D03*
Y-45030D03*
Y-79530D03*
Y-83530D03*
X85470Y82402D03*
Y78402D03*
X121154D03*
Y74402D03*
X85470Y70402D03*
Y74402D03*
Y90402D03*
Y86402D03*
X121154Y82402D03*
Y86402D03*
X85470Y180284D03*
Y176284D03*
X121154Y176360D03*
Y172360D03*
Y180360D03*
Y184360D03*
X85470Y188284D03*
Y184284D03*
Y168284D03*
Y172284D03*
X253600Y140994D03*
Y136994D03*
X222100Y140994D03*
Y136994D03*
X248300Y23758D03*
Y19758D03*
X273736Y140994D03*
Y136994D03*
G54D24*
X350400Y-68500D03*
G54D51*
X177680Y-61250D03*
X167020D03*
G54D61*
G01X437693Y-41400D02*
X443200D01*
G01X350400Y-36612D02*
Y-48500D01*
G54D34*
X523078Y97411D03*
Y63395D03*
G54D16*
X315190Y-45230D03*
X320190D03*
X325190D03*
X330190D03*
Y-66490D03*
X325190D03*
X320190D03*
X315190D03*
X436800Y-81630D03*
X431800D03*
X426800D03*
X421800D03*
Y-60370D03*
X426800D03*
X431800D03*
X436800D03*
G54D25*
X373106Y-58500D03*
X411294D03*
G54D43*
X422800Y-51200D03*
X426800D03*
X434100D03*
X438100D03*
X329190Y-73370D03*
X325190D03*
Y-77800D03*
X329190D03*
X521700Y34700D03*
X525700D03*
G54D52*
X187220Y-65300D03*
X196680D03*
G54D62*
G01X520046Y67805D02*
Y66427D01*
X523078Y63395D01*
G01X520046Y93001D02*
Y94379D01*
X523078Y97411D01*
G01X422800Y-51200D02*
Y-46600D01*
G01X325190Y-73370D02*
Y-66490D01*
G01Y-77800D02*
Y-73370D01*
G01X32800Y233000D02*
Y238700D01*
G01X47240Y139993D02*
X46380Y140853D01*
X35540D01*
G01X32800Y-72430D02*
Y-78130D01*
G01X26800Y-72430D02*
Y-62100D01*
G01Y-72430D02*
Y-78130D01*
G01Y238700D02*
Y233000D01*
G54D35*
X539535Y97411D03*
Y63395D03*
G54D44*
X282890Y204044D03*
X315823Y171544D03*
X260823D03*
X310823D03*
X305823D03*
X300823D03*
X295823D03*
X290823D03*
X285823D03*
X280823D03*
X275823D03*
X270823D03*
X265823D03*
G54D26*
X292357Y-67470D03*
X437693Y-41400D03*
G54D17*
X114250Y-16230D03*
Y-21230D03*
Y-26230D03*
Y-31230D03*
X92990D03*
Y-26230D03*
Y-21230D03*
Y-16230D03*
X114250Y-54730D03*
Y-59730D03*
Y-64730D03*
Y-69730D03*
X92990D03*
Y-64730D03*
Y-59730D03*
Y-54730D03*
G54D53*
X295400Y-86500D03*
Y-79100D03*
X306200D03*
Y-82800D03*
Y-86500D03*
X182900Y-78230D03*
Y-85630D03*
X172100D03*
Y-81930D03*
Y-78230D03*
G54D63*
G01X121100Y-84500D02*
X119900Y-85700D01*
G01D02*
X105800D01*
X105120Y-85020D01*
Y-83530D01*
G54D45*
X323756Y244044D03*
X252890Y214044D03*
Y219044D03*
X323756Y239044D03*
Y234044D03*
Y229044D03*
Y224044D03*
Y219044D03*
Y214044D03*
Y209044D03*
Y204044D03*
Y199044D03*
Y194044D03*
Y189044D03*
Y184044D03*
Y179044D03*
X252890D03*
Y184044D03*
Y189044D03*
Y194044D03*
Y199044D03*
Y204044D03*
Y209044D03*
Y224044D03*
Y229044D03*
Y234044D03*
Y239044D03*
Y244044D03*
G54D36*
X520046Y77450D03*
Y79419D03*
Y73513D03*
Y75482D03*
Y81387D03*
Y83356D03*
Y85324D03*
Y87293D03*
G54D27*
X302396Y-67470D03*
X427654Y-41400D03*
G54D54*
X492227Y75463D03*
Y77431D03*
Y81368D03*
Y83337D03*
X495573D03*
Y81368D03*
Y77431D03*
Y75463D03*
G54D18*
X475700Y-74900D03*
Y-63900D03*
G54D64*
G01X4200Y-100547D02*
X535381D01*
G03X545381Y-90547I0J10000D01*
G01Y251353D01*
G03X535381Y261353I-10000J0D01*
G01X4200D01*
G03X-5800Y251353I0J-10000D01*
G01Y-90547D01*
G03X4200Y-100547I10000J0D01*
G54D55*
X492227Y79400D03*
X495573D03*
G54D46*
X211172Y109820D03*
Y103910D03*
G54D37*
X525046Y69025D03*
Y91781D03*
G54D28*
X331334Y-84530D03*
X320310D03*
X454112Y-63000D03*
X443088D03*
X350400Y-25588D03*
Y-36612D03*
X51088Y-84680D03*
X62112D03*
X51088Y-75700D03*
X62112D03*
X144390Y-67192D03*
Y-56168D03*
X126430Y-17648D03*
Y-28672D03*
X135410D03*
Y-17648D03*
X126430Y-56168D03*
Y-67192D03*
X135410D03*
Y-56168D03*
G54D19*
X456800Y-80000D03*
X445800D03*
G54D65*
G01X213172Y54450D02*
X216350D01*
X219600Y57700D01*
Y61300D01*
X221944Y63644D01*
X227390D01*
G01X213172Y54450D02*
Y51450D01*
G54D56*
X84919Y8960D03*
Y13960D03*
Y18960D03*
Y23960D03*
Y28960D03*
Y33960D03*
Y38960D03*
Y43960D03*
Y48960D03*
Y53960D03*
X122321D03*
Y48960D03*
Y43960D03*
Y38960D03*
Y33960D03*
Y28960D03*
Y23960D03*
Y18960D03*
Y13960D03*
Y8960D03*
X84919Y106843D03*
Y111843D03*
Y116843D03*
Y121843D03*
Y126843D03*
Y131843D03*
Y136843D03*
Y141843D03*
Y146843D03*
Y151843D03*
X122321D03*
Y146843D03*
Y141843D03*
Y136843D03*
Y131843D03*
Y126843D03*
Y121843D03*
Y116843D03*
Y111843D03*
Y106843D03*
G54D38*
X520046Y67805D03*
Y70954D03*
Y89852D03*
Y93001D03*
G54D47*
X214322Y71970D03*
Y63310D03*
X208022Y71970D03*
Y63310D03*
G54D29*
X35540Y183373D03*
Y20743D03*
G54D66*
G01Y151483D02*
X35345Y151288D01*
X21411D01*
X13599Y159100D01*
X11499D01*
X9801Y157402D01*
Y96500D01*
X18048Y88253D01*
X25240D01*
G01Y82273D02*
X17827D01*
X6900Y93200D01*
Y160243D01*
X24520Y177863D01*
G01X479600Y-12500D02*
X454400Y12700D01*
X269800D01*
X258963Y23537D01*
Y37976D01*
G01X486449Y-13028D02*
X480128D01*
X479600Y-12500D01*
G01X503900Y-5900D02*
X484000Y14000D01*
X294605D01*
X287241Y21364D01*
Y30040D01*
X286522Y30759D01*
Y37976D01*
G01X52760Y173708D02*
X58792D01*
G01X84919Y136843D02*
X81857D01*
X80100Y138600D01*
X67400D01*
X63000Y143000D01*
Y175423D01*
X62350Y176073D01*
X61157D01*
X58792Y173708D01*
G01X85470Y172284D02*
X82116D01*
G01X491600Y-17300D02*
X492551Y-16349D01*
Y-13028D01*
G01X138892Y130843D02*
X142743D01*
G01X314600Y131337D02*
X298106D01*
X296724Y129955D01*
Y128517D01*
X296365Y128158D01*
Y122776D01*
G01X316525Y129412D02*
X313801D01*
X313126Y130087D01*
X298624D01*
X297974Y129437D01*
Y128517D01*
X298333Y128158D01*
Y122776D01*
G01X138892Y136843D02*
X142857D01*
G01X52760Y179688D02*
X58988D01*
G01X84919Y141843D02*
X82093D01*
X80100Y139850D01*
X67918D01*
X64250Y143518D01*
Y176673D01*
X63600Y177323D01*
X61353D01*
X58988Y179688D01*
G01X85470Y184284D02*
X81816D01*
G01X426800Y-51200D02*
X434100D01*
G01X426800Y-60370D02*
Y-51200D01*
G01X438100D02*
X441000D01*
X443000Y-53200D01*
G01X505800Y89918D02*
X508282D01*
X510907Y87293D01*
X520046D01*
G01X505800Y72857D02*
X508557D01*
X511182Y75482D01*
X520046D01*
G01X35540Y-11147D02*
X38248D01*
X44281Y-17180D01*
X47240D01*
G01X491600Y-27600D02*
X494900D01*
X503100Y-19400D01*
X520139D01*
X525339Y-24600D01*
G01X515339D02*
X501800D01*
X495800Y-30600D01*
X491600D01*
G01X35540Y183373D02*
X44945D01*
X47240Y185668D01*
G01X24520Y156603D02*
X24715Y156798D01*
X42290D01*
X47240Y161748D01*
G01X35540Y172743D02*
X42485Y179688D01*
X47240D01*
G01X24520Y167233D02*
X24715Y167428D01*
X40960D01*
X47240Y173708D01*
G01X24520Y-6027D02*
X24715Y-5832D01*
X37232D01*
X42600Y-11200D01*
X47240D01*
G01X35540Y-517D02*
X40243Y-5220D01*
X47240D01*
G01X24520Y4603D02*
X24715Y4798D01*
X43202D01*
X47240Y760D01*
G01X35540Y10113D02*
X43867D01*
X47240Y6740D01*
G01X24520Y15233D02*
X24715Y15428D01*
X44532D01*
X47240Y12720D01*
G01X35540Y20743D02*
X45197D01*
X47240Y18700D01*
G01X122321Y38960D02*
X134892D01*
G01X77100Y39000D02*
X84879D01*
X84919Y38960D01*
G01X77100Y39000D02*
X75245Y40855D01*
X63755D01*
X61400Y38500D01*
Y4600D01*
X60000Y3200D01*
X55200D01*
X52760Y760D01*
G01X85470Y74402D02*
X81902D01*
G01X84919Y43960D02*
X77200D01*
G01D02*
X75345Y42105D01*
X63237D01*
X60150Y39018D01*
Y5118D01*
X59482Y4450D01*
X55050D01*
X52760Y6740D01*
G01X85470Y86402D02*
X82102D01*
G01X276900Y155300D02*
X279800D01*
X290823Y166323D01*
Y171544D01*
G01X270736Y140994D02*
X273736D01*
G01X276900Y155300D02*
Y153600D01*
X270736Y147436D01*
Y140994D01*
G01X232890Y178800D02*
X236200D01*
X243456Y171544D01*
X260823D01*
G01X323756Y179044D02*
X340044D01*
X343100Y182100D01*
Y202400D01*
X346100Y205400D01*
X355200D01*
G01X47240Y145973D02*
Y145513D01*
X52760Y139993D01*
G01X246900Y155300D02*
X238400Y163800D01*
X229500D01*
X223400Y169900D01*
Y182850D01*
X225150Y184600D01*
X234900D01*
X245300Y174200D01*
X255800D01*
X260300Y178700D01*
X279300D01*
X280823Y177177D01*
Y171544D01*
G01X261736Y140994D02*
Y147364D01*
X259000Y150100D01*
X249000D01*
X246900Y152200D01*
Y155300D01*
G01X323756Y229044D02*
X348844D01*
X355200Y235400D01*
G01X252890Y199044D02*
X232890D01*
G01X264736Y140994D02*
Y147464D01*
X256900Y155300D01*
G01X275823Y171544D02*
Y167723D01*
X271700Y163600D01*
X265200D01*
X256900Y155300D01*
G01X323756Y224044D02*
X353844D01*
X355200Y225400D01*
G01X266900Y155300D02*
X275100Y163500D01*
X282300D01*
X285823Y167023D01*
Y171544D01*
G01X267736Y140994D02*
X266900Y141830D01*
Y155300D01*
G01X265823Y171544D02*
Y167823D01*
X263800Y165800D01*
X245300D01*
X235300Y175800D01*
X232890D01*
G01X312190Y79392D02*
X321632D01*
X324224Y76800D01*
X326300D01*
G01X495573Y81368D02*
X492227D01*
G01X516030Y81387D02*
X515200Y80557D01*
Y78379D01*
X516129Y77450D01*
X520046D01*
G01Y81387D02*
X516030D01*
G01X495573Y81368D02*
X497482D01*
X497861Y81747D01*
X515670D01*
X516030Y81387D01*
G01X492227Y81368D02*
X490131D01*
X489771Y81728D01*
X483672D01*
X468300Y97100D01*
X322300D01*
X319964Y99436D01*
X316975D01*
X316616Y99077D01*
X312190D01*
G01Y81360D02*
X321940D01*
X322600Y80700D01*
X326300D01*
G01X284554Y122776D02*
Y126554D01*
X286600Y128600D01*
G01X282500Y136994D02*
X288006D01*
G01X209172Y77830D02*
X208022Y76680D01*
Y71970D01*
G01X227390Y67581D02*
X209619D01*
X208022Y69178D01*
Y71970D01*
G01X213172Y57450D02*
X214322Y58600D01*
Y63310D01*
G01X227390Y65612D02*
X220112D01*
X217810Y63310D01*
X214322D01*
G01X213172Y25650D02*
Y28650D01*
G01D02*
Y31650D01*
G01X227390Y45927D02*
Y44551D01*
X217489Y34650D01*
X213172D01*
G01D02*
Y31650D01*
G01Y41650D02*
X215354D01*
X221600Y47896D01*
X227390D01*
G01X213172Y41650D02*
Y38650D01*
G01X209172Y34650D02*
Y35672D01*
X210100Y36600D01*
X212300D01*
X213172Y37472D01*
Y38650D01*
G01X326300Y105400D02*
Y102400D01*
G01X319900Y104500D02*
X321926D01*
X322826Y105400D01*
X326300D01*
G01X304900Y97000D02*
X307756D01*
X307864Y97108D01*
X312190D01*
G01X227390D02*
X223692D01*
X217400Y103400D01*
Y108200D01*
X215780Y109820D01*
X211172D01*
G01D02*
X213172Y111320D01*
Y113400D01*
G01X227390Y95140D02*
X223064D01*
X214294Y103910D01*
X211172D01*
G01D02*
Y102428D01*
X213172Y100428D01*
Y100257D01*
G01X495573Y83337D02*
X497463D01*
X497803Y82997D01*
X515670D01*
X516029Y83356D01*
X520046D01*
G01X495573Y83337D02*
X492227D01*
G01X520046Y79419D02*
X524019D01*
X525100Y80500D01*
Y82219D01*
X523963Y83356D01*
X520046D01*
G01X492227Y83337D02*
X490318D01*
X489959Y82978D01*
X484222D01*
X468850Y98350D01*
X323150D01*
X320814Y100686D01*
X316975D01*
X316616Y101045D01*
X312190D01*
G01X27800Y243600D02*
Y246500D01*
G01X253058Y122776D02*
Y127216D01*
X253000Y127274D01*
Y129100D01*
G01X199800Y192300D02*
X197874D01*
X192074Y198100D01*
X60528D01*
X55425Y203203D01*
Y226475D01*
X52300Y229600D01*
Y232300D01*
G01X256600Y136994D02*
Y135500D01*
X253000Y131900D01*
Y129100D01*
G01X237600Y136994D02*
Y134100D01*
X239278Y132422D01*
Y122776D01*
G01X209172Y120700D02*
Y119328D01*
X209900Y118600D01*
X212400D01*
X213172Y117828D01*
Y116400D01*
G01D02*
X215400D01*
X219500Y112300D01*
Y104609D01*
X223064Y101045D01*
X227390D01*
G01X249000Y45000D02*
X249121Y44879D01*
Y37976D01*
G01X267736Y136994D02*
Y134036D01*
G01X251089Y37976D02*
Y32515D01*
X251000Y32426D01*
Y30600D01*
G01X270736Y136994D02*
Y133336D01*
X268000Y130600D01*
X265500D01*
G01X219100Y140994D02*
X214594D01*
X211500Y137900D01*
G01X224800Y131100D02*
X218300D01*
X211500Y137900D01*
G01X297900Y48900D02*
X296365Y47365D01*
Y37976D01*
G01X297900Y104982D02*
X312190D01*
G01X243215Y122776D02*
Y117015D01*
X243200Y117000D01*
G01X243215Y131100D02*
Y122776D01*
G01X240600Y136994D02*
X243600D01*
G01D02*
X246600D01*
G01X250600Y140994D02*
X249494D01*
X248600Y140100D01*
Y137644D01*
X247950Y136994D01*
X246600D01*
G01X243215Y131100D02*
Y136609D01*
X243600Y136994D01*
G01X297900Y104982D02*
X287682D01*
X286900Y104200D01*
X244864D01*
X244082Y104982D01*
G01X213172Y92830D02*
Y89830D01*
G01D02*
Y86830D01*
G01D02*
X214705Y85297D01*
X227390D01*
G01X213172Y95830D02*
X215070D01*
X215800Y95100D01*
Y91800D01*
X220334Y87266D01*
X227390D01*
G01X234300Y83300D02*
X227419D01*
X227390Y83329D01*
G01X219100Y136994D02*
X222100D01*
G01X300200Y44100D02*
Y38078D01*
X300302Y37976D01*
G01X300200Y108919D02*
X312190D01*
G01X237310Y122776D02*
Y114190D01*
X242581Y108919D01*
X300200D01*
G01X231600Y136994D02*
X234600D01*
G01D02*
Y134300D01*
X237310Y131590D01*
Y122776D01*
G01X231600Y136994D02*
X227870D01*
X227110Y136234D01*
G01X222100Y136994D02*
X226350D01*
X227110Y136234D01*
G01X213172Y44650D02*
X215250D01*
X220464Y49864D01*
X227390D01*
G01X138892Y38960D02*
X144440D01*
X144900Y38500D01*
G01X256995Y122776D02*
Y131594D01*
X259800Y134399D01*
Y146401D01*
X257801Y148400D01*
X240701D01*
X236900Y152201D01*
Y155300D01*
G01X228890Y199044D02*
X220500Y190654D01*
Y165800D01*
X226900Y159400D01*
Y155300D01*
G01D02*
Y152100D01*
X229300Y149700D01*
X236200D01*
X239100Y146800D01*
X256000D01*
X258500Y144300D01*
Y134900D01*
X255026Y131426D01*
Y122776D01*
G01X261400Y129200D02*
X262900Y127700D01*
Y122776D01*
G01X205600Y197700D02*
X197874D01*
X194974Y200600D01*
X61564D01*
X57925Y204239D01*
Y227725D01*
X59800Y229600D01*
Y240500D01*
G01X94565Y246832D02*
X89069D01*
X83901Y252000D01*
X50000D01*
X46200Y248200D01*
Y241504D01*
X47204Y240500D01*
X49800D01*
G01X94565Y246832D02*
X112675D01*
G01X199800Y189600D02*
X197874D01*
X190624Y196850D01*
X60010D01*
X54175Y202685D01*
Y225225D01*
X49800Y229600D01*
Y240500D01*
G01X197900Y49500D02*
X212300D01*
X213172Y50372D01*
Y51450D01*
G01X312190Y114825D02*
X320024D01*
X322024Y116825D01*
X331375D01*
X335600Y112600D01*
Y107900D01*
X333100Y105400D01*
X330300D01*
G01X302700Y114800D02*
X304526D01*
X304551Y114825D01*
X312190D01*
G01X199800Y195000D02*
X197874D01*
X193524Y199350D01*
X61046D01*
X56675Y203721D01*
Y227725D01*
X54800Y229600D01*
Y240500D01*
G01X312190Y112856D02*
X306982D01*
X306926Y112800D01*
X305100D01*
G01X64800Y240500D02*
Y231800D01*
X59175Y226175D01*
Y204757D01*
X62082Y201850D01*
X196424D01*
X197874Y200400D01*
X199800D01*
G01X69800Y240500D02*
Y234000D01*
X60425Y224625D01*
Y205275D01*
X62600Y203100D01*
X199800D01*
G01X304100Y103000D02*
X305926D01*
X305940Y103014D01*
X312190D01*
G01X138892Y32960D02*
X144160D01*
X144900Y33700D01*
G01X306700Y28600D02*
X304239Y31061D01*
Y37976D01*
G01X123400Y-51400D02*
X122600Y-50600D01*
X100200D01*
X96120Y-46520D01*
Y-45030D01*
G01X312190Y95140D02*
X317640D01*
G01X123300Y-48600D02*
X122700Y-49200D01*
X101600D01*
X99120Y-46720D01*
Y-45030D01*
G01X324000Y-19900D02*
X321800Y-17700D01*
X191000D01*
X154100Y-54600D01*
Y-83400D01*
X152000Y-85500D01*
X127900D01*
X125300Y-88100D01*
X98300D01*
X96120Y-85920D01*
Y-83530D01*
G01X312190Y51833D02*
X323201D01*
X328300Y46734D01*
G01X325925Y-17975D02*
X324150Y-16200D01*
X189500D01*
X152100Y-53600D01*
Y-82700D01*
X151000Y-83800D01*
X127300D01*
X124300Y-86800D01*
X100300D01*
X99120Y-85620D01*
Y-83530D01*
G01X312190Y53801D02*
X323401D01*
X326334Y56734D01*
X328300D01*
G01X295400Y-86500D02*
X287890D01*
X286950Y-85560D01*
G01X31800Y243600D02*
Y246500D01*
G01X295823Y171544D02*
Y162023D01*
X279400Y145600D01*
G01Y106700D02*
X279000Y107100D01*
X237600D01*
X236400Y108300D01*
X232949D01*
X231600Y106951D01*
X227390D01*
G01X491600Y-24600D02*
X495200D01*
X510300Y-9500D01*
X520439D01*
X525339Y-4600D01*
G01X515339D02*
X511000D01*
X495300Y-20300D01*
X491600D01*
G01X525339Y5400D02*
X520339Y400D01*
X509232D01*
X494382Y15250D01*
X295123D01*
X288491Y21882D01*
Y37976D01*
G01X290459D02*
Y30759D01*
X289741Y30041D01*
Y22400D01*
X295641Y16500D01*
X504239D01*
X515339Y5400D01*
G01X102120Y-41030D02*
X103720D01*
G01X105120D02*
X103720D01*
G01X114250Y-21230D02*
X110220D01*
X103720Y-27730D01*
Y-41030D01*
G01X99120D02*
Y-18384D01*
X96966Y-16230D01*
X92990D01*
G01X114250Y-26230D02*
X110274D01*
X109420Y-27084D01*
Y-27130D01*
X108120Y-28430D01*
Y-41030D01*
G01D02*
X111120D01*
G01X96120D02*
X92990Y-37900D01*
Y-31230D01*
G01X247152Y37976D02*
Y43248D01*
X246300Y44100D01*
Y46400D01*
X247600Y47700D01*
X249900D01*
X252950Y44650D01*
G01X264736Y136994D02*
Y134136D01*
X264100Y133500D01*
G01X105120Y-79530D02*
Y-64330D01*
X109720Y-59730D01*
X114250D01*
G01X102120Y-79530D02*
X105120D01*
G01X253058Y37976D02*
Y33650D01*
X253500Y33208D01*
Y32400D01*
G01X261736Y136994D02*
Y133036D01*
X261200Y132500D01*
G01X248300Y23758D02*
X250358D01*
X253500Y26900D01*
Y32400D01*
G01X114250Y-64730D02*
X110120D01*
X108120Y-66730D01*
Y-79530D01*
G01X111120D02*
X108120D01*
G01X99120D02*
Y-65680D01*
X99600Y-65200D01*
Y-56610D01*
X97720Y-54730D01*
X92990D01*
G01X96120Y-79530D02*
Y-72860D01*
X92990Y-69730D01*
G01X122321Y28960D02*
X125892D01*
X129892Y32960D01*
X134892D01*
G01X68348Y12140D02*
Y13148D01*
X69300Y14100D01*
X71800D01*
X72348Y14648D01*
Y16140D01*
G01D02*
X75820D01*
X78000Y13960D01*
X84919D01*
G01X72348Y9140D02*
Y12140D01*
G01Y9140D02*
X72528Y8960D01*
X84919D01*
G01Y18960D02*
X88540D01*
X90900Y16600D01*
Y11400D01*
X88460Y8960D01*
X84919D01*
G01X72348Y23140D02*
Y20140D01*
G01Y23140D02*
Y26140D01*
G01X84919Y28960D02*
X75168D01*
X72348Y26140D01*
G01X68348Y16140D02*
Y17648D01*
X68900Y18200D01*
X71800D01*
X72348Y18748D01*
Y20140D01*
G01X113305Y71780D02*
X116200D01*
G01D02*
X118532D01*
X121154Y74402D01*
G01X77100Y23960D02*
X84919D01*
G01X116200Y71780D02*
Y67500D01*
X113500Y64800D01*
X84600D01*
G01X85470Y168284D02*
X92557D01*
X93935Y169662D01*
G01X84919Y106843D02*
X72865D01*
X72348Y107360D01*
G01D02*
Y110557D01*
G01X84919Y116843D02*
X88649D01*
X90892Y114600D01*
Y108843D01*
X88892Y106843D01*
X84919D01*
G01X122321Y136843D02*
X134892D01*
G01X93935Y174702D02*
Y178386D01*
G01D02*
X90114D01*
X88216Y180284D01*
X85470D01*
G01X93935Y178386D02*
Y181866D01*
G01X72348Y114860D02*
X76540D01*
X79557Y111843D01*
X84919D01*
G01X72348Y114860D02*
Y113348D01*
X71656Y112656D01*
X69256D01*
X68348Y111748D01*
Y110557D01*
G01X52760Y167728D02*
X56972D01*
G01X68348Y146843D02*
Y150352D01*
G01Y125643D02*
X64557D01*
G01X68348Y122203D02*
X64503D01*
G01X68348Y119203D02*
X64503D01*
G01X68348Y107360D02*
X64660D01*
G01X68348Y48960D02*
X64140D01*
G01X84919Y33960D02*
X77940D01*
G01X68348Y9140D02*
X64960D01*
G01X26800Y233000D02*
Y227200D01*
X23700Y224100D01*
G01X52760Y-5220D02*
X54920D01*
X56300Y-6600D01*
G01X27852Y10120D02*
X26952D01*
G01X113305Y186906D02*
X118608D01*
X121154Y184360D01*
G01X93935Y186906D02*
X92557Y188284D01*
X85470D01*
G01X84919Y146843D02*
X72348D01*
G01X113305Y181866D02*
Y174702D01*
G01X72348Y119203D02*
Y122203D01*
G01Y125643D02*
Y122203D01*
G01X84919Y126843D02*
X73548D01*
X72348Y125643D01*
G01X68348Y114860D02*
Y116448D01*
X69000Y117100D01*
X71698D01*
X72348Y117750D01*
Y119203D01*
G01X85470Y70402D02*
X92557D01*
X93935Y71780D01*
G01X122321Y126843D02*
X126592D01*
X130592Y130843D01*
X134892D01*
G01X122321Y141843D02*
X127892D01*
X129892Y139843D01*
X134892D01*
G01X85470Y90402D02*
X92557D01*
X93935Y89024D01*
G01X245184Y122776D02*
Y133284D01*
X245700Y133800D01*
G01X122321Y146843D02*
X193857D01*
X204900Y135800D01*
G01X93935Y83984D02*
Y80600D01*
G01D02*
Y76820D01*
G01X85470Y82402D02*
X88798D01*
X90600Y80600D01*
X93935D01*
G01X122321Y33960D02*
X127192D01*
X129192Y35960D01*
X134892D01*
G01X113305Y83984D02*
Y76820D01*
G01X122321Y131843D02*
X127392D01*
X129392Y133843D01*
X134892D01*
G01X84919Y48960D02*
X72348D01*
G01X84919Y121843D02*
X77743D01*
G01X113305Y169662D02*
X116600D01*
G01D02*
Y171710D01*
X117250Y172360D01*
X121154D01*
G01X116600Y169662D02*
Y165900D01*
X112600Y161900D01*
X80300D01*
G01X113305Y89024D02*
X118532D01*
X121154Y86402D01*
G01X122321Y43960D02*
X127092D01*
X129092Y41960D01*
X134892D01*
G01X235341Y37976D02*
Y31541D01*
X221000Y17200D01*
X189100D01*
X157340Y48960D01*
X122321D01*
G54D57*
X93935Y71780D03*
Y76820D03*
X113305D03*
Y71780D03*
X93935Y83984D03*
Y89024D03*
X113305D03*
Y83984D03*
X93935Y169662D03*
Y174702D03*
X113305D03*
Y169662D03*
X93935Y181866D03*
Y186906D03*
X113305D03*
Y181866D03*
G54D48*
X235341Y122776D03*
X237310D03*
X239278D03*
X241247D03*
X243215D03*
X245184D03*
X247152D03*
X249121D03*
X251089D03*
X253058D03*
X255026D03*
X256995D03*
X258963D03*
X260932D03*
X262900D03*
X264869D03*
X266837D03*
X268806D03*
X270774D03*
X272743D03*
X274711D03*
X276680D03*
X278648D03*
X280617D03*
X282585D03*
X284554D03*
X286522D03*
X288491D03*
X290459D03*
X292428D03*
X294396D03*
X296365D03*
X298333D03*
X300302D03*
X302270D03*
X304239D03*
Y37976D03*
X302270D03*
X300302D03*
X298333D03*
X296365D03*
X294396D03*
X292428D03*
X290459D03*
X288491D03*
X286522D03*
X284554D03*
X282585D03*
X280617D03*
X278648D03*
X276680D03*
X274711D03*
X272743D03*
X270774D03*
X268806D03*
X266837D03*
X264869D03*
X262900D03*
X260932D03*
X258963D03*
X256995D03*
X255026D03*
X253058D03*
X251089D03*
X249121D03*
X247152D03*
X245184D03*
X243215D03*
X241247D03*
X239278D03*
X237310D03*
X235341D03*
G54D39*
X507063Y-33417D03*
G54D49*
X312190Y114825D03*
Y112856D03*
Y110888D03*
Y108919D03*
Y106951D03*
Y104982D03*
Y103014D03*
Y101045D03*
Y99077D03*
Y97108D03*
Y95140D03*
Y93171D03*
Y91203D03*
Y89234D03*
Y87266D03*
Y85297D03*
Y83329D03*
Y81360D03*
Y79392D03*
Y77423D03*
Y75455D03*
Y73486D03*
Y71518D03*
Y69549D03*
Y67581D03*
Y65612D03*
Y63644D03*
Y61675D03*
Y59707D03*
Y57738D03*
Y55770D03*
Y53801D03*
Y51833D03*
Y49864D03*
Y47896D03*
Y45927D03*
X227390D03*
Y47896D03*
Y49864D03*
Y51833D03*
Y53801D03*
Y55770D03*
Y57738D03*
Y59707D03*
Y61675D03*
Y63644D03*
Y65612D03*
Y67581D03*
Y69549D03*
Y71518D03*
Y73486D03*
Y75455D03*
Y77423D03*
Y79392D03*
Y81360D03*
Y83329D03*
Y85297D03*
Y87266D03*
Y89234D03*
Y91203D03*
Y93171D03*
Y95140D03*
Y97108D03*
Y99077D03*
Y101045D03*
Y103014D03*
Y104982D03*
Y106951D03*
Y108919D03*
Y110888D03*
Y112856D03*
Y114825D03*
G54D58*
X288300Y-67470D03*
X418100Y-86100D03*
G54D59*
G01X520046Y70954D02*
X522754D01*
X527700Y75900D01*
G01D02*
Y85000D01*
X522848Y89852D01*
X520046D01*
M02*
