G04 ================== begin FILE IDENTIFICATION RECORD ==================*
G04 Layout Name:  E:/0_Zeek_ST/Layout_V2/Zeekr_ST_0721A.brd*
G04 Film Name:    L2_SS.art*
G04 File Format:  Gerber RS274X*
G04 File Origin:  Cadence Allegro 16.6-2015-S108*
G04 Origin Date:  Fri Jul 21 04:23:00 2023*
G04 *
G04 Layer:  PACKAGE GEOMETRY/SHORT_LAYER_BOTTOM*
G04 Layer:  VIA CLASS/BOTTOM*
G04 Layer:  PIN/BOTTOM*
G04 Layer:  ETCH/BOTTOM*
G04 Layer:  DRAWING FORMAT/FILM_TITLE_BLOCK*
G04 Layer:  BOARD GEOMETRY/OUTLINE*
G04 *
G04 Offset:    (0.00 0.00)*
G04 Mirror:    No*
G04 Mode:      Positive*
G04 Rotation:  0*
G04 FullContactRelief:  No*
G04 UndefLineWidth:     7.00*
G04 ================== end FILE IDENTIFICATION RECORD ====================*
%FSLAX25Y25*MOIN*%
%IR0*IPPOS*OFA0.00000B0.00000*MIA0B0*SFA1.00000B1.00000*%
%ADD10C,.01*%
%ADD12C,.02*%
%ADD25C,.024*%
%ADD14C,.065*%
%ADD24C,.0354*%
%ADD17C,.0591*%
%ADD15R,.065X.065*%
%ADD23O,.055X.15299*%
%ADD13R,.066X.066*%
%ADD11R,.048X.048*%
%ADD22O,.15299X.055*%
%ADD21C,.02559*%
%ADD16R,.0591X.0591*%
%ADD18C,.1969*%
%ADD20O,.07087X.03937*%
%ADD19O,.08268X.03937*%
%ADD26C,.03*%
%ADD27C,.007*%
%ADD28C,.0065*%
%ADD34C,.04662*%
%ADD32C,.07904*%
%ADD29C,.15004*%
%ADD31R,.08202X.08204*%
%ADD30R,.08204X.08204*%
%ADD33R,.07904X.07904*%
G75*
%LPD*%
G75*
G36*
G01X6500Y-98700D02*
X-3100Y-89100D01*
Y-56000D01*
X-3400Y-55700D01*
Y220500D01*
X-3300Y220600D01*
Y251600D01*
X4800Y259700D01*
X86000D01*
X88000Y257700D01*
Y8800D01*
X87800Y8600D01*
Y-96600D01*
X85700Y-98700D01*
X6500D01*
G37*
G36*
G01X480994Y-98547D02*
G02X480640Y-97693I-1J500D01*
G01X484902Y-93432D01*
Y-89868D01*
X481832Y-86798D01*
X469768D01*
X467268Y-89298D01*
X220655D01*
G02X220164Y-88706I0J500D01*
G03X220202Y-88300I-2150J406D01*
G01Y-74888D01*
X193457Y-48143D01*
G03X190343Y-51257I-1557J-1557D01*
G01X215798Y-76712D01*
Y-88300D01*
G03X215836Y-88706I2188J0D01*
G02X215345Y-89298I-491J-92D01*
G01X143602D01*
Y-79400D01*
G03X140198I-1702J0D01*
G01Y-89298D01*
X119200D01*
Y190300D01*
X119100Y190400D01*
Y257800D01*
X120653Y259353D01*
X535381D01*
G02X543381Y251353I0J-8000D01*
G01Y-90547D01*
G02X535381Y-98547I-8000J0D01*
G01X480994D01*
G37*
G36*
G01X159869Y-90100D02*
X216732D01*
G03X219268I1268J1800D01*
G01X467600D01*
X470100Y-87600D01*
X481500D01*
X484100Y-90200D01*
Y-93100D01*
X479200Y-98000D01*
X119200D01*
Y-90100D01*
X159031D01*
X159060Y-90107D01*
G03X159840I390J1657D01*
G01X159869Y-90100D01*
G37*
%LPC*%
G75*
G36*
G01X78789Y39211D02*
G02X76513Y40598I-1689J-211D01*
G01X76565Y40617D01*
X77373Y41425D01*
X76252Y42546D01*
X76233Y42559D01*
G02X78871Y43637I967J1401D01*
G01X78846Y43507D01*
X79117Y43236D01*
X79524Y43643D01*
Y49057D01*
X76524Y52057D01*
Y79188D01*
X79389Y82054D01*
X80827D01*
X80876Y82102D01*
Y85222D01*
G02X82928Y84914I1226J1180D01*
G01Y81252D01*
X82079Y80402D01*
X82928Y79552D01*
Y75760D01*
G02X80684Y73213I-1026J-1358D01*
G03X79826Y72864I-358J-349D01*
G01Y53425D01*
X82826Y50425D01*
Y42275D01*
X80325Y39774D01*
X79285D01*
G03X78789Y39211I0J-500D01*
G37*
G36*
G01X50502Y-31272D02*
X38666Y-43107D01*
X38785Y-43278D01*
G02X36089Y-40582I-8755J-6059D01*
G01X36260Y-40701D01*
X47098Y-29862D01*
Y28038D01*
X36260Y38877D01*
X36089Y38758D01*
G02X38785Y41454I-6059J8755D01*
G01X38666Y41283D01*
X50502Y29448D01*
Y-31272D01*
G37*
G36*
G01X20043Y-35822D02*
X32255Y-23610D01*
X32176Y-23449D01*
G02X33868Y-25141I3364J1672D01*
G01X33707Y-25062D01*
X20891Y-37878D01*
X16714Y-37867D01*
Y-40034D01*
X10310D01*
Y-33630D01*
X16714D01*
Y-35814D01*
X20043Y-35822D01*
G37*
G36*
G01X22687Y-19942D02*
X16714Y-25915D01*
Y-31054D01*
X10310D01*
Y-24650D01*
X15075D01*
X21235Y-18490D01*
X21156Y-18329D01*
G02X22848Y-20021I3364J1672D01*
G01X22687Y-19942D01*
G37*
G36*
G01X16714Y-8142D02*
Y-13094D01*
X10310D01*
Y-6690D01*
X15262D01*
X16952Y-5000D01*
X20901D01*
X20959Y-4830D01*
G02Y-7224I3561J-1197D01*
G01X20901Y-7054D01*
X17802D01*
X16714Y-8142D01*
G37*
G36*
G01X32048Y-1902D02*
X31985Y-1745D01*
X16714Y-1732D01*
Y-4114D01*
X10310D01*
Y2290D01*
X16714D01*
Y321D01*
X31870Y308D01*
X31921Y491D01*
G02X32048Y-1902I3619J-1008D01*
G37*
G36*
G01X17402Y5630D02*
X20901D01*
X20959Y5800D01*
G02Y3406I3561J-1197D01*
G01X20901Y3576D01*
X16552D01*
X15262Y4866D01*
X10310D01*
Y11270D01*
X16714D01*
Y6318D01*
X17402Y5630D01*
G37*
G36*
G01X21067Y10944D02*
X31871D01*
X31922Y11127D01*
G02X31987Y8892I3618J-1013D01*
G01X20217D01*
X15262Y13846D01*
X10310D01*
Y20250D01*
X16714D01*
Y15298D01*
X21067Y10944D01*
G37*
G36*
G01X16714Y24491D02*
X22687Y18518D01*
X22848Y18597D01*
G02X21156Y16905I1672J-3364D01*
G01X21235Y17066D01*
X15475Y22826D01*
X10310D01*
Y29230D01*
X16714D01*
Y24491D01*
G37*
G36*
G01X31784Y23048D02*
X20867Y33964D01*
X16714Y33974D01*
Y31806D01*
X10310D01*
Y38210D01*
X16714D01*
Y36027D01*
X21719Y36016D01*
X33235Y24500D01*
X39296D01*
Y16986D01*
X31784D01*
Y23048D01*
G37*
G36*
G01X87026Y32435D02*
X78789Y24198D01*
X78798Y24083D01*
G02X77223Y25658I-1698J-123D01*
G01X77338Y25649D01*
X84974Y33285D01*
Y62602D01*
G03X84502Y63101I-500J0D01*
G02X86298Y64677I98J1699D01*
G01X86289Y64562D01*
X87026Y63825D01*
Y32435D01*
G37*
G36*
G01X36089Y122048D02*
X36260Y121929D01*
X45298Y130968D01*
Y192468D01*
X36260Y201507D01*
X36089Y201388D01*
G02X38785Y204084I-6059J8755D01*
G01X38666Y203913D01*
X48702Y193878D01*
Y129558D01*
X38665Y119522D01*
G02X36089Y122048I-8635J-6229D01*
G37*
G36*
G01X80062Y160211D02*
X78770Y158918D01*
Y123201D01*
G02X76716I-1027J-1358D01*
G01Y159768D01*
X78611Y161662D01*
X78602Y161777D01*
G02X80177Y160202I1698J123D01*
G01X80062Y160211D01*
G37*
G36*
G01X20060Y126824D02*
X32259Y139023D01*
G02X33868Y137489I3281J1830D01*
G01X33707Y137568D01*
X20910Y124772D01*
X16714D01*
Y122596D01*
X10310D01*
Y129000D01*
X16714D01*
Y126824D01*
X20060D01*
G37*
G36*
G01X22687Y142688D02*
X16714Y136715D01*
Y131576D01*
X10310D01*
Y137980D01*
X15075D01*
X21235Y144140D01*
X21156Y144301D01*
G02X22848Y142609I3364J1672D01*
G01X22687Y142688D01*
G37*
G36*
G01X21813Y150262D02*
X16714Y145162D01*
Y140556D01*
X10310D01*
Y146960D01*
X15608D01*
X20963Y152314D01*
X31871D01*
X31922Y152497D01*
G02X31987Y150262I3618J-1013D01*
G01X21813D01*
G37*
G36*
G01X17802Y155576D02*
X16714Y154488D01*
Y149536D01*
X10310D01*
Y155940D01*
X15262D01*
X16952Y157630D01*
X20901D01*
X20959Y157800D01*
G02Y155406I3561J-1197D01*
G01X20901Y155576D01*
X17802D01*
G37*
G36*
G01X16714Y162944D02*
X31871D01*
X31922Y163127D01*
G02X31987Y160892I3618J-1013D01*
G01X16714D01*
Y158516D01*
X10310D01*
Y164920D01*
X16714D01*
Y162944D01*
G37*
G36*
G01Y173900D02*
Y168948D01*
X17402Y168260D01*
X20901D01*
X20959Y168430D01*
G02Y166036I3561J-1197D01*
G01X20901Y166206D01*
X16552D01*
X15262Y167496D01*
X10310D01*
Y173900D01*
X16714D01*
G37*
G36*
G01Y182880D02*
Y177928D01*
X21067Y173574D01*
X31871D01*
X31922Y173757D01*
G02X31987Y171522I3618J-1013D01*
G01X20217D01*
X15262Y176476D01*
X10310D01*
Y182880D01*
X16714D01*
G37*
G36*
G01X21091Y179399D02*
X21162Y179556D01*
X15262Y185456D01*
X10310D01*
Y191860D01*
X16714D01*
Y186908D01*
X22553Y181069D01*
X22717Y181159D01*
G02X21091Y179399I1803J-3296D01*
G37*
G36*
G01X31784Y185678D02*
X20850Y196612D01*
X16714D01*
Y194436D01*
X10310D01*
Y200840D01*
X16714D01*
Y198664D01*
X21700D01*
X33235Y187130D01*
X39296D01*
Y179616D01*
X31784D01*
Y185678D01*
G37*
G36*
G01X16714Y-17938D02*
Y-22074D01*
X10310D01*
Y-15670D01*
X16078D01*
X21433Y-10316D01*
X31871D01*
X31922Y-10133D01*
G02X31987Y-12368I3618J-1013D01*
G01X22283D01*
X16714Y-17938D01*
G37*
G36*
G01X82842Y179134D02*
X81993Y178284D01*
X82842Y177434D01*
Y173823D01*
G02X80790Y173350I-726J-1539D01*
G01Y176584D01*
X80741Y176632D01*
X72984D01*
X71525Y175174D01*
X60325D01*
X60038Y174887D01*
X60165Y174714D01*
G02X57766Y175066I-1373J-1006D01*
G01Y175517D01*
X59073Y176825D01*
X57961Y177937D01*
Y178330D01*
G02X60599Y179138I1027J1358D01*
G03X61072Y178476I473J-162D01*
G01X70157D01*
X71616Y179936D01*
X80741D01*
X80790Y179984D01*
Y182926D01*
G02X82842I1026J1358D01*
G01Y179134D01*
G37*
G36*
G01X50942Y233326D02*
G02Y231274I1358J-1026D01*
G01X41575D01*
X28038Y244811D01*
X27923Y244802D01*
G02X29498Y246377I-123J1698D01*
G01X29489Y246262D01*
X29865Y245886D01*
X30130Y246150D01*
X30113Y246273D01*
G02X31923Y248198I1687J227D01*
G01X32038Y248189D01*
X35475Y251626D01*
X52625D01*
X55826Y248425D01*
Y247858D01*
G02X56893Y246995I-1025J-2359D01*
G03X57707I407J290D01*
G02X61893I2093J-1495D01*
G03X62707I407J290D01*
G02X66893I2093J-1495D01*
G03X67707I407J290D01*
G02X71295Y243407I2093J-1495D01*
G03Y242593I290J-407D01*
G02X67707Y239005I-1495J-2093D01*
G03X66893I-407J-290D01*
G02X62707I-2093J1495D01*
G03X61893I-407J-290D01*
G02X57707I-2093J1495D01*
G03X56893I-407J-290D01*
G02X52707I-2093J1495D01*
G03X51893I-407J-290D01*
G02X48305Y242593I-2093J1495D01*
G03Y243407I-290J407D01*
G02X51893Y246995I1495J2093D01*
G03X52707I407J290D01*
G02X53130Y247456I2093J-1495D01*
G03X53159Y248190I-325J380D01*
G01X51775Y249574D01*
X36325D01*
X33489Y246738D01*
X33498Y246623D01*
G02X32059Y244818I-1698J-123D01*
G03X31782Y243970I76J-494D01*
G01X42425Y233326D01*
X50942D01*
G37*
G36*
G01X160653Y-72003D02*
X157661Y-74996D01*
X135410D01*
G02Y-71592I0J1702D01*
G01X156251D01*
X158247Y-69597D01*
G02X160653Y-72003I1203J-1203D01*
G37*
G36*
G01X382897Y-61397D02*
X392795Y-51498D01*
X443000D01*
G02Y-54902I0J-1702D01*
G01X394205D01*
X385303Y-63803D01*
G02X382897Y-61397I-1203J1203D01*
G37*
G36*
G01X334797Y-32797D02*
X347611Y-19982D01*
X373000D01*
G02Y-23386I0J-1702D01*
G01X349021D01*
X337203Y-35203D01*
G02X334797Y-32797I-1203J1203D01*
G37*
G36*
G01X228890Y180588D02*
X208505D01*
X204297Y184797D01*
G02X206703Y187203I1203J1203D01*
G01X209915Y183992D01*
X228890D01*
G02Y180588I0J-1702D01*
G37*
G36*
G01X326202Y107093D02*
Y85224D01*
X323103Y82126D01*
G02X320697Y84532I-1203J1203D01*
G01X322798Y86634D01*
Y105683D01*
X318797Y109685D01*
G02X321203Y112091I1203J1203D01*
G01X326202Y107093D01*
G37*
G36*
G01X138502Y42195D02*
Y18405D01*
X144603Y12303D01*
G02X142197Y9897I-1203J-1203D01*
G01X135098Y16995D01*
Y43605D01*
X139498Y48005D01*
Y113600D01*
G02X142902I1702J0D01*
G01Y46595D01*
X138502Y42195D01*
G37*
G36*
G01X498804Y-56820D02*
G02X491700I-3552J-1D01*
G01Y-47022D01*
G02X498804I3552J1D01*
G01Y-56820D01*
G37*
G36*
G01X356226Y178975D02*
X337625Y160374D01*
X311875D01*
X262575Y209674D01*
X242475D01*
X236374Y215775D01*
Y232686D01*
G02X238426I1026J1358D01*
G01Y216625D01*
X243325Y211726D01*
X263425D01*
X312725Y162426D01*
X336775D01*
X354174Y179825D01*
Y191298D01*
X351098D01*
Y199502D01*
X359302D01*
Y191298D01*
X356226D01*
Y178975D01*
G37*
G36*
G01X142981Y132532D02*
X144348Y133900D01*
X143095Y135154D01*
X142980Y135145D01*
G02X144555Y136720I-123J1698D01*
G01X144546Y136605D01*
X145525Y135626D01*
X168832D01*
X178810Y145605D01*
Y194362D01*
X193575Y209126D01*
X261893D01*
X317926Y153093D01*
Y130378D01*
G02X314823Y129389I-1401J-966D01*
G03X314577Y129635I-250J-4D01*
G02X313574Y132695I23J1702D01*
G01Y152775D01*
X260675Y205674D01*
X194925D01*
X182114Y192862D01*
Y144175D01*
X169912Y131974D01*
X145325D01*
X144432Y131081D01*
X144441Y130966D01*
G02X142866Y132541I-1698J-123D01*
G01X142981Y132532D01*
G37*
G36*
G01X286507Y130299D02*
G03X286980Y130799I-27J500D01*
G01Y135636D01*
G02X289032I1026J1358D01*
G01Y129581D01*
X288289Y128838D01*
X288298Y128723D01*
G02X286507Y130299I-1698J-123D01*
G37*
G36*
G01X280426Y144242D02*
Y108058D01*
G02X278374I-1026J-1358D01*
G01Y144242D01*
G02X280426I1026J1358D01*
G37*
G36*
G01X311975Y98026D02*
X318211Y104262D01*
X318202Y104377D01*
G02X319777Y102802I1698J123D01*
G01X319662Y102811D01*
X312825Y95974D01*
X306258D01*
G02Y98026I-1358J1026D01*
G01X311975D01*
G37*
G36*
G01X325224Y-23626D02*
X322075D01*
X318174Y-19725D01*
Y48059D01*
X324198Y54084D01*
Y60836D01*
X332402D01*
Y52632D01*
X325650D01*
X324707Y51689D01*
G03X325060Y50836I353J-353D01*
G01X332402D01*
Y42632D01*
X325650D01*
X323526Y40509D01*
Y-17975D01*
X323762Y-18211D01*
X323877Y-18202D01*
G02X323977Y-18198I118J-1698D01*
G03X324223Y-17952I-4J250D01*
G02X326952Y-19333I1702J-23D01*
G01Y-21899D01*
X325224Y-23626D01*
G37*
G36*
G01X126214Y123071D02*
X129543Y126400D01*
G02X131100Y127044I1556J-1557D01*
G01X189728D01*
Y151158D01*
X189698Y151188D01*
Y186000D01*
G02X194102I2202J0D01*
G01Y153012D01*
X194132Y152982D01*
Y82918D01*
X194102Y82888D01*
Y-22100D01*
G02X189698I-2202J0D01*
G01Y84712D01*
X189728Y84742D01*
Y122642D01*
X132012D01*
X130618Y121247D01*
Y25984D01*
G02X126214I-2202J0D01*
G01Y123071D01*
G37*
G36*
G01X169774Y20175D02*
X157275Y32674D01*
X146258D01*
G02Y34726I-1358J1026D01*
G01X158125D01*
X171826Y21025D01*
Y-16175D01*
X184425Y-28774D01*
X288175D01*
X305674Y-11275D01*
Y27242D01*
G02X307726I1026J1358D01*
G01Y-12125D01*
X289025Y-30826D01*
X183575D01*
X169774Y-17025D01*
Y20175D01*
G37*
G36*
G01X123506Y-46907D02*
X131364Y-39048D01*
X320664D01*
X335348Y-24364D01*
Y-838D01*
G02Y1838I1052J1338D01*
G01Y101462D01*
G02X337452I1052J1338D01*
G01Y1838D01*
G02Y-838I-1052J-1338D01*
G01Y-25236D01*
X321536Y-41152D01*
X132236D01*
X124993Y-48394D01*
X124999Y-48505D01*
G02X124651Y-49635I-1699J-95D01*
G03X124674Y-50271I397J-304D01*
G02X122042Y-52426I-1275J-1128D01*
G01X121375D01*
X120074Y-51125D01*
Y-44675D01*
X129575Y-35174D01*
X310175D01*
X314174Y-31175D01*
Y93125D01*
X315951Y94902D01*
X315942Y95017D01*
G02X317517Y93442I1698J123D01*
G01X317402Y93451D01*
X316226Y92275D01*
Y-32025D01*
X311025Y-37226D01*
X130425D01*
X122126Y-45525D01*
Y-46504D01*
G03X122779Y-46980I500J0D01*
G02X123395Y-46901I521J-1620D01*
G01X123506Y-46907D01*
G37*
G36*
G01X519440Y-28702D02*
X511238D01*
Y-20726D01*
X486375D01*
X479838Y-14189D01*
X479723Y-14198D01*
G02X481298Y-12623I-123J1698D01*
G01X481289Y-12738D01*
X487225Y-18674D01*
X511238D01*
Y-14689D01*
X504138Y-7589D01*
X504023Y-7598D01*
G02X505598Y-6023I-123J1698D01*
G01X505589Y-6138D01*
X510384Y-10932D01*
G03X511238Y-10579I354J353D01*
G01Y-10498D01*
X519440D01*
Y-18674D01*
X519814D01*
X521238Y-17250D01*
Y-10498D01*
X529440D01*
Y-18702D01*
X522689D01*
X521746Y-19645D01*
G03X522099Y-20498I353J-353D01*
G01X529440D01*
Y-28702D01*
X521238D01*
Y-20757D01*
G03X520811Y-20580I-250J0D01*
G01X520664Y-20726D01*
X519440D01*
Y-28702D01*
G37*
G36*
G01X196725Y-27426D02*
X185275D01*
X173474Y-15625D01*
Y21975D01*
X157975Y37474D01*
X146258D01*
G02Y39526I-1358J1026D01*
G01X158825D01*
X175526Y22825D01*
Y-14775D01*
X186125Y-25374D01*
X195875D01*
X200774Y-20475D01*
Y142225D01*
X205625Y147076D01*
X229725D01*
X232993Y150345D01*
G03X232798Y151173I-353J354D01*
G01Y159402D01*
X241002D01*
Y151198D01*
X236750D01*
X230575Y145024D01*
X206475D01*
X202826Y141375D01*
Y137340D01*
G03X203684Y136991I500J0D01*
G02X206598Y135677I1216J-1191D01*
G01X206589Y135562D01*
X207325Y134826D01*
X244342D01*
G02X247346Y133365I1358J-1026D01*
G03X247709Y132752I483J-128D01*
G02X248326Y129742I-409J-1652D01*
G01Y95875D01*
X235989Y83538D01*
X235998Y83423D01*
G02X234423Y84998I-1698J-123D01*
G01X234538Y84989D01*
X246274Y96725D01*
Y103572D01*
G03X245389Y103892I-500J0D01*
G02X242384Y105105I-1307J1090D01*
G01X242393Y105220D01*
X242174Y105439D01*
Y115642D01*
G02X244226I1026J1358D01*
G01Y106690D01*
X244426Y106649D01*
G02X245389Y106072I-344J-1667D01*
G03X246274Y106392I385J320D01*
G01Y129742D01*
G02X245654Y131535I1026J1358D01*
G03X245291Y132148I-483J128D01*
G02X245044Y132229I405J1653D01*
G03X244726Y131884I-96J-231D01*
G02X241857Y130074I-1511J-784D01*
G01X226158D01*
G02X223360Y132007I-1358J1026D01*
G03X222937Y132774I-423J267D01*
G01X206475D01*
X205138Y134111D01*
X205023Y134102D01*
G02X203684Y134609I-123J1698D01*
G03X202826Y134260I-358J-349D01*
G01Y-21325D01*
X196725Y-27426D01*
G37*
G36*
G01X301226Y45458D02*
G02X299174I-1026J-1358D01*
G01Y46838D01*
G03X298498Y47306I-500J0D01*
G02X296874Y50258I-598J1594D01*
G01Y103624D01*
G02X298498Y106576I1026J1358D01*
G03X299174Y107044I176J468D01*
G01Y107561D01*
G02X301226I1026J1358D01*
G01Y45458D01*
G37*
G36*
G01X252925Y27374D02*
X247075D01*
X241674Y32775D01*
Y48525D01*
X256274Y63125D01*
Y121225D01*
X261694Y126645D01*
G03X261354Y127499I-354J354D01*
G02X259702Y129323I46J1701D01*
G01X259711Y129438D01*
X257974Y131175D01*
Y140225D01*
X260874Y143125D01*
Y151198D01*
X252926D01*
Y131044D01*
G03X253154Y130795I250J0D01*
G02X251302Y129223I-154J-1695D01*
G01X251311Y129338D01*
X250874Y129775D01*
Y151198D01*
X242798D01*
Y159402D01*
X250874D01*
Y167575D01*
X227322Y191126D01*
X211625D01*
X211478Y191274D01*
X201158D01*
G02X201029Y191123I-1356J1028D01*
G03Y190777I181J-173D01*
G02X199677Y187902I-1229J-1177D01*
G01X199562Y187911D01*
X198226Y186575D01*
Y51181D01*
X198403Y51126D01*
G02X196202Y49623I-503J-1626D01*
G01X196211Y49738D01*
X196174Y49775D01*
Y187425D01*
X198111Y189362D01*
X198102Y189477D01*
G02X198571Y190777I1698J122D01*
G03Y191123I-181J173D01*
G02Y193477I1229J1177D01*
G03Y193823I-181J173D01*
G02X199923Y196698I1229J1177D01*
G01X200038Y196689D01*
X201868Y198520D01*
G03X201515Y199374I-353J354D01*
G01X201158D01*
G02X198571Y201577I-1358J1025D01*
G03Y201923I-181J173D01*
G02X201158Y204126I1229J1178D01*
G01X256325D01*
X258431Y202020D01*
G03X259085Y201974I353J354D01*
G02X259385Y202074I300J-400D01*
G01X259775D01*
X306174Y155675D01*
Y155285D01*
G02X306074Y154985I-500J0D01*
G03X306120Y154331I400J-301D01*
G01X308526Y151925D01*
Y105975D01*
X305789Y103238D01*
X305798Y103123D01*
G02X302859Y104165I-1698J-123D01*
G03X302910Y104784I-365J342D01*
G02X302826Y105062I416J277D01*
G01Y105475D01*
X304826Y107475D01*
Y110216D01*
X304770Y110285D01*
G02X304669Y110699I389J314D01*
G03X304389Y111254I-490J101D01*
G02X303405Y112651I711J1546D01*
G03X302860Y113105I-498J-44D01*
G02X301674Y116158I-160J1695D01*
G01Y150975D01*
X253975Y198674D01*
X207750D01*
G03X207262Y198066I0J-500D01*
G02X207298Y197577I-1662J-368D01*
G01X207289Y197462D01*
X208078Y196674D01*
X229375D01*
X260874Y165175D01*
Y162978D01*
X262926Y160925D01*
Y159402D01*
X271002D01*
Y151198D01*
X262926D01*
Y142275D01*
X260026Y139375D01*
Y134596D01*
G03X260679Y134120I500J0D01*
G02X261923Y134041I522J-1620D01*
G03X262581Y134268I212J453D01*
G02X263074Y134858I1519J-768D01*
G01Y137525D01*
X265075Y139526D01*
X268725D01*
X272126Y136125D01*
Y132825D01*
X273526Y131425D01*
Y63775D01*
X254639Y44888D01*
X254648Y44773D01*
G02X253073Y46348I-1698J-123D01*
G01X253188Y46339D01*
X271474Y64625D01*
Y130575D01*
X270074Y131975D01*
Y135275D01*
X267875Y137474D01*
X265925D01*
X265126Y136675D01*
Y134858D01*
G02X265368Y134635I-1027J-1357D01*
G03X266194Y134757I373J333D01*
G02X268762Y132678I1542J-721D01*
G01Y64511D01*
X250331Y46079D01*
X250438Y45910D01*
G02X247938Y43670I-1438J-910D01*
G03X247126Y43279I-312J-391D01*
G01Y35925D01*
X250762Y32289D01*
X250877Y32298D01*
G02X251255Y32283I122J-1698D01*
G03X251823Y32691I76J494D01*
G02X254526Y31042I1677J-291D01*
G01Y28975D01*
X252925Y27374D01*
G37*
G54D34*
X525046Y69025D03*
Y91781D03*
G54D32*
X350400Y-48500D03*
Y-58500D03*
G54D29*
X10180Y243800D03*
Y-83393D03*
X510800D03*
Y243800D03*
G54D31*
X515339Y-4600D03*
X525339D03*
Y5400D03*
X515339D03*
G54D30*
X355200Y235400D03*
Y225400D03*
Y205400D03*
X276900Y155300D03*
X226900D03*
X206900D03*
G54D33*
X350400Y-68500D03*
%LPD*%
G75*
G36*
G01X247126Y46084D02*
Y47375D01*
X261062Y61310D01*
X261033Y118881D01*
X265856Y123704D01*
G02X266710Y123351I354J-353D01*
G01Y65361D01*
X247974Y46625D01*
Y46358D01*
G03X247584Y45945I1025J-1359D01*
G01X247126Y46084D01*
G37*
G54D10*
X10180Y-83393D03*
Y243800D03*
X510800Y-83393D03*
Y243800D03*
G54D20*
X539535Y97411D03*
Y63395D03*
G54D11*
X2488Y125798D03*
X13512D03*
X2488Y134778D03*
X13512D03*
X2488Y143758D03*
X13512D03*
X2488Y152738D03*
X13512D03*
X2488Y161718D03*
X13512D03*
X2488Y170698D03*
X13512D03*
X2488Y179678D03*
X13512D03*
X2488Y188658D03*
X13512D03*
X2488Y197638D03*
X13512D03*
X2488Y-36832D03*
X13512D03*
X2488Y-27852D03*
X13512D03*
X2488Y-18872D03*
X13512D03*
X2488Y-9892D03*
X13512D03*
X2488Y-912D03*
X13512D03*
X2488Y8068D03*
X13512D03*
X2488Y17048D03*
X13512D03*
X2488Y35008D03*
X13512D03*
X2488Y26028D03*
X13512D03*
G54D21*
X525046Y69025D03*
Y91781D03*
G54D12*
G01X2488Y35008D02*
X-2092D01*
G01X2488Y26028D02*
X-2092D01*
G01X2488Y17048D02*
X-2092D01*
G01X2488Y197638D02*
X-1962D01*
G01X2488Y188658D02*
X-1962D01*
G01X2488Y179678D02*
X-1962D01*
G01X2488Y170698D02*
X-1962D01*
G01X2488Y161718D02*
X-1962D01*
G01X2488Y152738D02*
X-1962D01*
G01X2488Y143758D02*
X-1962D01*
G01X2488Y134778D02*
X-1962D01*
G01X2488Y125798D02*
X-1962D01*
G01X2488Y8068D02*
X-2092D01*
G01X2488Y-912D02*
X-2092D01*
G01X2488Y-9892D02*
X-2092D01*
G01X2488Y-18872D02*
X-2092D01*
G01X2488Y-27852D02*
X-2092D01*
G01X2488Y-36832D02*
X-2092D01*
G01X143400Y11100D02*
X136800Y17700D01*
Y42900D01*
X141200Y47300D01*
Y113600D01*
G01X321900Y83329D02*
X324500Y85929D01*
Y106388D01*
X320000Y110888D01*
G01X205500Y186000D02*
X209210Y182290D01*
X228890D01*
G01X373000Y-21684D02*
X348316D01*
X336000Y-34000D01*
G01X443000Y-53200D02*
X393500D01*
X384100Y-62600D01*
G01X139600Y-93400D02*
X141900Y-91100D01*
G01D02*
Y-79400D01*
G01X30030Y113293D02*
X47000Y130263D01*
Y193173D01*
X30030Y210143D01*
G01Y47513D02*
X48800Y28743D01*
Y-30567D01*
X30030Y-49337D01*
G01X135410Y-73294D02*
X156956D01*
X159450Y-70800D01*
X-200Y248700D03*
Y240100D03*
Y244400D03*
X8100Y210900D03*
X-500D03*
X3800D03*
X8700Y206200D03*
X100D03*
X4400D03*
X3300Y103900D03*
Y95300D03*
Y99600D03*
X3600Y120000D03*
Y111400D03*
Y115700D03*
X8900Y-94500D03*
X7900Y-61000D03*
X-700D03*
X3600D03*
X6900Y-52500D03*
X-1700D03*
X2600D03*
X7800Y-46200D03*
X-800D03*
X3500D03*
X7000Y-5600D03*
X-1600D03*
X2700D03*
X7300Y3700D03*
X-1300D03*
X3000D03*
X8800Y216700D03*
X200D03*
X4500D03*
X9300Y254700D03*
X-200Y120200D03*
Y115900D03*
Y107200D03*
Y111600D03*
Y103000D03*
Y98700D03*
Y94400D03*
Y85800D03*
Y90100D03*
Y81500D03*
Y77200D03*
Y72900D03*
Y68600D03*
Y64300D03*
Y60000D03*
Y55700D03*
Y51400D03*
Y47100D03*
Y42800D03*
X7000Y83000D03*
Y87300D03*
Y78700D03*
Y74400D03*
Y70100D03*
Y65800D03*
Y61500D03*
Y57200D03*
Y52900D03*
X-2092Y35008D03*
Y26028D03*
Y17048D03*
X-1962Y197638D03*
Y188658D03*
Y161718D03*
Y152738D03*
Y143758D03*
Y134778D03*
Y125798D03*
X-2092Y8068D03*
Y-912D03*
Y-9892D03*
Y-18872D03*
Y-27852D03*
Y-36832D03*
X215900Y217300D03*
X207300D03*
X211600D03*
X200000D03*
X191400D03*
X195700D03*
X184800Y217600D03*
X176200D03*
X180500D03*
X214900Y227700D03*
X206300D03*
X210600D03*
X199300Y228400D03*
X190700D03*
X195000D03*
X184600Y228900D03*
X176000D03*
X180300D03*
X169500Y228400D03*
X160900D03*
X165200D03*
X170800Y215300D03*
X162200D03*
X166500D03*
X164200Y222300D03*
X155600D03*
X159900D03*
X155400Y213300D03*
X146800D03*
X151100D03*
X150800Y224300D03*
X142200D03*
X146500D03*
X136300Y214400D03*
X127700D03*
X132000D03*
X135400Y225100D03*
X126800D03*
X131100D03*
X185600Y54600D03*
Y58900D03*
Y63200D03*
Y67500D03*
Y71800D03*
Y76100D03*
Y80400D03*
Y89000D03*
Y84700D03*
X179100Y57200D03*
Y61500D03*
Y65800D03*
Y70100D03*
Y74400D03*
Y78700D03*
Y83000D03*
Y91600D03*
Y87300D03*
X168100Y59000D03*
Y63300D03*
Y67600D03*
Y71900D03*
Y76200D03*
Y80500D03*
Y84800D03*
Y93400D03*
Y89100D03*
X156100Y61100D03*
Y65400D03*
Y69700D03*
Y74000D03*
Y78300D03*
Y82600D03*
Y86900D03*
Y95500D03*
Y91200D03*
X147400Y63900D03*
Y68200D03*
Y72500D03*
Y76800D03*
Y81100D03*
Y85400D03*
Y89700D03*
Y98300D03*
Y94000D03*
X138000Y69800D03*
Y74100D03*
Y78400D03*
Y82700D03*
Y87000D03*
Y91300D03*
Y95600D03*
Y104200D03*
Y99900D03*
X154600Y99500D03*
Y103800D03*
Y108100D03*
Y112400D03*
Y116700D03*
X164200Y101800D03*
Y106100D03*
Y110400D03*
Y114700D03*
Y119000D03*
X178500Y101000D03*
Y105300D03*
Y109600D03*
Y113900D03*
Y118200D03*
Y135400D03*
Y131100D03*
X186700Y102000D03*
Y106300D03*
Y110600D03*
Y114900D03*
Y119200D03*
Y136400D03*
Y132100D03*
X167500Y154500D03*
Y158800D03*
Y163100D03*
Y167400D03*
Y171700D03*
Y176000D03*
Y180300D03*
Y188900D03*
Y184600D03*
X157200Y153300D03*
Y157600D03*
Y161900D03*
Y166200D03*
Y170500D03*
Y174800D03*
Y179100D03*
Y187700D03*
Y183400D03*
X147700Y153400D03*
Y157700D03*
Y162000D03*
Y166300D03*
Y170600D03*
Y174900D03*
Y179200D03*
Y187800D03*
Y183500D03*
X138900Y153000D03*
Y157300D03*
Y161600D03*
Y165900D03*
Y170200D03*
Y174500D03*
Y178800D03*
Y187400D03*
Y183100D03*
X528400Y221700D03*
Y226000D03*
Y230300D03*
Y234600D03*
Y238900D03*
Y243200D03*
Y247500D03*
Y256100D03*
Y251800D03*
X540900Y-87400D03*
Y-83100D03*
Y-78800D03*
Y-74500D03*
Y-70200D03*
Y-65900D03*
Y-61600D03*
Y-53000D03*
Y-57300D03*
X541300Y-25700D03*
Y-21400D03*
Y-17100D03*
Y-12800D03*
Y-8500D03*
Y-4200D03*
Y100D03*
Y8700D03*
Y4400D03*
X539500Y136800D03*
Y141100D03*
Y145400D03*
Y149700D03*
Y154000D03*
Y158300D03*
Y162600D03*
Y171200D03*
Y166900D03*
Y179500D03*
Y183800D03*
Y188100D03*
Y192400D03*
Y196700D03*
Y201000D03*
Y205300D03*
Y213900D03*
Y209600D03*
X539200Y218000D03*
Y222300D03*
Y226600D03*
Y230900D03*
Y235200D03*
Y239500D03*
Y243800D03*
Y252400D03*
Y248100D03*
X527100Y183500D03*
X522800D03*
X518500D03*
X528400Y190900D03*
X524100D03*
X519800D03*
X515500D03*
X511200D03*
X524700Y197200D03*
X529000D03*
X520400D03*
X516100D03*
X511800D03*
X507500D03*
X524100Y204800D03*
X528400D03*
X519800D03*
X515500D03*
X511200D03*
X506900D03*
X521700Y211400D03*
X526000D03*
X517400D03*
X513100D03*
X508800D03*
X504500D03*
X503700Y183600D03*
X508000D03*
X493600Y186900D03*
X489300D03*
X485000D03*
X494900Y194300D03*
X490600D03*
X486300D03*
X482000D03*
X477700D03*
X491200Y200600D03*
X495500D03*
X486900D03*
X482600D03*
X478300D03*
X474000D03*
X490600Y208200D03*
X494900D03*
X486300D03*
X482000D03*
X477700D03*
X473400D03*
X488200Y214800D03*
X492500D03*
X483900D03*
X479600D03*
X475300D03*
X471000D03*
X470200Y187000D03*
X474500D03*
X461300Y187500D03*
X457000D03*
X452700D03*
X462600Y194900D03*
X458300D03*
X454000D03*
X449700D03*
X445400D03*
X458900Y201200D03*
X463200D03*
X454600D03*
X450300D03*
X446000D03*
X441700D03*
X458300Y208800D03*
X462600D03*
X454000D03*
X449700D03*
X445400D03*
X441100D03*
X455900Y215400D03*
X460200D03*
X451600D03*
X447300D03*
X443000D03*
X438700D03*
X437900Y187600D03*
X442200D03*
X501500Y219900D03*
X505800D03*
X510100D03*
X514400D03*
X523000D03*
X518700D03*
X468300Y220900D03*
X472600D03*
X476900D03*
X481200D03*
X489800D03*
X485500D03*
X443100Y221900D03*
X447400D03*
X451700D03*
X456000D03*
X464600D03*
X460300D03*
X431300Y230700D03*
X435600D03*
X439900D03*
X444200D03*
X452800D03*
X448500D03*
X494900Y232400D03*
X499200D03*
X503500D03*
X507800D03*
X516400D03*
X512100D03*
X462200Y240900D03*
X466500D03*
X470800D03*
X475100D03*
X483700D03*
X479400D03*
X475000Y245200D03*
X479300D03*
X483600D03*
X487900D03*
X496500D03*
X492200D03*
X443000Y246100D03*
X447300D03*
X451600D03*
X455900D03*
X464500D03*
X460200D03*
X424300Y241000D03*
X428600D03*
X432900D03*
X437200D03*
X445800D03*
X441500D03*
X401300Y184700D03*
X405600D03*
X409900D03*
X414200D03*
X422800D03*
X418500D03*
X402500Y190900D03*
X406800D03*
X411100D03*
X415400D03*
X424000D03*
X419700D03*
X411300Y197500D03*
X415600D03*
X419900D03*
X424200D03*
X432800D03*
X428500D03*
X404000Y204900D03*
X408300D03*
X412600D03*
X416900D03*
X425500D03*
X421200D03*
X400300Y211200D03*
X404600D03*
X408900D03*
X413200D03*
X421800D03*
X417500D03*
X399700Y218800D03*
X404000D03*
X408300D03*
X412600D03*
X421200D03*
X416900D03*
X397300Y225400D03*
X401600D03*
X405900D03*
X410200D03*
X418800D03*
X414500D03*
X394900Y235100D03*
X399200D03*
X403500D03*
X407800D03*
X416400D03*
X412100D03*
X431000Y134900D03*
X435300D03*
X439600D03*
X443900D03*
X452500D03*
X448200D03*
X393600Y143900D03*
X397900D03*
X402200D03*
X406500D03*
X415100D03*
X410800D03*
X390600Y130600D03*
X394900D03*
X399200D03*
X403500D03*
X412100D03*
X407800D03*
X339600Y136100D03*
X343900D03*
X348200D03*
X352500D03*
X361100D03*
X356800D03*
X374000Y138500D03*
X378300D03*
X382600D03*
X386900D03*
X395500D03*
X391200D03*
X372500Y150300D03*
X376800D03*
X381100D03*
X385400D03*
X394000D03*
X389700D03*
X380800Y161500D03*
X385100D03*
X389400D03*
X393700D03*
X402300D03*
X398000D03*
X379600Y170100D03*
X383900D03*
X388200D03*
X392500D03*
X401100D03*
X396800D03*
X392100Y179800D03*
X396400D03*
X400700D03*
X405000D03*
X413600D03*
X409300D03*
X379300Y197600D03*
X383600D03*
X387900D03*
X392200D03*
X400800D03*
X396500D03*
X371100Y187300D03*
X375400D03*
X379700D03*
X384000D03*
X392600D03*
X388300D03*
X358500Y177800D03*
X362800D03*
X367100D03*
X371400D03*
X380000D03*
X375700D03*
X326500Y170500D03*
X330800D03*
X335100D03*
X339400D03*
X352600Y166600D03*
X356900D03*
X365500D03*
X361200D03*
X332400Y152100D03*
X336700D03*
X341000D03*
X345300D03*
X353900D03*
X349600D03*
X346400Y157400D03*
X350700D03*
X355000D03*
X359300D03*
X367900D03*
X363600D03*
X330500Y157900D03*
X326200D03*
X473200Y-800D03*
X477500D03*
X481800D03*
X486100D03*
X494700D03*
X490400D03*
X466700Y4400D03*
X471000D03*
X475300D03*
X479600D03*
X488200D03*
X483900D03*
X462400Y8900D03*
X466700D03*
X471000D03*
X475300D03*
X483900D03*
X479600D03*
X348900Y-11500D03*
X353200D03*
X357500D03*
X361800D03*
X370400D03*
X366100D03*
X389100Y-80500D03*
X393400D03*
X397700D03*
X402000D03*
X410600D03*
X406300D03*
X392600Y-44700D03*
Y-49000D03*
Y-66200D03*
Y-61900D03*
X415700Y-32200D03*
X411400D03*
X407100D03*
X402800D03*
X394200D03*
X398500D03*
X457500Y-32800D03*
X453200D03*
X448900D03*
X444600D03*
X436000D03*
X440300D03*
X529700Y-65600D03*
Y-69900D03*
Y-74200D03*
Y-78500D03*
Y-87100D03*
Y-82800D03*
X267200Y-47400D03*
Y-51700D03*
Y-56000D03*
Y-60300D03*
Y-64600D03*
Y-68900D03*
Y-73200D03*
Y-81800D03*
Y-77500D03*
X254900Y-45600D03*
Y-49900D03*
Y-54200D03*
Y-58500D03*
Y-62800D03*
Y-67100D03*
Y-71400D03*
Y-80000D03*
Y-75700D03*
X245400Y-45000D03*
Y-49300D03*
Y-53600D03*
Y-57900D03*
Y-62200D03*
Y-66500D03*
Y-70800D03*
Y-79400D03*
Y-75100D03*
X235500Y-44400D03*
Y-48700D03*
Y-53000D03*
Y-57300D03*
Y-61600D03*
Y-65900D03*
Y-70200D03*
Y-78800D03*
Y-74500D03*
X224300Y-43400D03*
Y-47700D03*
Y-52000D03*
Y-56300D03*
Y-60600D03*
Y-64900D03*
Y-69200D03*
Y-77800D03*
Y-73500D03*
X213100Y-43400D03*
Y-47700D03*
Y-52000D03*
Y-56300D03*
Y-60600D03*
Y-64900D03*
X143400Y4400D03*
Y100D03*
Y-4200D03*
Y-8500D03*
Y-12800D03*
Y-17100D03*
Y-21400D03*
Y-30000D03*
Y-25700D03*
X147600Y-600D03*
Y-4900D03*
Y-9200D03*
Y-13500D03*
Y-17800D03*
Y-22100D03*
Y-26400D03*
Y-30700D03*
X152100Y-4100D03*
Y-8400D03*
Y-12700D03*
Y-17000D03*
Y-21300D03*
Y-25600D03*
Y-29900D03*
X156300Y-8600D03*
Y-12900D03*
Y-17200D03*
Y-21500D03*
Y-25800D03*
Y-30100D03*
X159000Y20900D03*
X154700D03*
X146100D03*
X150400D03*
X181400Y15700D03*
X159900D03*
X155600D03*
X147000D03*
X151300D03*
X188800Y8700D03*
X184500D03*
X163000D03*
X154400D03*
X158700D03*
X182700Y2200D03*
X208100Y-7100D03*
X182300D03*
X231400Y-3300D03*
X227100D03*
X222800D03*
X218500D03*
X214200D03*
X209900D03*
X300200Y-4900D03*
X291600D03*
X295900D03*
X301100Y5400D03*
X292500D03*
X296800D03*
X298700Y0D03*
X294400D03*
X290100D03*
X285800D03*
X281500D03*
X277200D03*
X268600D03*
X272900D03*
X276700Y-3900D03*
X272400D03*
X268100D03*
X263800D03*
X259500D03*
X255200D03*
X250900D03*
X242300D03*
X246600D03*
X279400Y5000D03*
X275100D03*
X270800D03*
X266500D03*
X262200D03*
X257900D03*
X253600D03*
X245000D03*
X249300D03*
X449400Y-1500D03*
X445100D03*
X440800D03*
X436500D03*
X432200D03*
X427900D03*
X423600D03*
X415000D03*
X419300D03*
X403100Y200D03*
X398800D03*
X394500D03*
X390200D03*
X385900D03*
X381600D03*
X377300D03*
X368700D03*
X373000D03*
X353600Y500D03*
X349300D03*
X345000D03*
X340700D03*
X332100D03*
X382800Y-5800D03*
X378500D03*
X374200D03*
X369900D03*
X365600D03*
X361300D03*
X357000D03*
X348400D03*
X352700D03*
X426900Y-6800D03*
X422600D03*
X418300D03*
X414000D03*
X409700D03*
X405400D03*
X401100D03*
X392500D03*
X396800D03*
X467500Y-7100D03*
X463200D03*
X458900D03*
X454600D03*
X450300D03*
X446000D03*
X441700D03*
X433100D03*
X437400D03*
X400300Y5500D03*
X396000D03*
X391700D03*
X387400D03*
X383100D03*
X378800D03*
X374500D03*
X365900D03*
X370200D03*
X381600Y22300D03*
X377300D03*
X373000D03*
X368700D03*
X364400D03*
X360100D03*
X355800D03*
X347200D03*
X351500D03*
X432800Y26700D03*
X428500D03*
X424200D03*
X419900D03*
X415600D03*
X411300D03*
X407000D03*
X398400D03*
X402700D03*
X419100Y81200D03*
X414800D03*
X410500D03*
X406200D03*
X401900D03*
X397600D03*
X393300D03*
X384700D03*
X389000D03*
X379500Y86500D03*
X375200D03*
X370900D03*
X366600D03*
X362300D03*
X358000D03*
X353700D03*
X345100D03*
X349400D03*
X387100Y59800D03*
Y55500D03*
Y51200D03*
Y46900D03*
Y42600D03*
Y38300D03*
Y34000D03*
Y25400D03*
Y29700D03*
X438700Y63000D03*
Y58700D03*
Y54400D03*
Y50100D03*
Y45800D03*
Y41500D03*
Y37200D03*
Y28600D03*
Y32900D03*
X517300Y41400D03*
X513000D03*
X508700D03*
X504400D03*
X500100D03*
X495800D03*
X491500D03*
X482900D03*
X487200D03*
X502300Y47700D03*
X498000D03*
X493700D03*
X489400D03*
X485100D03*
X480800D03*
X476500D03*
X467900D03*
X472200D03*
X494200Y53600D03*
X489900D03*
X485600D03*
X481300D03*
X477000D03*
X472700D03*
X468400D03*
X459800D03*
X464100D03*
X508200Y46000D03*
X519800Y45000D03*
X538900Y42800D03*
X540100Y48800D03*
X536300Y49300D03*
X524900Y50400D03*
X520400Y51200D03*
X515500Y51900D03*
X531500Y109000D03*
Y103000D03*
X538300Y72400D03*
X537600Y81000D03*
X534400Y89700D03*
X510900Y65500D03*
X511100Y68900D03*
X511500Y71800D03*
X511800Y90300D03*
X511300Y93000D03*
X510800Y97000D03*
X507400Y86800D03*
X506800Y79500D03*
X503900Y79400D03*
X495100Y86500D03*
X492100Y86700D03*
X485200Y79200D03*
X482500Y79500D03*
X474100Y96900D03*
X476100Y94600D03*
X478200Y92200D03*
X480300Y90200D03*
X482700Y88200D03*
X485200Y86000D03*
X480100Y81800D03*
X477900Y83900D03*
X475800Y86200D03*
X470400Y91000D03*
X467600Y93500D03*
X319800Y90100D03*
X318100Y86300D03*
X437500Y100800D03*
X436900Y94600D03*
X395400Y94400D03*
X392400D03*
X389600Y94500D03*
X395100Y101000D03*
X392000D03*
X389100Y101100D03*
X385600Y94500D03*
X381300D03*
X377000D03*
X386300Y101100D03*
X382000D03*
X377700D03*
X147600Y-78900D03*
X300800Y-82600D03*
X304400Y-74300D03*
X254800Y144100D03*
X132260Y8960D03*
X132140Y13960D03*
X264000Y99300D03*
Y90700D03*
Y86400D03*
Y82100D03*
Y77800D03*
Y73500D03*
Y69200D03*
Y64900D03*
X269800Y115500D03*
X333700Y88800D03*
X334300Y71700D03*
X319023Y77423D03*
X141940Y35960D03*
X331100Y9300D03*
X329900Y-9700D03*
X325600D03*
X205200Y116400D03*
X260300Y188400D03*
X260200Y184200D03*
X265400Y181700D03*
X263700Y185700D03*
X269000Y180900D03*
X259500Y181200D03*
X234400Y50800D03*
X240439Y31100D03*
X234400Y105700D03*
X219700Y92000D03*
X205230Y80830D03*
X240200Y114800D03*
X375900Y217800D03*
Y213500D03*
X386300Y224100D03*
X338000Y189700D03*
Y185400D03*
X414600Y246700D03*
X418900D03*
X426100Y255200D03*
X430400D03*
X205170Y100330D03*
X205130Y92830D03*
X243600Y144300D03*
X228890Y172290D03*
X366200Y242600D03*
Y238300D03*
X375900Y243600D03*
X311700Y206200D03*
X302700Y199000D03*
Y194700D03*
X338000Y219800D03*
X387700Y255000D03*
X501200Y79400D03*
X487900D03*
X539100Y28300D03*
Y24000D03*
Y2500D03*
X512600Y85100D03*
X512300Y79500D03*
X509500D03*
X509900Y85000D03*
X505000Y85200D03*
X500300Y85000D03*
X489000Y87400D03*
X486200Y90100D03*
X484200Y92700D03*
X481400Y95100D03*
X478500Y97900D03*
X463700Y94600D03*
X459400D03*
X455100D03*
X450800D03*
X453900Y100800D03*
X449600D03*
X458200D03*
X462500D03*
X466800D03*
X471100D03*
X475400D03*
X479700D03*
X484000D03*
X415400Y94700D03*
X411100D03*
X419700D03*
X424000D03*
X428300D03*
X432600D03*
X441200D03*
X445500D03*
X416300Y100900D03*
X412000D03*
X420600D03*
X424900D03*
X429200D03*
X433500D03*
X442100D03*
X446400D03*
X372700Y94800D03*
X398500D03*
X402800D03*
X407100D03*
X373700Y100900D03*
X399500D03*
X403800D03*
X408100D03*
X343500Y94900D03*
X347800D03*
X352100D03*
X356400D03*
X360700D03*
X365000D03*
X369300D03*
X339500Y100900D03*
X343800D03*
X348100D03*
X352400D03*
X356700D03*
X361000D03*
X365300D03*
X369600D03*
X356900Y9300D03*
X352600D03*
X348300D03*
X344000D03*
X339700D03*
X303300Y10200D03*
X299000D03*
X294700D03*
X290400D03*
X286100D03*
X281800D03*
X277500D03*
X268900D03*
X273200D03*
X284000Y64700D03*
Y69000D03*
Y73300D03*
Y77600D03*
Y81900D03*
Y86200D03*
Y90500D03*
Y99100D03*
Y94800D03*
X253700Y64100D03*
Y68400D03*
Y72700D03*
Y77000D03*
Y81300D03*
Y85600D03*
Y89900D03*
Y98500D03*
Y94200D03*
X278000Y65100D03*
Y69400D03*
Y73700D03*
Y78000D03*
Y82300D03*
Y86600D03*
Y90900D03*
Y99500D03*
Y95200D03*
X203400Y244700D03*
X199100D03*
X194800D03*
X190500D03*
X186200D03*
X181900D03*
X177600D03*
X169000D03*
X173300D03*
X153600Y209300D03*
X149300D03*
X145000D03*
X140700D03*
X136400D03*
X132100D03*
X127800D03*
X123500D03*
X203800Y212400D03*
X199500D03*
X195200D03*
X190900D03*
X186600D03*
X182300D03*
X178000D03*
X169400D03*
X173700D03*
X155400Y218700D03*
X151100D03*
X146800D03*
X142500D03*
X138200D03*
X133900D03*
X129600D03*
X121000D03*
X125300D03*
X203600Y223700D03*
X199300D03*
X195000D03*
X190700D03*
X186400D03*
X182100D03*
X177800D03*
X169200D03*
X173500D03*
X155900Y230700D03*
X151600D03*
X147300D03*
X143000D03*
X138700D03*
X134400D03*
X130100D03*
X121500D03*
X125800D03*
X201900Y240000D03*
X197600D03*
X193300D03*
X189000D03*
X184700D03*
X180400D03*
X176100D03*
X167500D03*
X171800D03*
X158400Y240900D03*
X154100D03*
X149800D03*
X145500D03*
X141200D03*
X136900D03*
X132600D03*
X124000D03*
X128300D03*
X129600Y255000D03*
X125300D03*
X121000D03*
X172700Y254800D03*
X168400D03*
X164100D03*
X159800D03*
X155500D03*
X151200D03*
X146900D03*
X138300D03*
X142600D03*
X215200Y254600D03*
X210900D03*
X206600D03*
X202300D03*
X198000D03*
X193700D03*
X189400D03*
X180800D03*
X185100D03*
X259800Y255000D03*
X255500D03*
X251200D03*
X246900D03*
X242600D03*
X238300D03*
X234000D03*
X225400D03*
X229700D03*
X300900Y254800D03*
X296600D03*
X292300D03*
X288000D03*
X283700D03*
X279400D03*
X275100D03*
X266500D03*
X270800D03*
X344700Y254600D03*
X340400D03*
X336100D03*
X331800D03*
X327500D03*
X323200D03*
X318900D03*
X310300D03*
X314600D03*
X383400Y255000D03*
X379100D03*
X374800D03*
X370500D03*
X366200D03*
X361900D03*
X353300D03*
X357600D03*
X434700Y255200D03*
X421800D03*
X417500D03*
X413200D03*
X408900D03*
X400300D03*
X404600D03*
X477400Y255500D03*
X473100D03*
X468800D03*
X464500D03*
X460200D03*
X455900D03*
X451600D03*
X443000D03*
X447300D03*
X518400Y255300D03*
X514100D03*
X509800D03*
X505500D03*
X501200D03*
X496900D03*
X492600D03*
X484000D03*
X488300D03*
X427500Y246700D03*
X423200D03*
X410300D03*
X406000D03*
X401700D03*
X393100D03*
X397400D03*
X338000Y194000D03*
Y198300D03*
Y202600D03*
Y206900D03*
Y211200D03*
Y215500D03*
X286900Y192200D03*
Y196500D03*
Y200800D03*
Y205100D03*
Y209400D03*
Y213700D03*
Y222300D03*
Y218000D03*
X302700Y186100D03*
Y190400D03*
Y203300D03*
Y207600D03*
Y211900D03*
Y220500D03*
Y216200D03*
X311700Y210500D03*
Y214800D03*
Y219100D03*
Y223400D03*
Y227700D03*
Y232000D03*
Y240600D03*
Y236300D03*
X291400Y206200D03*
Y210500D03*
Y214800D03*
Y219100D03*
Y223400D03*
Y227700D03*
Y232000D03*
Y240600D03*
Y236300D03*
X269500Y211200D03*
Y215500D03*
Y219800D03*
Y224100D03*
Y228400D03*
Y232700D03*
Y241300D03*
Y237000D03*
X393300Y240800D03*
X386300Y206900D03*
Y211200D03*
Y215500D03*
Y219800D03*
Y228400D03*
Y232700D03*
Y241300D03*
Y237000D03*
X375900Y209200D03*
Y222100D03*
Y226400D03*
Y230700D03*
Y235000D03*
Y239300D03*
X366200Y212500D03*
Y216800D03*
Y221100D03*
Y225400D03*
Y229700D03*
Y234000D03*
Y246900D03*
X422000Y138600D03*
Y142900D03*
Y147200D03*
Y151500D03*
Y155800D03*
Y160100D03*
Y164400D03*
Y168700D03*
X362800Y145400D03*
X358500D03*
X354200D03*
X349900D03*
X345600D03*
X341300D03*
X337000D03*
X328400D03*
X332700D03*
X527900Y158300D03*
X523600D03*
X519300D03*
X515000D03*
X510700D03*
X506400D03*
X502100D03*
X493500D03*
X497800D03*
X477000Y160300D03*
X472700D03*
X468400D03*
X464100D03*
X459800D03*
X455500D03*
X451200D03*
X442600D03*
X446900D03*
X477700Y130400D03*
X473400D03*
X469100D03*
X464800D03*
X460500D03*
X456200D03*
X451900D03*
X443300D03*
X447600D03*
X477400Y141800D03*
X473100D03*
X468800D03*
X464500D03*
X460200D03*
X455900D03*
X451600D03*
X443000D03*
X447300D03*
X476800Y150600D03*
X472500D03*
X468200D03*
X463900D03*
X459600D03*
X455300D03*
X451000D03*
X442400D03*
X446700D03*
X525400Y135000D03*
X521100D03*
X516800D03*
X512500D03*
X508200D03*
X503900D03*
X499600D03*
X491000D03*
X495300D03*
X527400Y147400D03*
X523100D03*
X518800D03*
X514500D03*
X510200D03*
X505900D03*
X501600D03*
X493000D03*
X497300D03*
X523800Y111700D03*
X519500D03*
X515200D03*
X510900D03*
X506600D03*
X502300D03*
X498000D03*
X489400D03*
X493700D03*
X525200Y120300D03*
X520900D03*
X516600D03*
X512300D03*
X508000D03*
X503700D03*
X499400D03*
X490800D03*
X495100D03*
X486300Y59500D03*
X482000D03*
X477700D03*
X473400D03*
X469100D03*
X464800D03*
X460500D03*
X451900D03*
X456200D03*
X482000Y68300D03*
X477700D03*
X473400D03*
X469100D03*
X464800D03*
X460500D03*
X456200D03*
X447600D03*
X451900D03*
X479200Y78000D03*
X474900D03*
X470600D03*
X466300D03*
X462000D03*
X457700D03*
X453400D03*
X444800D03*
X449100D03*
X472000Y86600D03*
X467700D03*
X463400D03*
X459100D03*
X454800D03*
X450500D03*
X441900D03*
X446200D03*
X478400Y110800D03*
X474100D03*
X469800D03*
X465500D03*
X461200D03*
X456900D03*
X452600D03*
X444000D03*
X448300D03*
X478300Y119900D03*
X474000D03*
X469700D03*
X465400D03*
X461100D03*
X456800D03*
X452500D03*
X443900D03*
X448200D03*
X432900Y107000D03*
X428600D03*
X424300D03*
X420000D03*
X415700D03*
X411400D03*
X407100D03*
X398500D03*
X402800D03*
X432700Y115600D03*
X428400D03*
X424100D03*
X419800D03*
X415500D03*
X411200D03*
X406900D03*
X398300D03*
X402600D03*
X433100Y123400D03*
X428800D03*
X424500D03*
X420200D03*
X415900D03*
X411600D03*
X407300D03*
X398700D03*
X403000D03*
X374100Y109200D03*
X369800D03*
X365500D03*
X361200D03*
X356900D03*
X352600D03*
X348300D03*
X339700D03*
X344000D03*
X370300Y118200D03*
X366000D03*
X361700D03*
X357400D03*
X353100D03*
X348800D03*
X344500D03*
X335900D03*
X340200D03*
X363100Y125900D03*
X358800D03*
X354500D03*
X350200D03*
X345900D03*
X341600D03*
X337300D03*
X328700D03*
X333000D03*
X371600Y41700D03*
Y46000D03*
Y50300D03*
Y54600D03*
Y58900D03*
Y63200D03*
Y67500D03*
Y76100D03*
Y71800D03*
X361900Y34900D03*
Y39200D03*
Y43500D03*
Y47800D03*
Y52100D03*
Y56400D03*
Y60700D03*
Y69300D03*
Y65000D03*
X351100Y29400D03*
Y33700D03*
Y38000D03*
Y42300D03*
Y46600D03*
Y50900D03*
Y55200D03*
Y63800D03*
Y59500D03*
X341500Y23800D03*
Y28100D03*
Y32400D03*
Y36700D03*
Y41000D03*
Y45300D03*
Y49600D03*
Y58200D03*
Y53900D03*
X425900Y50500D03*
Y54800D03*
Y59100D03*
Y63400D03*
Y67700D03*
Y72000D03*
Y76300D03*
Y84900D03*
Y80600D03*
X416400Y42600D03*
Y46900D03*
Y51200D03*
Y55500D03*
Y59800D03*
Y64100D03*
Y68400D03*
Y77000D03*
Y72700D03*
X404400Y33500D03*
Y37800D03*
Y42100D03*
Y46400D03*
Y50700D03*
Y55000D03*
Y59300D03*
Y67900D03*
Y63600D03*
X442900Y4100D03*
X438600D03*
X434300D03*
X430000D03*
X425700D03*
X421400D03*
X417100D03*
X408500D03*
X412800D03*
X451400Y20200D03*
Y24500D03*
Y28800D03*
Y33100D03*
Y37400D03*
Y41700D03*
Y46000D03*
Y54600D03*
Y50300D03*
X472400Y20600D03*
Y24900D03*
Y29200D03*
Y33500D03*
Y42100D03*
Y37800D03*
X486400Y20000D03*
Y24300D03*
Y28600D03*
Y37200D03*
Y32900D03*
X539100Y15400D03*
Y19700D03*
Y36900D03*
Y32600D03*
Y6800D03*
Y11100D03*
X540700Y-40400D03*
X536400D03*
X532100D03*
X522600Y-73400D03*
X518300D03*
X514000D03*
X509700D03*
X505400D03*
X501100D03*
X496800D03*
X488200D03*
X492500D03*
X535500Y-90400D03*
Y-86100D03*
Y-81800D03*
Y-77500D03*
Y-73200D03*
Y-68900D03*
Y-64600D03*
Y-56000D03*
Y-60300D03*
X524500Y-95200D03*
X520200D03*
X515900D03*
X511600D03*
X507300D03*
X503000D03*
X498700D03*
X490100D03*
X494400D03*
X457600Y-16400D03*
X453300D03*
X449000D03*
X444700D03*
X440400D03*
X436100D03*
X431800D03*
X423200D03*
X427500D03*
X409200Y-16100D03*
X404900D03*
X400600D03*
X396300D03*
X392000D03*
X387700D03*
X383400D03*
X374800D03*
X379100D03*
X342800Y-9700D03*
X338500D03*
X312700D03*
X270400Y-32400D03*
X266100D03*
X261800D03*
X257500D03*
X253200D03*
X248900D03*
X244600D03*
X236000D03*
X240300D03*
X290400Y-23200D03*
X286100D03*
X281800D03*
X277500D03*
X273200D03*
X268900D03*
X264600D03*
X256000D03*
X260300D03*
X289100Y-9700D03*
X284800D03*
X280500D03*
X276200D03*
X271900D03*
X267600D03*
X263300D03*
X254700D03*
X259000D03*
X241500Y8500D03*
X237200D03*
X232900D03*
X228600D03*
X224300D03*
X220000D03*
X215700D03*
X207100D03*
X211400D03*
X243900Y1900D03*
X239600D03*
X235300D03*
X231000D03*
X226700D03*
X222400D03*
X218100D03*
X209500D03*
X213800D03*
X247200Y-9700D03*
X242900D03*
X238600D03*
X234300D03*
X230000D03*
X225700D03*
X221400D03*
X212800D03*
X217100D03*
X247700Y-27300D03*
X243400D03*
X239100D03*
X234800D03*
X230500D03*
X226200D03*
X221900D03*
X213300D03*
X217600D03*
X351500Y-88000D03*
X205450Y38650D03*
X498343Y72857D03*
X498082Y89918D03*
X333556Y244044D03*
X275156Y204044D03*
X240844Y244044D03*
X525700Y38800D03*
X332720Y-73370D03*
X333650Y-66490D03*
X330320Y-39310D03*
X471800Y-81500D03*
X475900D03*
X479900Y-81600D03*
X472500Y-84400D03*
X476500Y-84300D03*
X481200Y-84400D03*
X422800Y-46600D03*
X443200Y-41400D03*
X286522Y116778D03*
X330300Y114300D03*
X318451Y106951D03*
X304900Y60700D03*
X298333Y31133D03*
X298258Y19758D03*
X275758D03*
X269600Y31400D03*
X205750Y31650D03*
X205350Y44650D03*
X204850Y51450D03*
X219870Y71970D03*
X219800Y82100D03*
X204750Y57450D03*
X159450Y-88450D03*
X174300Y-68700D03*
X167400Y-75800D03*
X177070Y-81930D03*
X143360Y41960D03*
X142440Y29960D03*
X142560Y26960D03*
Y23960D03*
X142660Y20960D03*
X135240Y53960D03*
X225544Y243544D03*
X225744Y240544D03*
Y237544D03*
X136700Y-87900D03*
X349200Y-79700D03*
X121000Y-42000D03*
X273736Y133836D03*
X479600Y-12500D03*
X503900Y-5900D03*
X58792Y173708D03*
X82116Y172284D03*
X142743Y130843D03*
X314600Y131337D03*
X316525Y129412D03*
X142857Y136843D03*
X141200Y113600D03*
X143400Y11100D03*
X218000Y-88300D03*
X191900Y-49700D03*
Y-22100D03*
Y25650D03*
Y54400D03*
X191930Y86830D03*
X191900Y155300D03*
Y186000D03*
X228890Y182290D03*
X205500Y186000D03*
X320000Y110888D03*
X321900Y83329D03*
X131100Y124843D03*
X128416Y25984D03*
X336000Y-34000D03*
X373000Y-21684D03*
X58988Y179688D03*
X81816Y184284D03*
X384100Y-62600D03*
X443000Y-53200D03*
X123500Y-95900D03*
X120700Y-97000D03*
X470500Y-89500D03*
X473500Y-89400D03*
X476600D03*
X479500D03*
X141900Y-79400D03*
X77100Y39000D03*
X81902Y74402D03*
X77200Y43960D03*
X82102Y86402D03*
X237400Y234044D03*
X286600Y128600D03*
X288006Y136994D03*
X304900Y97000D03*
X319900Y104500D03*
X27800Y246500D03*
X52300Y232300D03*
X253000Y129100D03*
X199800Y192300D03*
X249000Y45000D03*
X267736Y134036D03*
X251000Y30600D03*
X265500Y130600D03*
X297900Y104982D03*
Y48900D03*
X243200Y117000D03*
X244082Y104982D03*
X224800Y131100D03*
X243215D03*
X234300Y83300D03*
X247300Y131100D03*
X300200Y44100D03*
Y108919D03*
X144900Y38500D03*
X205600Y197700D03*
X261400Y129200D03*
X197900Y49500D03*
X199800Y189600D03*
X302700Y114800D03*
X199800Y195000D03*
X305100Y112800D03*
X199800Y200400D03*
X304100Y103000D03*
X199800Y203100D03*
X144900Y33700D03*
X306700Y28600D03*
X159450Y-70800D03*
X135410Y-73294D03*
X123400Y-51400D03*
X317640Y95140D03*
X336400Y500D03*
X123300Y-48600D03*
X336400Y102800D03*
X324000Y-19900D03*
X325925Y-17975D03*
X31800Y246500D03*
X279400Y106700D03*
Y145600D03*
X252950Y44650D03*
X264100Y133500D03*
X253500Y32400D03*
X261200Y132500D03*
X84600Y64800D03*
X77100Y23960D03*
X84100Y217600D03*
X75500D03*
X79800D03*
X71600Y224400D03*
Y215800D03*
Y220100D03*
X65600Y223400D03*
Y214800D03*
Y219100D03*
X38700Y231100D03*
Y222500D03*
Y226800D03*
X42300Y229800D03*
Y221200D03*
Y225500D03*
X41900Y244800D03*
Y240500D03*
X38200Y245200D03*
Y240900D03*
X20400Y247700D03*
Y239100D03*
Y243400D03*
X32100Y197000D03*
X28200Y186100D03*
X19600D03*
X23900D03*
X54200Y192200D03*
X66300Y192600D03*
X57700D03*
X62000D03*
X66700Y185000D03*
X58100D03*
X62400D03*
X74800Y188200D03*
X66200D03*
X70500D03*
X82100Y192900D03*
X73500D03*
X77800D03*
X69300Y181500D03*
Y172900D03*
X74900Y182800D03*
Y174200D03*
Y167500D03*
Y158900D03*
Y163200D03*
X68800Y167700D03*
Y159100D03*
Y163400D03*
X50400Y116700D03*
Y108100D03*
Y112400D03*
X46300Y118000D03*
Y109400D03*
Y113700D03*
X75600Y130800D03*
X67000D03*
X71300D03*
X68600Y134900D03*
X61100Y138100D03*
Y129500D03*
Y133800D03*
X80400Y101700D03*
Y93100D03*
Y97400D03*
X72000Y90800D03*
Y82200D03*
Y86500D03*
X75800Y97200D03*
Y88600D03*
Y92900D03*
X69000Y101900D03*
Y93300D03*
Y97600D03*
X63200Y103100D03*
Y94500D03*
Y98800D03*
X61800Y88500D03*
Y79900D03*
Y84200D03*
X54700Y86300D03*
Y77700D03*
Y82000D03*
X68100Y85600D03*
Y77000D03*
Y81300D03*
X68800Y63600D03*
Y55000D03*
Y59300D03*
X56300Y59200D03*
Y50600D03*
Y54900D03*
X47200Y54800D03*
Y46200D03*
Y50500D03*
X74200Y76700D03*
Y72400D03*
X61500Y75100D03*
Y66500D03*
Y70800D03*
X53300Y73400D03*
Y64800D03*
Y69100D03*
X46700Y71700D03*
Y63100D03*
Y67400D03*
X37900Y69400D03*
Y60800D03*
Y65100D03*
X30000Y68700D03*
Y60100D03*
Y64400D03*
X22200Y66200D03*
Y57600D03*
Y61900D03*
X36700Y35900D03*
Y27300D03*
Y31600D03*
X55700Y35300D03*
Y26700D03*
Y31000D03*
X64700Y37600D03*
Y29000D03*
Y33300D03*
X64300Y25600D03*
Y17000D03*
Y21300D03*
X71400Y3300D03*
Y-5300D03*
Y-1000D03*
X66500Y400D03*
Y-8200D03*
Y-3900D03*
X60500Y-2600D03*
Y-11200D03*
Y-6900D03*
X61700Y-37100D03*
Y-45700D03*
Y-41400D03*
X67900Y-36300D03*
Y-44900D03*
Y-40600D03*
X73200Y-35800D03*
Y-44400D03*
Y-40100D03*
X73600Y-54700D03*
Y-63300D03*
Y-59000D03*
X67300Y-55900D03*
Y-64500D03*
Y-60200D03*
X59800Y-55800D03*
Y-64400D03*
Y-60100D03*
X45800Y-60500D03*
Y-69100D03*
Y-64800D03*
X39600Y-59000D03*
Y-67600D03*
Y-63300D03*
X43100Y-48800D03*
Y-57400D03*
Y-53100D03*
X46700Y-43900D03*
Y-52500D03*
Y-48200D03*
X54800Y-93000D03*
X50500D03*
X38600Y-95400D03*
X42900D03*
X43700Y-90700D03*
X35100D03*
X39400D03*
X28200Y-90300D03*
X19600D03*
X23900D03*
X33500Y-95000D03*
X24900D03*
X29200D03*
X17500Y-94500D03*
X13200D03*
X46200Y93600D03*
X37600D03*
X41900D03*
X25100Y100800D03*
X16500D03*
X20800D03*
X46300Y99400D03*
X37700D03*
X42000D03*
X22300Y233000D03*
X56700Y255200D03*
X52400D03*
X61000D03*
X65300D03*
X69600D03*
X73900D03*
X78200D03*
X82500D03*
X86800D03*
X13600Y254700D03*
X17900D03*
X22200D03*
X26500D03*
X30800D03*
X35100D03*
X39400D03*
X43700D03*
X81300Y231600D03*
X77000D03*
X85600D03*
X80600Y222800D03*
X76300D03*
X84900D03*
X74300Y211100D03*
X70000D03*
X78600D03*
X82900D03*
X87200D03*
X14400Y75900D03*
Y80200D03*
X47300Y222700D03*
Y227000D03*
X56300Y-6600D03*
X56748Y161748D03*
X47300Y218400D03*
Y214100D03*
Y209800D03*
Y205500D03*
Y201200D03*
X56972Y167728D03*
X68348Y150352D03*
X64557Y125643D03*
X64503Y122203D03*
Y119203D03*
X64660Y107360D03*
X64140Y48960D03*
X77940Y33960D03*
X64960Y9140D03*
X26800Y-62100D03*
X23700Y224100D03*
X39200Y-79000D03*
X204900Y135800D03*
X245700Y133800D03*
X80300Y161900D03*
X77743Y121843D03*
G54D22*
X507063Y-33417D03*
G54D13*
X525339Y-24600D03*
X515339D03*
X525339Y-14600D03*
X515339D03*
X355200Y235400D03*
Y225400D03*
Y205400D03*
Y215400D03*
X256900Y155300D03*
X246900D03*
X266900D03*
X276900D03*
X328300Y46734D03*
Y56734D03*
X216900Y155300D03*
X236900D03*
X226900D03*
X328300Y36734D03*
X206900Y155300D03*
X515339Y-4600D03*
X525339D03*
Y5400D03*
X515339D03*
X355200Y195400D03*
G54D23*
X518874Y-51921D03*
X495252D03*
G54D14*
X350400Y-48500D03*
Y-58500D03*
G54D15*
Y-68500D03*
G54D24*
X69800Y245500D03*
Y240500D03*
X64800Y245500D03*
Y240500D03*
X59800Y245500D03*
Y240500D03*
X54800Y245500D03*
Y240500D03*
X49800Y245500D03*
Y240500D03*
G54D16*
X35540Y183373D03*
Y20743D03*
G54D25*
X288300Y-67470D03*
X418100Y-86100D03*
G54D26*
G01X191900Y54400D02*
Y83800D01*
X191930Y83830D01*
Y86830D01*
G01X191900Y54400D02*
Y25650D01*
G01Y186000D02*
Y155300D01*
G01D02*
Y152100D01*
X191930Y152070D01*
Y124400D01*
G01D02*
Y86830D01*
G01X131100Y124843D02*
X191487D01*
X191930Y124400D01*
G01X128416Y25984D02*
Y122159D01*
X131100Y124843D01*
G01X191900Y25650D02*
Y-22100D01*
G01Y-49700D02*
X218000Y-75800D01*
Y-88300D01*
G54D17*
X35540Y172743D03*
Y162113D03*
Y151483D03*
Y140853D03*
X24520Y177863D03*
Y167233D03*
Y156603D03*
Y145973D03*
X35540Y10113D03*
Y-517D03*
Y-11147D03*
Y-21777D03*
X24520Y15233D03*
Y4603D03*
Y-6027D03*
Y-16657D03*
G54D27*
G01X4200Y-100547D02*
X535381D01*
G03X545381Y-90547I0J10000D01*
G01Y251353D01*
G03X535381Y261353I-10000J0D01*
G01X4200D01*
G03X-5800Y251353I0J-10000D01*
G01Y-90547D01*
G03X4200Y-100547I10000J0D01*
G01X336400Y102800D02*
Y500D01*
G01D02*
Y-24800D01*
X321100Y-40100D01*
X131800D01*
X123300Y-48600D01*
G54D18*
X30030Y210143D03*
Y113293D03*
Y47513D03*
Y-49337D03*
G54D28*
G01X479600Y-12500D02*
X486800Y-19700D01*
X520239D01*
X525339Y-14600D01*
G01X503900Y-5900D02*
X512600Y-14600D01*
X515339D01*
G01X58792Y173708D02*
Y175092D01*
X59900Y176200D01*
X71100D01*
X72559Y177659D01*
X81166D01*
X81816Y177009D01*
Y172284D01*
X82116D01*
G01X314600Y131337D02*
Y153200D01*
X261100Y206700D01*
X194500D01*
X181087Y193287D01*
Y144600D01*
X169487Y133000D01*
X144900D01*
X142743Y130843D01*
G01X316525Y129412D02*
X316900Y129787D01*
Y152668D01*
X261468Y208100D01*
X194000D01*
X179837Y193937D01*
Y145180D01*
X169257Y134600D01*
X145100D01*
X142857Y136843D01*
G01X58988Y179688D02*
Y178362D01*
X59900Y177450D01*
X70582D01*
X72041Y178909D01*
X81166D01*
X81816Y179559D01*
Y184284D01*
G01X13512Y134778D02*
X14561Y136014D01*
X24520Y145973D01*
G01Y-16657D02*
X13512Y-27665D01*
Y-27852D01*
G01Y-18872D02*
X14310Y-18890D01*
X21858Y-11342D01*
X35251D01*
X35446Y-11147D01*
X35540D01*
G01Y183373D02*
X21275Y197638D01*
X13512D01*
G01Y152738D02*
X17377Y156603D01*
X24520D01*
G01X35540Y151483D02*
X35345Y151288D01*
X21388D01*
X15094Y144994D01*
X13512Y143758D01*
G01X24520Y177863D02*
X24307D01*
X13512Y188658D01*
G01X35540Y172743D02*
X35345Y172548D01*
X20642D01*
X13512Y179678D01*
G01X24520Y167233D02*
X16977D01*
X13512Y170698D01*
G01X24520Y-6027D02*
X17377D01*
X13512Y-9892D01*
G01X35540Y-517D02*
X35336Y-721D01*
X13720Y-703D01*
X13512Y-912D01*
G01X24520Y4603D02*
X16977D01*
X13512Y8068D01*
G01X35540Y10113D02*
X35345Y9918D01*
X20642D01*
X13512Y17048D01*
G01X24520Y15233D02*
X13725Y26028D01*
X13512D01*
G01X35540Y20743D02*
X21293Y34990D01*
X13512Y35008D01*
G01X35540Y-21777D02*
X20467Y-36850D01*
X13512Y-36832D01*
G01Y125798D02*
X20485D01*
X35540Y140853D01*
G01Y162113D02*
X35345Y161918D01*
X13712D01*
X13512Y161718D01*
G01X77100Y39000D02*
Y39700D01*
X78200Y40800D01*
X79900D01*
X81800Y42700D01*
Y50000D01*
X78800Y53000D01*
Y78245D01*
X80332Y79777D01*
X81252D01*
X81902Y79127D01*
Y74402D01*
G01X77200Y43960D02*
Y43050D01*
X78200Y42050D01*
X79382D01*
X80550Y43218D01*
Y49482D01*
X77550Y52482D01*
Y78763D01*
X79814Y81027D01*
X81252D01*
X81902Y81677D01*
Y86402D01*
X82102D01*
G01X237400Y234044D02*
Y216200D01*
X242900Y210700D01*
X263000D01*
X312300Y161400D01*
X337200D01*
X355200Y179400D01*
Y195400D01*
G01X288006Y136994D02*
Y130006D01*
X286600Y128600D01*
G01X304900Y97000D02*
X312400D01*
X319900Y104500D01*
G01X52300Y232300D02*
X42000D01*
X27800Y246500D01*
G01X199800Y192300D02*
X227600D01*
X251900Y168000D01*
Y130200D01*
X253000Y129100D01*
G01X267736Y134036D02*
Y64936D01*
X249000Y46200D01*
Y45000D01*
G01X265500Y130600D02*
Y124800D01*
X260006Y119306D01*
Y119247D01*
X260035Y61735D01*
X246100Y47800D01*
Y35500D01*
X251000Y30600D01*
G01X297900Y104982D02*
Y48900D01*
G01X243215Y131100D02*
X224800D01*
G01X244082Y104982D02*
X243200Y105864D01*
Y117000D01*
G01X247300Y131100D02*
Y96300D01*
X234300Y83300D01*
G01X300200Y108919D02*
Y44100D01*
G01X144900Y38500D02*
X158400D01*
X174500Y22400D01*
Y-15200D01*
X185700Y-26400D01*
X196300D01*
X201800Y-20900D01*
Y141800D01*
X206050Y146050D01*
X230150D01*
X236900Y152800D01*
Y155300D01*
G01X205600Y197700D02*
X209500Y193800D01*
X228600D01*
X261900Y160500D01*
Y142700D01*
X259000Y139800D01*
Y131600D01*
X261400Y129200D01*
G01X199800Y189600D02*
X197200Y187000D01*
Y50200D01*
X197900Y49500D01*
G01X302700Y114800D02*
Y151400D01*
X254400Y199700D01*
X204500D01*
X199800Y195000D01*
G01Y200400D02*
X201626D01*
X202426Y201200D01*
X255400D01*
X305100Y151500D01*
Y112800D01*
G01X199800Y203100D02*
X255900D01*
X307500Y151500D01*
Y106400D01*
X304100Y103000D01*
G01X144900Y33700D02*
X157700D01*
X170800Y20600D01*
Y-16600D01*
X184000Y-29800D01*
X288600D01*
X306700Y-11700D01*
Y28600D01*
G01X123400Y-51400D02*
X121800D01*
X121100Y-50700D01*
Y-45100D01*
X130000Y-36200D01*
X310600D01*
X315200Y-31600D01*
Y92700D01*
X317640Y95140D01*
G01X328300Y46734D02*
X322500Y40934D01*
Y-18400D01*
X324000Y-19900D01*
G01X328300Y56734D02*
X319200Y47634D01*
Y-19300D01*
X322500Y-22600D01*
X324799D01*
X325925Y-21474D01*
Y-17975D01*
G01X54800Y245500D02*
Y248000D01*
X52200Y250600D01*
X35900D01*
X31800Y246500D01*
G01X279400Y145600D02*
Y106700D01*
G01X264100Y133500D02*
Y137100D01*
X265500Y138500D01*
X268300D01*
X271100Y135700D01*
Y132400D01*
X272500Y131000D01*
Y64200D01*
X252950Y44650D01*
G01X253500Y32400D02*
Y29400D01*
X252500Y28400D01*
X247500D01*
X242700Y33200D01*
Y48100D01*
X257300Y62700D01*
Y120800D01*
X263400Y126900D01*
Y130300D01*
X261200Y132500D01*
G01X84600Y64800D02*
X86000Y63400D01*
Y32860D01*
X77100Y23960D01*
G01X245700Y133800D02*
X206900D01*
X204900Y135800D01*
G01X80300Y161900D02*
X77743Y159343D01*
Y121843D01*
G54D19*
X523078Y97411D03*
Y63395D03*
M02*
