G04 ================== begin FILE IDENTIFICATION RECORD ==================*
G04 Layout Name:  E:/0_Zeek_ST/Layout_V2/Zeekr_ST_0721A.brd*
G04 Film Name:    psm.art*
G04 File Format:  Gerber RS274X*
G04 File Origin:  Cadence Allegro 16.6-2015-S108*
G04 Origin Date:  Fri Jul 21 04:23:01 2023*
G04 *
G04 Layer:  VIA CLASS/SOLDERMASK_TOP*
G04 Layer:  PIN/SOLDERMASK_TOP*
G04 Layer:  PACKAGE GEOMETRY/SOLDERMASK_TOP*
G04 Layer:  DRAWING FORMAT/FILM_TITLE_BLOCK*
G04 Layer:  BOARD GEOMETRY/OUTLINE*
G04 Layer:  BOARD GEOMETRY/SOLDERMASK_TOP*
G04 *
G04 Offset:    (0.00 0.00)*
G04 Mirror:    No*
G04 Mode:      Positive*
G04 Rotation:  0*
G04 FullContactRelief:  No*
G04 UndefLineWidth:     8.00*
G04 ================== end FILE IDENTIFICATION RECORD ====================*
%FSLAX25Y25*MOIN*%
%IR0*IPPOS*OFA0.00000B0.00000*MIA0B0*SFA1.00000B1.00000*%
%ADD17R,.116X.074*%
%ADD18R,.074X.116*%
%ADD49C,.0413*%
%ADD29C,.063*%
%ADD51R,.0681X.126*%
%ADD42C,.029*%
%ADD21R,.169X.083*%
%ADD27R,.052X.052*%
%ADD13R,.07X.07*%
%ADD50R,.044X.044*%
%ADD22C,.069*%
%ADD28R,.063X.063*%
%ADD39O,.055X.15299*%
%ADD38O,.15299X.055*%
%ADD36C,.02756*%
%ADD23R,.069X.069*%
%ADD48R,.07X.011*%
%ADD47R,.011X.07*%
%AMMACRO45*
4,1,41,.0305,0.0,
.0305,.0091,
.030382,.010422,
.030036,.011703,
.029473,.012905,
.02871,.013991,
.02777,.014927,
.026682,.015687,
.025478,.016245,
.024196,.016587,
.0229,.0167,
-.0229,.0167,
-.024222,.016582,
-.025503,.016236,
-.026705,.015673,
-.027791,.01491,
-.028727,.01397,
-.029487,.012882,
-.030045,.011678,
-.030387,.010396,
-.0305,.0091,
-.0305,-.0091,
-.030382,-.010422,
-.030036,-.011703,
-.029473,-.012905,
-.02871,-.013991,
-.02777,-.014927,
-.026682,-.015687,
-.025478,-.016245,
-.024196,-.016587,
-.0229,-.0167,
.0229,-.0167,
.024222,-.016582,
.025503,-.016236,
.026705,-.015673,
.027791,-.01491,
.028727,-.01397,
.029487,-.012882,
.030045,-.011678,
.030387,-.010396,
.0305,-.0091,
.0305,0.0,
0.0*
%
%ADD45MACRO45*%
%ADD46R,.052X.06*%
%ADD52R,.06X.028*%
%ADD24R,.118X.217*%
%ADD41R,.024X.029*%
%ADD14R,.063X.034*%
%ADD40R,.029X.024*%
%ADD30C,.2008*%
%ADD25R,.04X.059*%
%ADD11R,.037X.035*%
%ADD10C,.129*%
%ADD20R,.085X.073*%
%ADD15R,.028X.067*%
%ADD12O,.039X.049*%
%ADD19R,.073X.085*%
%ADD16R,.067X.028*%
%ADD26R,.091X.059*%
%ADD32R,.0409X.0358*%
%ADD31R,.0358X.0409*%
%ADD55R,.06776X.02011*%
%ADD33O,.08465X.04134*%
%ADD53R,.02565X.01187*%
%ADD54R,.02565X.01975*%
%ADD44R,.07874X.03543*%
%ADD34O,.07284X.03937*%
%ADD43R,.03543X.07874*%
%ADD35R,.06575X.01378*%
%ADD37R,.06378X.02559*%
%ADD56C,.008*%
G75*
%LPD*%
G75*
G36*
G01X519141Y54812D02*
X526621D01*
Y59931D01*
X519141D01*
Y54812D01*
G37*
G36*
G01X535598D02*
X543078D01*
Y59931D01*
X535598D01*
Y54812D01*
G37*
G36*
G01X518747Y100875D02*
X526228D01*
Y105994D01*
X518747D01*
Y100875D01*
G37*
G36*
G01X535204D02*
X542684D01*
Y105994D01*
X535204D01*
Y100875D01*
G37*
G36*
G01X511661Y54812D02*
X519141D01*
Y59931D01*
X511661D01*
Y54812D01*
G37*
G36*
G01X511267Y100875D02*
X518747D01*
Y105994D01*
X511267D01*
Y100875D01*
G37*
G54D10*
X10180Y-83393D03*
Y243800D03*
X510800Y-83393D03*
Y243800D03*
G54D20*
X211500Y126500D03*
Y137900D03*
G54D11*
X486449Y-13028D03*
X492551D03*
G54D12*
X354300Y-84530D03*
X360300D03*
X348020D03*
X342020D03*
X277241Y-51330D03*
X283241D03*
X32800Y233000D03*
X26800D03*
X32800Y-72430D03*
X26800D03*
X526700Y29700D03*
X520700D03*
X32800Y238700D03*
X26800D03*
X32800Y-78130D03*
X26800D03*
G54D30*
X30030Y210143D03*
Y113293D03*
Y47513D03*
Y-49337D03*
G54D21*
X298040Y-42037D03*
Y-57023D03*
G54D31*
X52760Y151953D03*
X47240D03*
X52760Y-35120D03*
X47240D03*
X30760Y88253D03*
X25240D03*
X52760Y161748D03*
X47240D03*
X52760Y173708D03*
X47240D03*
X52760Y179688D03*
X47240D03*
X30760Y82273D03*
X25240D03*
X52760Y185668D03*
X47240D03*
X52760Y18700D03*
X47240D03*
X52760Y12720D03*
X47240D03*
X52760Y6740D03*
X47240D03*
X52760Y760D03*
X47240D03*
X52760Y-5220D03*
X47240D03*
X52760Y-11200D03*
X47240D03*
X52760Y-29140D03*
X47240D03*
X52760Y-17180D03*
X47240D03*
X52760Y139993D03*
X47240D03*
X52760Y167728D03*
X47240D03*
X233650Y248034D03*
X228130D03*
X47240Y145973D03*
X52760D03*
X165290Y-68700D03*
X170810D03*
X192870Y-79020D03*
X198390D03*
Y-85000D03*
X192870D03*
X52760Y-23160D03*
X47240D03*
G54D40*
X501800Y89918D03*
X505800D03*
X501800Y72857D03*
X505800D03*
X232890Y234544D03*
X228890D03*
Y178800D03*
X232890D03*
Y175800D03*
X228890D03*
X232890Y243544D03*
X228890D03*
X209172Y54450D03*
X213172D03*
X326300Y85300D03*
X330300D03*
X326300Y88800D03*
X330300D03*
X326300Y71700D03*
X330300D03*
X326300Y92500D03*
X330300D03*
X326300Y111400D03*
X330300D03*
X326300Y108400D03*
X330300D03*
X213172Y47650D03*
X209172D03*
X213172Y80830D03*
X209172D03*
X213172Y31650D03*
X209172D03*
X213172Y28650D03*
X209172D03*
X213172Y38650D03*
X209172D03*
X213172Y41650D03*
X209172D03*
X213172Y89830D03*
X209172D03*
X213172Y92830D03*
X209172D03*
X213172Y95830D03*
X209172D03*
X330300Y105400D03*
X326300D03*
X213172Y116400D03*
X209172D03*
X359300Y-80780D03*
X355300D03*
X283150Y-57900D03*
X279150D03*
X213172Y44650D03*
X209172D03*
X326300Y76800D03*
X330300D03*
X326300Y80700D03*
X330300D03*
X213172Y34650D03*
X209172D03*
Y25650D03*
X213172D03*
Y120700D03*
X209172D03*
Y86830D03*
X213172D03*
X163450Y-81800D03*
X159450D03*
X27800Y243600D03*
X31800D03*
X163450Y-84800D03*
X159450D03*
X330300Y102400D03*
X326300D03*
X487600Y-24600D03*
X491600D03*
X487600Y-20300D03*
X491600D03*
X487600Y-27600D03*
X491600D03*
X487600Y-30600D03*
X491600D03*
X68348Y26140D03*
X72348D03*
X68348Y23140D03*
X72348D03*
X68348Y20140D03*
X72348D03*
Y12140D03*
X68348D03*
X213172Y51450D03*
X209172D03*
X138892Y41960D03*
X134892D03*
X138892Y35960D03*
X134892D03*
Y29960D03*
X138892D03*
X134892Y23960D03*
X138892D03*
X134892Y20960D03*
X138892D03*
X134892Y26960D03*
X138892D03*
X72348Y48960D03*
X68348D03*
X72348Y110557D03*
X68348D03*
Y125643D03*
X72348D03*
X68348Y122203D03*
X72348D03*
X68348Y119203D03*
X72348D03*
X134892Y124843D03*
X138892D03*
X134892Y127843D03*
X138892D03*
X134892Y121843D03*
X138892D03*
X134892Y118843D03*
X138892D03*
X72348Y146843D03*
X68348D03*
X138892Y133843D03*
X134892D03*
X138892Y139843D03*
X134892D03*
X138892Y130843D03*
X134892D03*
X138892Y136843D03*
X134892D03*
X138892Y38960D03*
X134892D03*
X138892Y32960D03*
X134892D03*
X72348Y9140D03*
X68348D03*
X72348Y16140D03*
X68348D03*
X72348Y107360D03*
X68348D03*
X72348Y114860D03*
X68348D03*
X232890Y240544D03*
X228890D03*
X232890Y237544D03*
X228890D03*
X232890Y199044D03*
X228890D03*
X491600Y-17300D03*
X487600D03*
X159450Y-78800D03*
X163450D03*
Y-75800D03*
X159450D03*
X209172Y77830D03*
X213172D03*
Y57450D03*
X209172D03*
Y113400D03*
X213172D03*
X209172Y100257D03*
X213172D03*
G54D22*
X350400Y-48500D03*
Y-58500D03*
G54D13*
X525339Y-24600D03*
X515339D03*
X525339Y-14600D03*
X515339D03*
X355200Y235400D03*
Y225400D03*
Y205400D03*
Y215400D03*
X256900Y155300D03*
X246900D03*
X266900D03*
X276900D03*
X328300Y46734D03*
Y56734D03*
X216900Y155300D03*
X236900D03*
X226900D03*
X328300Y36734D03*
X206900Y155300D03*
X515339Y-4600D03*
X525339D03*
Y5400D03*
X515339D03*
X355200Y195400D03*
G54D32*
X280030Y-85560D03*
Y-80040D03*
X313350D03*
Y-85560D03*
X286950Y-80040D03*
Y-85560D03*
X159700Y-59990D03*
Y-65510D03*
X227110Y136234D03*
Y141754D03*
G54D14*
X94565Y246832D03*
X112675D03*
X94565Y238368D03*
X112675D03*
G54D41*
X261736Y136994D03*
Y140994D03*
X270736Y136994D03*
Y140994D03*
X267736Y136994D03*
Y140994D03*
X264736Y136994D03*
Y140994D03*
X256600D03*
Y136994D03*
X302600Y23758D03*
Y19758D03*
X277300Y136994D03*
Y140994D03*
X272300Y23758D03*
Y19758D03*
X245300Y23758D03*
Y19758D03*
X231600Y136994D03*
Y140994D03*
X234600Y136994D03*
Y140994D03*
X243600Y136994D03*
Y140994D03*
X240600Y136994D03*
Y140994D03*
X246600Y136994D03*
Y140994D03*
X237600D03*
Y136994D03*
X105120Y-41030D03*
Y-45030D03*
Y-79530D03*
Y-83530D03*
X111120Y-45030D03*
Y-41030D03*
X108120Y-45030D03*
Y-41030D03*
X96120Y-45030D03*
Y-41030D03*
X282500Y136994D03*
Y140994D03*
X219100D03*
Y136994D03*
X250600Y140994D03*
Y136994D03*
X99120Y-45030D03*
Y-41030D03*
X111120Y-83530D03*
Y-79530D03*
X108120Y-83530D03*
Y-79530D03*
X96120Y-83530D03*
Y-79530D03*
X99120Y-83530D03*
Y-79530D03*
X102120Y-41030D03*
Y-45030D03*
Y-79530D03*
Y-83530D03*
X85470Y82402D03*
Y78402D03*
X121154D03*
Y74402D03*
X85470Y70402D03*
Y74402D03*
Y90402D03*
Y86402D03*
X121154Y82402D03*
Y86402D03*
X85470Y180284D03*
Y176284D03*
X121154Y176360D03*
Y172360D03*
Y180360D03*
Y184360D03*
X85470Y188284D03*
Y184284D03*
Y168284D03*
Y172284D03*
X253600Y140994D03*
Y136994D03*
X222100Y140994D03*
Y136994D03*
X248300Y23758D03*
Y19758D03*
X273736Y140994D03*
Y136994D03*
G54D23*
X350400Y-68500D03*
G54D50*
X177680Y-61250D03*
X167020D03*
G54D33*
X523078Y97411D03*
Y63395D03*
G54D15*
X315190Y-45230D03*
X320190D03*
X325190D03*
X330190D03*
Y-66490D03*
X325190D03*
X320190D03*
X315190D03*
X436800Y-81630D03*
X431800D03*
X426800D03*
X421800D03*
Y-60370D03*
X426800D03*
X431800D03*
X436800D03*
G54D24*
X373106Y-58500D03*
X411294D03*
G54D42*
X422800Y-51200D03*
X426800D03*
X434100D03*
X438100D03*
X329190Y-73370D03*
X325190D03*
Y-77800D03*
X329190D03*
X521700Y34700D03*
X525700D03*
G54D51*
X187220Y-65300D03*
X196680D03*
G54D43*
X282890Y204044D03*
X315823Y171544D03*
X260823D03*
X310823D03*
X305823D03*
X300823D03*
X295823D03*
X290823D03*
X285823D03*
X280823D03*
X275823D03*
X270823D03*
X265823D03*
G54D34*
X539535Y97411D03*
Y63395D03*
G54D16*
X114250Y-16230D03*
Y-21230D03*
Y-26230D03*
Y-31230D03*
X92990D03*
Y-26230D03*
Y-21230D03*
Y-16230D03*
X114250Y-54730D03*
Y-59730D03*
Y-64730D03*
Y-69730D03*
X92990D03*
Y-64730D03*
Y-59730D03*
Y-54730D03*
G54D25*
X292357Y-67470D03*
X437693Y-41400D03*
G54D52*
X295400Y-86500D03*
Y-79100D03*
X306200D03*
Y-82800D03*
Y-86500D03*
X182900Y-78230D03*
Y-85630D03*
X172100D03*
Y-81930D03*
Y-78230D03*
G54D35*
X520046Y77450D03*
Y79419D03*
Y73513D03*
Y75482D03*
Y81387D03*
Y83356D03*
Y85324D03*
Y87293D03*
G54D44*
X323756Y244044D03*
X252890Y214044D03*
Y219044D03*
X323756Y239044D03*
Y234044D03*
Y229044D03*
Y224044D03*
Y219044D03*
Y214044D03*
Y209044D03*
Y204044D03*
Y199044D03*
Y194044D03*
Y189044D03*
Y184044D03*
Y179044D03*
X252890D03*
Y184044D03*
Y189044D03*
Y194044D03*
Y199044D03*
Y204044D03*
Y209044D03*
Y224044D03*
Y229044D03*
Y234044D03*
Y239044D03*
Y244044D03*
G54D53*
X492227Y75463D03*
Y77431D03*
Y81368D03*
Y83337D03*
X495573D03*
Y81368D03*
Y77431D03*
Y75463D03*
G54D26*
X302396Y-67470D03*
X427654Y-41400D03*
G54D17*
X475700Y-74900D03*
Y-63900D03*
G54D54*
X492227Y79400D03*
X495573D03*
G54D45*
X211172Y109820D03*
Y103910D03*
G54D36*
X525046Y69025D03*
Y91781D03*
G54D27*
X331334Y-84530D03*
X320310D03*
X454112Y-63000D03*
X443088D03*
X350400Y-25588D03*
Y-36612D03*
X51088Y-84680D03*
X62112D03*
X51088Y-75700D03*
X62112D03*
X144390Y-67192D03*
Y-56168D03*
X126430Y-17648D03*
Y-28672D03*
X135410D03*
Y-17648D03*
X126430Y-56168D03*
Y-67192D03*
X135410D03*
Y-56168D03*
G54D18*
X456800Y-80000D03*
X445800D03*
G54D37*
X520046Y67805D03*
Y70954D03*
Y89852D03*
Y93001D03*
G54D55*
X84919Y8960D03*
Y13960D03*
Y18960D03*
Y23960D03*
Y28960D03*
Y33960D03*
Y38960D03*
Y43960D03*
Y48960D03*
Y53960D03*
X122321D03*
Y48960D03*
Y43960D03*
Y38960D03*
Y33960D03*
Y28960D03*
Y23960D03*
Y18960D03*
Y13960D03*
Y8960D03*
X84919Y106843D03*
Y111843D03*
Y116843D03*
Y121843D03*
Y126843D03*
Y131843D03*
Y136843D03*
Y141843D03*
Y146843D03*
Y151843D03*
X122321D03*
Y146843D03*
Y141843D03*
Y136843D03*
Y131843D03*
Y126843D03*
Y121843D03*
Y116843D03*
Y111843D03*
Y106843D03*
G54D19*
X529400Y21900D03*
X518000D03*
G54D46*
X214322Y71970D03*
Y63310D03*
X208022Y71970D03*
Y63310D03*
G54D28*
X35540Y183373D03*
Y20743D03*
G54D56*
G01X4200Y-100547D02*
X535381D01*
G03X545381Y-90547I0J10000D01*
G01Y251353D01*
G03X535381Y261353I-10000J0D01*
G01X4200D01*
G03X-5800Y251353I0J-10000D01*
G01Y-90547D01*
G03X4200Y-100547I10000J0D01*
G54D47*
X235341Y122776D03*
X237310D03*
X239278D03*
X241247D03*
X243215D03*
X245184D03*
X247152D03*
X249121D03*
X251089D03*
X253058D03*
X255026D03*
X256995D03*
X258963D03*
X260932D03*
X262900D03*
X264869D03*
X266837D03*
X268806D03*
X270774D03*
X272743D03*
X274711D03*
X276680D03*
X278648D03*
X280617D03*
X282585D03*
X284554D03*
X286522D03*
X288491D03*
X290459D03*
X292428D03*
X294396D03*
X296365D03*
X298333D03*
X300302D03*
X302270D03*
X304239D03*
Y37976D03*
X302270D03*
X300302D03*
X298333D03*
X296365D03*
X294396D03*
X292428D03*
X290459D03*
X288491D03*
X286522D03*
X284554D03*
X282585D03*
X280617D03*
X278648D03*
X276680D03*
X274711D03*
X272743D03*
X270774D03*
X268806D03*
X266837D03*
X264869D03*
X262900D03*
X260932D03*
X258963D03*
X256995D03*
X255026D03*
X253058D03*
X251089D03*
X249121D03*
X247152D03*
X245184D03*
X243215D03*
X241247D03*
X239278D03*
X237310D03*
X235341D03*
G54D38*
X507063Y-33417D03*
G54D29*
X35540Y172743D03*
Y162113D03*
Y151483D03*
Y140853D03*
X24520Y177863D03*
Y167233D03*
Y156603D03*
Y145973D03*
X35540Y10113D03*
Y-517D03*
Y-11147D03*
Y-21777D03*
X24520Y15233D03*
Y4603D03*
Y-6027D03*
Y-16657D03*
G54D48*
X312190Y114825D03*
Y112856D03*
Y110888D03*
Y108919D03*
Y106951D03*
Y104982D03*
Y103014D03*
Y101045D03*
Y99077D03*
Y97108D03*
Y95140D03*
Y93171D03*
Y91203D03*
Y89234D03*
Y87266D03*
Y85297D03*
Y83329D03*
Y81360D03*
Y79392D03*
Y77423D03*
Y75455D03*
Y73486D03*
Y71518D03*
Y69549D03*
Y67581D03*
Y65612D03*
Y63644D03*
Y61675D03*
Y59707D03*
Y57738D03*
Y55770D03*
Y53801D03*
Y51833D03*
Y49864D03*
Y47896D03*
Y45927D03*
X227390D03*
Y47896D03*
Y49864D03*
Y51833D03*
Y53801D03*
Y55770D03*
Y57738D03*
Y59707D03*
Y61675D03*
Y63644D03*
Y65612D03*
Y67581D03*
Y69549D03*
Y71518D03*
Y73486D03*
Y75455D03*
Y77423D03*
Y79392D03*
Y81360D03*
Y83329D03*
Y85297D03*
Y87266D03*
Y89234D03*
Y91203D03*
Y93171D03*
Y95140D03*
Y97108D03*
Y99077D03*
Y101045D03*
Y103014D03*
Y104982D03*
Y106951D03*
Y108919D03*
Y110888D03*
Y112856D03*
Y114825D03*
G54D39*
X518874Y-51921D03*
X495252D03*
G54D49*
X69800Y245500D03*
Y240500D03*
X64800Y245500D03*
Y240500D03*
X59800Y245500D03*
Y240500D03*
X54800Y245500D03*
Y240500D03*
X49800Y245500D03*
Y240500D03*
M02*
