G04 ================== begin FILE IDENTIFICATION RECORD ==================*
G04 Layout Name:  E:/0_Zeek_ST/Layout_V2/Zeekr_ST_0721A.brd*
G04 Film Name:    pss.art*
G04 File Format:  Gerber RS274X*
G04 File Origin:  Cadence Allegro 16.6-2015-S108*
G04 Origin Date:  Fri Jul 21 04:23:01 2023*
G04 *
G04 Layer:  PACKAGE GEOMETRY/SILKSCREEN_TOP*
G04 Layer:  BOARD GEOMETRY/OUTLINE*
G04 Layer:  BOARD GEOMETRY/SILKSCREEN_TOP*
G04 *
G04 Offset:    (0.00 0.00)*
G04 Mirror:    No*
G04 Mode:      Positive*
G04 Rotation:  0*
G04 FullContactRelief:  No*
G04 UndefLineWidth:     8.00*
G04 ================== end FILE IDENTIFICATION RECORD ====================*
%FSLAX25Y25*MOIN*%
%IR0*IPPOS*OFA0.00000B0.00000*MIA0B0*SFA1.00000B1.00000*%
%ADD10C,.01*%
%ADD11C,.0001*%
%ADD12C,.001*%
%ADD13C,.005*%
%ADD14C,.008*%
%ADD15C,.006*%
%ADD16C,.0039*%
%ADD17C,.0059*%
%ADD18C,.00598*%
%ADD19C,.00787*%
G75*
%LPD*%
G75*
G36*
G01X29200Y251500D02*
Y251400D01*
X511600D01*
Y252100D01*
X543500D01*
X544800Y253400D01*
Y253800D01*
X542800Y255800D01*
Y257200D01*
X541400Y258600D01*
X540800D01*
X538800Y260600D01*
X536300D01*
X535700Y261200D01*
X511600D01*
Y261300D01*
X29200D01*
X3900D01*
X3500Y260900D01*
X1600D01*
X500Y259800D01*
X-800D01*
X-3500Y257100D01*
Y255700D01*
X-5000Y254200D01*
Y252600D01*
X28100D01*
X29200Y251500D01*
G37*
G36*
G01X29600Y-90600D02*
Y-90700D01*
X-3600D01*
X-3900Y-91000D01*
Y-95400D01*
X-600Y-98700D01*
X900D01*
X1700Y-99500D01*
X4500D01*
X4800Y-99800D01*
Y-99900D01*
X5300Y-100400D01*
X29600D01*
Y-100500D01*
X512000D01*
Y-100400D01*
X512200Y-100200D01*
X534600D01*
X535200Y-99600D01*
X538700D01*
X539800Y-98500D01*
X540800D01*
X541500Y-97800D01*
Y-97500D01*
X543900Y-95100D01*
Y-94100D01*
X544700Y-93300D01*
Y-91100D01*
X544600Y-91000D01*
X512000D01*
Y-90600D01*
X29600D01*
G37*
G36*
G01X50041Y201442D02*
G03I-2758J0D01*
G37*
G36*
G01X48141Y22712D02*
G03I-2758J0D01*
G37*
G36*
G01X30076Y238696D02*
G03I-276J0D01*
G37*
G36*
G01Y-78134D02*
G03I-276J0D01*
G37*
G36*
G01X242470Y127276D02*
Y128276D01*
X243970D01*
Y127276D01*
X242470D01*
G37*
G36*
G01X262150D02*
Y128276D01*
X263650D01*
Y127276D01*
X262150D01*
G37*
G36*
G01X281840D02*
Y128276D01*
X283340D01*
Y127276D01*
X281840D01*
G37*
G36*
G01X301520D02*
Y128276D01*
X303020D01*
Y127276D01*
X301520D01*
G37*
G36*
G01X317690Y99826D02*
Y98326D01*
X316690D01*
Y99826D01*
X317690D01*
G37*
G36*
G01Y80146D02*
Y78646D01*
X316690D01*
Y80146D01*
X317690D01*
G37*
G36*
G01Y60456D02*
Y58956D01*
X316690D01*
Y60456D01*
X317690D01*
G37*
G36*
G01X299550Y33476D02*
Y32476D01*
X301050D01*
Y33476D01*
X299550D01*
G37*
G36*
G01X279870D02*
Y32476D01*
X281370D01*
Y33476D01*
X279870D01*
G37*
G36*
G01X260180D02*
Y32476D01*
X261680D01*
Y33476D01*
X260180D01*
G37*
G36*
G01X240500D02*
Y32476D01*
X242000D01*
Y33476D01*
X240500D01*
G37*
G36*
G01X221890Y58486D02*
Y56986D01*
X222890D01*
Y58486D01*
X221890D01*
G37*
G36*
G01Y78176D02*
Y76676D01*
X222890D01*
Y78176D01*
X221890D01*
G37*
G36*
G01Y97856D02*
Y96356D01*
X222890D01*
Y97856D01*
X221890D01*
G37*
G36*
G01X79530Y8210D02*
Y9710D01*
X80530D01*
Y8210D01*
X79530D01*
G37*
G36*
G01X127710Y53210D02*
Y54710D01*
X126710D01*
Y53210D01*
X127710D01*
G37*
G36*
G01X79530Y106093D02*
Y107593D01*
X80530D01*
Y106093D01*
X79530D01*
G37*
G36*
G01X127710Y151093D02*
Y152593D01*
X126710D01*
Y151093D01*
X127710D01*
G37*
G54D10*
G01X441400Y-55000D02*
G03I1200J-1500D01*
G01X51600Y222400D02*
X48500Y225500D01*
X45500Y222500D01*
X45600Y222400D01*
X51600D01*
G01X218816Y128344D02*
X221916Y125244D01*
X224916Y128244D01*
X224816Y128344D01*
X218816D01*
G01X237456Y244016D02*
X240556Y247116D01*
X237556Y250116D01*
X237456Y250016D01*
Y244016D01*
G01X340956Y233116D02*
X344056Y236216D01*
X341056Y239216D01*
X340956Y239116D01*
Y233116D01*
G01X174700Y217300D02*
X155700Y229500D01*
G01X149600Y217300D02*
X174400D01*
X162100Y242200D01*
X149500Y217300D01*
G54D11*
G01X249171Y193300D02*
G03I-91J0D01*
G01X249120Y193270D02*
G03I-20J0D01*
G01X249110D02*
G03I-20J0D01*
G01D02*
G03I-10J0D01*
G01X335331Y193160D02*
G03I-91J0D01*
G01X335280Y193130D02*
G03I-20J0D01*
G01X335270D02*
G03I-20J0D01*
G01D02*
G03I-10J0D01*
G01X364971Y-32340D02*
G03I-91J0D01*
G01X364920Y-32370D02*
G03I-20J0D01*
G01X364910D02*
G03I-20J0D01*
G01D02*
G03I-10J0D01*
G01X275261Y-32330D02*
G03I-91J0D01*
G01X275210Y-32360D02*
G03I-20J0D01*
G01X275200D02*
G03I-20J0D01*
G01D02*
G03I-10J0D01*
G01X445671Y193490D02*
G03I-91J0D01*
G01X445620Y193460D02*
G03I-20J0D01*
G01X445610D02*
G03I-20J0D01*
G01D02*
G03I-10J0D01*
G01X455621Y-32310D02*
G03I-91J0D01*
G01X455570Y-32340D02*
G03I-20J0D01*
G01X455560D02*
G03I-20J0D01*
G01D02*
G03I-10J0D01*
G54D12*
G01X249400Y193310D02*
G03I-410J0D01*
G01X249491Y193350D02*
G03I-391J0D01*
G01X249523Y193290D02*
G03I-383J0D01*
G01X249364Y193310D02*
G03I-284J0D01*
G01X249274D02*
G03I-194J0D01*
G01X249243Y193290D02*
G03I-153J0D01*
G01X249171Y193270D02*
G03I-71J0D01*
G01X250201D02*
G03I-1101J0D01*
G01X335560Y193170D02*
G03I-410J0D01*
G01X335651Y193210D02*
G03I-391J0D01*
G01X335683Y193150D02*
G03I-383J0D01*
G01X335524Y193170D02*
G03I-284J0D01*
G01X335434D02*
G03I-194J0D01*
G01X335403Y193150D02*
G03I-153J0D01*
G01X335331Y193130D02*
G03I-71J0D01*
G01X336361D02*
G03I-1101J0D01*
G01X365200Y-32330D02*
G03I-410J0D01*
G01X365291Y-32290D02*
G03I-391J0D01*
G01X365323Y-32350D02*
G03I-383J0D01*
G01X365164Y-32330D02*
G03I-284J0D01*
G01X365074D02*
G03I-194J0D01*
G01X365043Y-32350D02*
G03I-153J0D01*
G01X364971Y-32370D02*
G03I-71J0D01*
G01X366001D02*
G03I-1101J0D01*
G01X275490Y-32320D02*
G03I-410J0D01*
G01X275581Y-32280D02*
G03I-391J0D01*
G01X275613Y-32340D02*
G03I-383J0D01*
G01X275454Y-32320D02*
G03I-284J0D01*
G01X275364D02*
G03I-194J0D01*
G01X275333Y-32340D02*
G03I-153J0D01*
G01X275261Y-32360D02*
G03I-71J0D01*
G01X276291D02*
G03I-1101J0D01*
G01X445743Y193480D02*
G03I-153J0D01*
G01X445671Y193460D02*
G03I-71J0D01*
G01X445900Y193500D02*
G03I-410J0D01*
G01X445991Y193540D02*
G03I-391J0D01*
G01X446023Y193480D02*
G03I-383J0D01*
G01X445864Y193500D02*
G03I-284J0D01*
G01X445774D02*
G03I-194J0D01*
G01X446701Y193460D02*
G03I-1101J0D01*
G01X455693Y-32320D02*
G03I-153J0D01*
G01X455621Y-32340D02*
G03I-71J0D01*
G01X455850Y-32300D02*
G03I-410J0D01*
G01X455941Y-32260D02*
G03I-391J0D01*
G01X455973Y-32320D02*
G03I-383J0D01*
G01X455814Y-32300D02*
G03I-284J0D01*
G01X455724D02*
G03I-194J0D01*
G01X456651Y-32340D02*
G03I-1101J0D01*
G54D13*
G01X250465Y193280D02*
G03I-1375J0D01*
G01X250080Y193330D02*
G03I-950J0D01*
G01X249686Y193310D02*
G03I-626J0D01*
G01X250182Y193350D02*
G03I-1132J0D01*
G01X336625Y193140D02*
G03I-1375J0D01*
G01X336342Y193210D02*
G03I-1132J0D01*
G01X336240Y193190D02*
G03I-950J0D01*
G01X335846Y193170D02*
G03I-626J0D01*
G01X366265Y-32360D02*
G03I-1375J0D01*
G01X365982Y-32290D02*
G03I-1132J0D01*
G01X365880Y-32310D02*
G03I-950J0D01*
G01X365486Y-32330D02*
G03I-626J0D01*
G01X276555Y-32350D02*
G03I-1375J0D01*
G01X276272Y-32280D02*
G03I-1132J0D01*
G01X276170Y-32300D02*
G03I-950J0D01*
G01X275776Y-32320D02*
G03I-626J0D01*
G01X446965Y193470D02*
G03I-1375J0D01*
G01X446682Y193540D02*
G03I-1132J0D01*
G01X446580Y193520D02*
G03I-950J0D01*
G01X446186Y193500D02*
G03I-626J0D01*
G01X456915Y-32330D02*
G03I-1375J0D01*
G01X456632Y-32260D02*
G03I-1132J0D01*
G01X456530Y-32280D02*
G03I-950J0D01*
G01X456136Y-32300D02*
G03I-626J0D01*
G01X340500Y8200D02*
X340000D01*
X339000Y7200D01*
X331000D01*
X330500Y6700D01*
G01X270000Y136700D02*
Y134200D01*
X271500Y132700D01*
G01X279150Y89310D02*
Y86310D01*
G01X253000Y36700D02*
Y38200D01*
X255000Y40200D01*
G01X331150Y-73290D02*
X332650D01*
G01X244000Y2000D02*
Y500D01*
G01X491752Y-70421D02*
X549752D01*
Y-33421D01*
X491752D01*
Y-70421D01*
G01X549189Y-69638D02*
X492496D01*
Y-34204D01*
X549189D01*
Y-69638D01*
G01X157450Y-77300D02*
X160450D01*
G01X161150Y-78000D02*
Y-79600D01*
G01X161750Y-78000D02*
Y-79600D01*
G01X162450Y-77300D02*
X165450D01*
Y-80300D01*
X162450D01*
G01X160450D02*
X157450D01*
Y-77300D01*
G01X165450D02*
X162450D01*
G01X161750Y-76600D02*
Y-75000D01*
G01X161150Y-76600D02*
Y-75000D01*
G01X160450Y-77300D02*
X157450D01*
Y-74300D01*
X160450D01*
G01X162450D02*
X165450D01*
Y-77300D01*
G01X207172Y79330D02*
X210172D01*
G01X210872Y78630D02*
Y77030D01*
G01X211472Y78630D02*
Y77030D01*
G01X212172Y79330D02*
X215172D01*
Y76330D01*
X212172D01*
G01X210172D02*
X207172D01*
Y79330D01*
G01X215172Y55950D02*
X212172D01*
G01X211472Y56650D02*
Y58250D01*
G01X210872Y56650D02*
Y58250D01*
G01X210172Y55950D02*
X207172D01*
Y58950D01*
X210172D01*
G01X212172D02*
X215172D01*
Y55950D01*
G01X207172Y114900D02*
X210172D01*
G01X210872Y114200D02*
Y112600D01*
G01X211472Y114200D02*
Y112600D01*
G01X212172Y114900D02*
X215172D01*
Y111900D01*
X212172D01*
G01X210172D02*
X207172D01*
Y114900D01*
G01Y101757D02*
X210172D01*
G01X210872Y101057D02*
Y99457D01*
G01X211472Y101057D02*
Y99457D01*
G01X212172Y101757D02*
X215172D01*
Y98757D01*
X212172D01*
G01X210172D02*
X207172D01*
Y101757D01*
G01X173620Y-61250D02*
X175220D01*
G01X174420Y-59450D02*
Y-63050D01*
G01X297360Y-76700D02*
X304240D01*
G01X301980Y-88900D02*
X304240D01*
G01X301980Y-86740D02*
Y-88900D01*
G01X299620Y-86740D02*
X301980D01*
G01X299620Y-88900D02*
Y-86740D01*
G01X297360Y-88900D02*
X299620D01*
G01X180940Y-88030D02*
X174060D01*
G01X176320Y-75830D02*
X174060D01*
G01X176320Y-77990D02*
Y-75830D01*
G01X178680Y-77990D02*
X176320D01*
G01X178680Y-75830D02*
Y-77990D01*
G01X180940Y-75830D02*
X178680D01*
G54D14*
G01X29400Y251400D02*
X511200D01*
Y251800D01*
X543400D01*
X544300Y252700D01*
Y253600D01*
X541700Y256200D01*
Y257300D01*
X539100Y259900D01*
X536700D01*
X535500Y261100D01*
X511300D01*
X511200Y261200D01*
Y261300D01*
X29400D01*
X29300Y261200D01*
X4100D01*
X3700Y260800D01*
X1800D01*
X100Y259100D01*
X-1200D01*
X-2900Y257400D01*
Y255600D01*
X-5300Y253200D01*
Y252400D01*
X-4800Y251900D01*
X29400D01*
Y251400D01*
G01X4200Y-100547D02*
X535381D01*
G03X545381Y-90547I0J10000D01*
G01Y251353D01*
G03X535381Y261353I-10000J0D01*
G01X4200D01*
G03X-5800Y251353I0J-10000D01*
G01Y-90547D01*
G03X4200Y-100547I10000J0D01*
G01X404300Y150200D02*
Y227200D01*
X534500D01*
Y150200D01*
X404300D01*
G01X87890Y-14135D02*
Y-11035D01*
X87430Y-11655D01*
G01Y-14135D02*
X88350D01*
G01X87890Y-52635D02*
Y-49535D01*
X87430Y-50155D01*
G01Y-52635D02*
X88350D01*
G01X513629Y64064D02*
X515598D01*
Y64458D01*
X514417Y65639D01*
X513629Y64852D01*
Y64064D01*
G01X549771Y63395D02*
Y97411D01*
X513236D01*
Y63395D01*
X549771D01*
G01X503500Y90718D02*
Y89118D01*
G01X504100Y90718D02*
Y89118D01*
G01X499800Y91418D02*
Y88418D01*
X507800D01*
Y91418D01*
X499800D01*
G01X503500Y73657D02*
Y72057D01*
G01X504100Y73657D02*
Y72057D01*
G01X499800Y74357D02*
Y71357D01*
X507800D01*
Y74357D01*
X499800D01*
G01X231190Y233744D02*
Y235344D01*
G01X230590Y233744D02*
Y235344D01*
G01X234890Y233044D02*
Y236044D01*
X226890D01*
Y233044D01*
X234890D01*
G01X230590Y179600D02*
Y178000D01*
G01X231190Y179600D02*
Y178000D01*
G01X226890Y180300D02*
Y177300D01*
X234890D01*
Y180300D01*
X226890D01*
G01X231190Y175000D02*
Y176600D01*
G01X230590Y175000D02*
Y176600D01*
G01X234890Y174300D02*
Y177300D01*
X226890D01*
Y174300D01*
X234890D01*
G01X231190Y242744D02*
Y244344D01*
G01X230590Y242744D02*
Y244344D01*
G01X234890Y242044D02*
Y245044D01*
X226890D01*
Y242044D01*
X234890D01*
G01X260936Y138694D02*
X262536D01*
G01X260936Y139294D02*
X262536D01*
G01X260236Y134994D02*
X263236D01*
Y142994D01*
X260236D01*
Y134994D01*
G01X269936Y138694D02*
X271536D01*
G01X269936Y139294D02*
X271536D01*
G01X269236Y134994D02*
X272236D01*
Y142994D01*
X269236D01*
Y134994D01*
G01X266936Y138694D02*
X268536D01*
G01X266936Y139294D02*
X268536D01*
G01X266236Y134994D02*
X269236D01*
Y142994D01*
X266236D01*
Y134994D01*
G01X263936Y138694D02*
X265536D01*
G01X263936Y139294D02*
X265536D01*
G01X263236Y134994D02*
X266236D01*
Y142994D01*
X263236D01*
Y134994D01*
G01X210872Y55250D02*
Y53650D01*
G01X211472Y55250D02*
Y53650D01*
G01X207172Y55950D02*
Y52950D01*
X215172D01*
Y55950D01*
X207172D01*
G01X257400Y139294D02*
X255800D01*
G01X257400Y138694D02*
X255800D01*
G01X258100Y142994D02*
X255100D01*
Y134994D01*
X258100D01*
Y142994D01*
G01X328000Y86100D02*
Y84500D01*
G01X328600Y86100D02*
Y84500D01*
G01X324300Y86800D02*
Y83800D01*
X332300D01*
Y86800D01*
X324300D01*
G01X328000Y89600D02*
Y88000D01*
G01X328600Y89600D02*
Y88000D01*
G01X324300Y90300D02*
Y87300D01*
X332300D01*
Y90300D01*
X324300D01*
G01X328000Y72500D02*
Y70900D01*
G01X328600Y72500D02*
Y70900D01*
G01X324300Y73200D02*
Y70200D01*
X332300D01*
Y73200D01*
X324300D01*
G01X303400Y22058D02*
X301800D01*
G01X303400Y21458D02*
X301800D01*
G01X304100Y25758D02*
X301100D01*
Y17758D01*
X304100D01*
Y25758D01*
G01X328000Y93300D02*
Y91700D01*
G01X328600Y93300D02*
Y91700D01*
G01X324300Y94000D02*
Y91000D01*
X332300D01*
Y94000D01*
X324300D01*
G01X328000Y112200D02*
Y110600D01*
G01X328600Y112200D02*
Y110600D01*
G01X324300Y112900D02*
Y109900D01*
X332300D01*
Y112900D01*
X324300D01*
G01X276500Y138694D02*
X278100D01*
G01X276500Y139294D02*
X278100D01*
G01X275800Y134994D02*
X278800D01*
Y142994D01*
X275800D01*
Y134994D01*
G01X328000Y109200D02*
Y107600D01*
G01X328600Y109200D02*
Y107600D01*
G01X324300Y109900D02*
Y106900D01*
X332300D01*
Y109900D01*
X324300D01*
G01X273100Y22058D02*
X271500D01*
G01X273100Y21458D02*
X271500D01*
G01X273800Y25758D02*
X270800D01*
Y17758D01*
X273800D01*
Y25758D01*
G01X211472Y46850D02*
Y48450D01*
G01X210872Y46850D02*
Y48450D01*
G01X215172Y46150D02*
Y49150D01*
X207172D01*
Y46150D01*
X215172D01*
G01X211472Y80030D02*
Y81630D01*
G01X210872Y80030D02*
Y81630D01*
G01X215172Y79330D02*
Y82330D01*
X207172D01*
Y79330D01*
X215172D01*
G01X246100Y22058D02*
X244500D01*
G01X246100Y21458D02*
X244500D01*
G01X246800Y25758D02*
X243800D01*
Y17758D01*
X246800D01*
Y25758D01*
G01X211472Y30850D02*
Y32450D01*
G01X210872Y30850D02*
Y32450D01*
G01X215172Y30150D02*
Y33150D01*
X207172D01*
Y30150D01*
X215172D01*
G01X211472Y27850D02*
Y29450D01*
G01X210872Y27850D02*
Y29450D01*
G01X215172Y27150D02*
Y30150D01*
X207172D01*
Y27150D01*
X215172D01*
G01X211472Y37850D02*
Y39450D01*
G01X210872Y37850D02*
Y39450D01*
G01X215172Y37150D02*
Y40150D01*
X207172D01*
Y37150D01*
X215172D01*
G01X211472Y40850D02*
Y42450D01*
G01X210872Y40850D02*
Y42450D01*
G01X215172Y40150D02*
Y43150D01*
X207172D01*
Y40150D01*
X215172D01*
G01X230800Y138694D02*
X232400D01*
G01X230800Y139294D02*
X232400D01*
G01X230100Y134994D02*
X233100D01*
Y142994D01*
X230100D01*
Y134994D01*
G01X233800Y138694D02*
X235400D01*
G01X233800Y139294D02*
X235400D01*
G01X233100Y134994D02*
X236100D01*
Y142994D01*
X233100D01*
Y134994D01*
G01X211472Y89030D02*
Y90630D01*
G01X210872Y89030D02*
Y90630D01*
G01X215172Y88330D02*
Y91330D01*
X207172D01*
Y88330D01*
X215172D01*
G01X211472Y92030D02*
Y93630D01*
G01X210872Y92030D02*
Y93630D01*
G01X215172Y91330D02*
Y94330D01*
X207172D01*
Y91330D01*
X215172D01*
G01X242800Y138694D02*
X244400D01*
G01X242800Y139294D02*
X244400D01*
G01X242100Y134994D02*
X245100D01*
Y142994D01*
X242100D01*
Y134994D01*
G01X211472Y95030D02*
Y96630D01*
G01X210872Y95030D02*
Y96630D01*
G01X215172Y94330D02*
Y97330D01*
X207172D01*
Y94330D01*
X215172D01*
G01X239800Y138694D02*
X241400D01*
G01X239800Y139294D02*
X241400D01*
G01X239100Y134994D02*
X242100D01*
Y142994D01*
X239100D01*
Y134994D01*
G01X245800Y138694D02*
X247400D01*
G01X245800Y139294D02*
X247400D01*
G01X245100Y134994D02*
X248100D01*
Y142994D01*
X245100D01*
Y134994D01*
G01X328600Y104600D02*
Y106200D01*
G01X328000Y104600D02*
Y106200D01*
G01X332300Y103900D02*
Y106900D01*
X324300D01*
Y103900D01*
X332300D01*
G01X211472Y115600D02*
Y117200D01*
G01X210872Y115600D02*
Y117200D01*
G01X215172Y114900D02*
Y117900D01*
X207172D01*
Y114900D01*
X215172D01*
G01X238400Y139294D02*
X236800D01*
G01X238400Y138694D02*
X236800D01*
G01X239100Y142994D02*
X236100D01*
Y134994D01*
X239100D01*
Y142994D01*
G01X105920Y-42730D02*
X104320D01*
G01X105920Y-43330D02*
X104320D01*
G01X106620Y-39030D02*
X103620D01*
Y-47030D01*
X106620D01*
Y-39030D01*
G01X105920Y-81230D02*
X104320D01*
G01X105920Y-81830D02*
X104320D01*
G01X106620Y-77530D02*
X103620D01*
Y-85530D01*
X106620D01*
Y-77530D01*
G01X357600Y-81580D02*
Y-79980D01*
G01X357000Y-81580D02*
Y-79980D01*
G01X361300Y-82280D02*
Y-79280D01*
X353300D01*
Y-82280D01*
X361300D01*
G01X281450Y-58700D02*
Y-57100D01*
G01X280850Y-58700D02*
Y-57100D01*
G01X285150Y-59400D02*
Y-56400D01*
X277150D01*
Y-59400D01*
X285150D01*
G01X110320Y-43330D02*
X111920D01*
G01X110320Y-42730D02*
X111920D01*
G01X109620Y-47030D02*
X112620D01*
Y-39030D01*
X109620D01*
Y-47030D01*
G01X107320Y-43330D02*
X108920D01*
G01X107320Y-42730D02*
X108920D01*
G01X106620Y-47030D02*
X109620D01*
Y-39030D01*
X106620D01*
Y-47030D01*
G01X95320Y-43330D02*
X96920D01*
G01X95320Y-42730D02*
X96920D01*
G01X94620Y-47030D02*
X97620D01*
Y-39030D01*
X94620D01*
Y-47030D01*
G01X211472Y43850D02*
Y45450D01*
G01X210872Y43850D02*
Y45450D01*
G01X215172Y43150D02*
Y46150D01*
X207172D01*
Y43150D01*
X215172D01*
G01X328000Y77600D02*
Y76000D01*
G01X328600Y77600D02*
Y76000D01*
G01X324300Y78300D02*
Y75300D01*
X332300D01*
Y78300D01*
X324300D01*
G01X328000Y81500D02*
Y79900D01*
G01X328600Y81500D02*
Y79900D01*
G01X324300Y82200D02*
Y79200D01*
X332300D01*
Y82200D01*
X324300D01*
G01X281700Y138694D02*
X283300D01*
G01X281700Y139294D02*
X283300D01*
G01X281000Y134994D02*
X284000D01*
Y142994D01*
X281000D01*
Y134994D01*
G01X211472Y33850D02*
Y35450D01*
G01X210872Y33850D02*
Y35450D01*
G01X215172Y33150D02*
Y36150D01*
X207172D01*
Y33150D01*
X215172D01*
G01X210872Y26450D02*
Y24850D01*
G01X211472Y26450D02*
Y24850D01*
G01X207172Y27150D02*
Y24150D01*
X215172D01*
Y27150D01*
X207172D01*
G01X211472Y119900D02*
Y121500D01*
G01X210872Y119900D02*
Y121500D01*
G01X215172Y119200D02*
Y122200D01*
X207172D01*
Y119200D01*
X215172D01*
G01X210872Y87630D02*
Y86030D01*
G01X211472Y87630D02*
Y86030D01*
G01X207172Y88330D02*
Y85330D01*
X215172D01*
Y88330D01*
X207172D01*
G01X161750Y-82600D02*
Y-81000D01*
G01X161150Y-82600D02*
Y-81000D01*
G01X165450Y-83300D02*
Y-80300D01*
X157450D01*
Y-83300D01*
X165450D01*
G01X219900Y139294D02*
X218300D01*
G01X219900Y138694D02*
X218300D01*
G01X220600Y142994D02*
X217600D01*
Y134994D01*
X220600D01*
Y142994D01*
G01X251400Y139294D02*
X249800D01*
G01X251400Y138694D02*
X249800D01*
G01X252100Y142994D02*
X249100D01*
Y134994D01*
X252100D01*
Y142994D01*
G01X29500Y244400D02*
Y242800D01*
G01X30100Y244400D02*
Y242800D01*
G01X25800Y245100D02*
Y242100D01*
X33800D01*
Y245100D01*
X25800D01*
G01X98320Y-43330D02*
X99920D01*
G01X98320Y-42730D02*
X99920D01*
G01X97620Y-47030D02*
X100620D01*
Y-39030D01*
X97620D01*
Y-47030D01*
G01X110320Y-81830D02*
X111920D01*
G01X110320Y-81230D02*
X111920D01*
G01X109620Y-85530D02*
X112620D01*
Y-77530D01*
X109620D01*
Y-85530D01*
G01X107320Y-81830D02*
X108920D01*
G01X107320Y-81230D02*
X108920D01*
G01X106620Y-85530D02*
X109620D01*
Y-77530D01*
X106620D01*
Y-85530D01*
G01X95320Y-81830D02*
X96920D01*
G01X95320Y-81230D02*
X96920D01*
G01X94620Y-85530D02*
X97620D01*
Y-77530D01*
X94620D01*
Y-85530D01*
G01X98320Y-81830D02*
X99920D01*
G01X98320Y-81230D02*
X99920D01*
G01X97620Y-85530D02*
X100620D01*
Y-77530D01*
X97620D01*
Y-85530D01*
G01X161750Y-85600D02*
Y-84000D01*
G01X161150Y-85600D02*
Y-84000D01*
G01X165450Y-86300D02*
Y-83300D01*
X157450D01*
Y-86300D01*
X165450D01*
G01X328600Y101600D02*
Y103200D01*
G01X328000Y101600D02*
Y103200D01*
G01X332300Y100900D02*
Y103900D01*
X324300D01*
Y100900D01*
X332300D01*
G01X489300Y-23800D02*
Y-25400D01*
G01X489900Y-23800D02*
Y-25400D01*
G01X485600Y-23100D02*
Y-26100D01*
X493600D01*
Y-23100D01*
X485600D01*
G01X489300Y-19500D02*
Y-21100D01*
G01X489900Y-19500D02*
Y-21100D01*
G01X485600Y-18800D02*
Y-21800D01*
X493600D01*
Y-18800D01*
X485600D01*
G01X489300Y-26800D02*
Y-28400D01*
G01X489900Y-26800D02*
Y-28400D01*
G01X485600Y-26100D02*
Y-29100D01*
X493600D01*
Y-26100D01*
X485600D01*
G01X489300Y-29800D02*
Y-31400D01*
G01X489900Y-29800D02*
Y-31400D01*
G01X485600Y-29100D02*
Y-32100D01*
X493600D01*
Y-29100D01*
X485600D01*
G01X102920Y-42730D02*
X101320D01*
G01X102920Y-43330D02*
X101320D01*
G01X103620Y-39030D02*
X100620D01*
Y-47030D01*
X103620D01*
Y-39030D01*
G01X70048Y26940D02*
Y25340D01*
G01X70648Y26940D02*
Y25340D01*
G01X66348Y27640D02*
Y24640D01*
X74348D01*
Y27640D01*
X66348D01*
G01X70048Y23940D02*
Y22340D01*
G01X70648Y23940D02*
Y22340D01*
G01X66348Y24640D02*
Y21640D01*
X74348D01*
Y24640D01*
X66348D01*
G01X70048Y20940D02*
Y19340D01*
G01X70648Y20940D02*
Y19340D01*
G01X66348Y21640D02*
Y18640D01*
X74348D01*
Y21640D01*
X66348D01*
G01X70648Y11340D02*
Y12940D01*
G01X70048Y11340D02*
Y12940D01*
G01X74348Y10640D02*
Y13640D01*
X66348D01*
Y10640D01*
X74348D01*
G01X211472Y50650D02*
Y52250D01*
G01X210872Y50650D02*
Y52250D01*
G01X215172Y49950D02*
Y52950D01*
X207172D01*
Y49950D01*
X215172D01*
G01X102920Y-81230D02*
X101320D01*
G01X102920Y-81830D02*
X101320D01*
G01X103620Y-77530D02*
X100620D01*
Y-85530D01*
X103620D01*
Y-77530D01*
G01X137192Y41160D02*
Y42760D01*
G01X136592Y41160D02*
Y42760D01*
G01X140892Y40460D02*
Y43460D01*
X132892D01*
Y40460D01*
X140892D01*
G01X137192Y35160D02*
Y36760D01*
G01X136592Y35160D02*
Y36760D01*
G01X140892Y34460D02*
Y37460D01*
X132892D01*
Y34460D01*
X140892D01*
G01X136592Y30760D02*
Y29160D01*
G01X137192Y30760D02*
Y29160D01*
G01X132892Y31460D02*
Y28460D01*
X140892D01*
Y31460D01*
X132892D01*
G01X86270Y80702D02*
X84670D01*
G01X86270Y80102D02*
X84670D01*
G01X86970Y84402D02*
X83970D01*
Y76402D01*
X86970D01*
Y84402D01*
G01X136592Y24760D02*
Y23160D01*
G01X137192Y24760D02*
Y23160D01*
G01X132892Y25460D02*
Y22460D01*
X140892D01*
Y25460D01*
X132892D01*
G01X136592Y21760D02*
Y20160D01*
G01X137192Y21760D02*
Y20160D01*
G01X132892Y22460D02*
Y19460D01*
X140892D01*
Y22460D01*
X132892D01*
G01X136592Y27760D02*
Y26160D01*
G01X137192Y27760D02*
Y26160D01*
G01X132892Y28460D02*
Y25460D01*
X140892D01*
Y28460D01*
X132892D01*
G01X70648Y48160D02*
Y49760D01*
G01X70048Y48160D02*
Y49760D01*
G01X74348Y47460D02*
Y50460D01*
X66348D01*
Y47460D01*
X74348D01*
G01X121954Y76702D02*
X120354D01*
G01X121954Y76102D02*
X120354D01*
G01X122654Y80402D02*
X119654D01*
Y72402D01*
X122654D01*
Y80402D01*
G01X84670Y72102D02*
X86270D01*
G01X84670Y72702D02*
X86270D01*
G01X83970Y68402D02*
X86970D01*
Y76402D01*
X83970D01*
Y68402D01*
G01X86270Y88702D02*
X84670D01*
G01X86270Y88102D02*
X84670D01*
G01X86970Y92402D02*
X83970D01*
Y84402D01*
X86970D01*
Y92402D01*
G01X120354Y84102D02*
X121954D01*
G01X120354Y84702D02*
X121954D01*
G01X119654Y80402D02*
X122654D01*
Y88402D01*
X119654D01*
Y80402D01*
G01X70648Y109757D02*
Y111357D01*
G01X70048Y109757D02*
Y111357D01*
G01X74348Y109057D02*
Y112057D01*
X66348D01*
Y109057D01*
X74348D01*
G01X70048Y126443D02*
Y124843D01*
G01X70648Y126443D02*
Y124843D01*
G01X66348Y127143D02*
Y124143D01*
X74348D01*
Y127143D01*
X66348D01*
G01X70048Y123003D02*
Y121403D01*
G01X70648Y123003D02*
Y121403D01*
G01X66348Y123703D02*
Y120703D01*
X74348D01*
Y123703D01*
X66348D01*
G01X70048Y120003D02*
Y118403D01*
G01X70648Y120003D02*
Y118403D01*
G01X66348Y120703D02*
Y117703D01*
X74348D01*
Y120703D01*
X66348D01*
G01X136592Y125643D02*
Y124043D01*
G01X137192Y125643D02*
Y124043D01*
G01X132892Y126343D02*
Y123343D01*
X140892D01*
Y126343D01*
X132892D01*
G01X136592Y128643D02*
Y127043D01*
G01X137192Y128643D02*
Y127043D01*
G01X132892Y129343D02*
Y126343D01*
X140892D01*
Y129343D01*
X132892D01*
G01X136592Y122643D02*
Y121043D01*
G01X137192Y122643D02*
Y121043D01*
G01X132892Y123343D02*
Y120343D01*
X140892D01*
Y123343D01*
X132892D01*
G01X136592Y119643D02*
Y118043D01*
G01X137192Y119643D02*
Y118043D01*
G01X132892Y120343D02*
Y117343D01*
X140892D01*
Y120343D01*
X132892D01*
G01X86270Y178584D02*
X84670D01*
G01X86270Y177984D02*
X84670D01*
G01X86970Y182284D02*
X83970D01*
Y174284D01*
X86970D01*
Y182284D01*
G01X121954Y174660D02*
X120354D01*
G01X121954Y174060D02*
X120354D01*
G01X122654Y178360D02*
X119654D01*
Y170360D01*
X122654D01*
Y178360D01*
G01X120354Y182060D02*
X121954D01*
G01X120354Y182660D02*
X121954D01*
G01X119654Y178360D02*
X122654D01*
Y186360D01*
X119654D01*
Y178360D01*
G01X86270Y186584D02*
X84670D01*
G01X86270Y185984D02*
X84670D01*
G01X86970Y190284D02*
X83970D01*
Y182284D01*
X86970D01*
Y190284D01*
G01X84670Y169984D02*
X86270D01*
G01X84670Y170584D02*
X86270D01*
G01X83970Y166284D02*
X86970D01*
Y174284D01*
X83970D01*
Y166284D01*
G01X70648Y146043D02*
Y147643D01*
G01X70048Y146043D02*
Y147643D01*
G01X74348Y145343D02*
Y148343D01*
X66348D01*
Y145343D01*
X74348D01*
G01X137192Y133043D02*
Y134643D01*
G01X136592Y133043D02*
Y134643D01*
G01X140892Y132343D02*
Y135343D01*
X132892D01*
Y132343D01*
X140892D01*
G01X137192Y139043D02*
Y140643D01*
G01X136592Y139043D02*
Y140643D01*
G01X140892Y138343D02*
Y141343D01*
X132892D01*
Y138343D01*
X140892D01*
G01X137192Y130043D02*
Y131643D01*
G01X136592Y130043D02*
Y131643D01*
G01X140892Y129343D02*
Y132343D01*
X132892D01*
Y129343D01*
X140892D01*
G01X137192Y136043D02*
Y137643D01*
G01X136592Y136043D02*
Y137643D01*
G01X140892Y135343D02*
Y138343D01*
X132892D01*
Y135343D01*
X140892D01*
G01X137192Y38160D02*
Y39760D01*
G01X136592Y38160D02*
Y39760D01*
G01X140892Y37460D02*
Y40460D01*
X132892D01*
Y37460D01*
X140892D01*
G01X137192Y32160D02*
Y33760D01*
G01X136592Y32160D02*
Y33760D01*
G01X140892Y31460D02*
Y34460D01*
X132892D01*
Y31460D01*
X140892D01*
G01X70648Y8340D02*
Y9940D01*
G01X70048Y8340D02*
Y9940D01*
G01X74348Y7640D02*
Y10640D01*
X66348D01*
Y7640D01*
X74348D01*
G01X70648Y15340D02*
Y16940D01*
G01X70048Y15340D02*
Y16940D01*
G01X74348Y14640D02*
Y17640D01*
X66348D01*
Y14640D01*
X74348D01*
G01X70648Y106560D02*
Y108160D01*
G01X70048Y106560D02*
Y108160D01*
G01X74348Y105860D02*
Y108860D01*
X66348D01*
Y105860D01*
X74348D01*
G01X70648Y114060D02*
Y115660D01*
G01X70048Y114060D02*
Y115660D01*
G01X74348Y113360D02*
Y116360D01*
X66348D01*
Y113360D01*
X74348D01*
G01X254400Y139294D02*
X252800D01*
G01X254400Y138694D02*
X252800D01*
G01X255100Y142994D02*
X252100D01*
Y134994D01*
X255100D01*
Y142994D01*
G01X222900Y139294D02*
X221300D01*
G01X222900Y138694D02*
X221300D01*
G01X223600Y142994D02*
X220600D01*
Y134994D01*
X223600D01*
Y142994D01*
G01X231190Y239744D02*
Y241344D01*
G01X230590Y239744D02*
Y241344D01*
G01X234890Y239044D02*
Y242044D01*
X226890D01*
Y239044D01*
X234890D01*
G01X231190Y236744D02*
Y238344D01*
G01X230590Y236744D02*
Y238344D01*
G01X234890Y236044D02*
Y239044D01*
X226890D01*
Y236044D01*
X234890D01*
G01X249100Y22058D02*
X247500D01*
G01X249100Y21458D02*
X247500D01*
G01X249800Y25758D02*
X246800D01*
Y17758D01*
X249800D01*
Y25758D01*
G01X274536Y139294D02*
X272936D01*
G01X274536Y138694D02*
X272936D01*
G01X275236Y142994D02*
X272236D01*
Y134994D01*
X275236D01*
Y142994D01*
G01X231190Y198244D02*
Y199844D01*
G01X230590Y198244D02*
Y199844D01*
G01X234890Y197544D02*
Y200544D01*
X226890D01*
Y197544D01*
X234890D01*
G01X489900Y-18100D02*
Y-16500D01*
G01X489300Y-18100D02*
Y-16500D01*
G01X493600Y-18800D02*
Y-15800D01*
X485600D01*
Y-18800D01*
X493600D01*
G01X34754Y236141D02*
X24754D01*
Y241141D01*
X34754D01*
Y236141D01*
G01Y-80689D02*
X24754D01*
Y-75689D01*
X34754D01*
Y-80689D01*
G01X429800Y-53200D02*
X419800D01*
Y-49200D01*
X429800D01*
Y-53200D01*
G01X441100D02*
X431100D01*
Y-49200D01*
X441100D01*
Y-53200D01*
G01X322190Y-71370D02*
X332190D01*
Y-75370D01*
X322190D01*
Y-71370D01*
G01X332190Y-79800D02*
X322190D01*
Y-75800D01*
X332190D01*
Y-79800D01*
G01X519700Y36200D02*
X527700D01*
Y33200D01*
X519700D01*
Y36200D01*
G01X245016Y249856D02*
Y163242D01*
X331630D01*
Y249856D01*
X245016D01*
G01X74800Y250500D02*
X44800D01*
Y235500D01*
X74800D01*
Y250500D01*
G01Y245500D02*
X69800Y250500D01*
G01X94171Y249293D02*
Y250080D01*
X113069D01*
Y249293D01*
G01Y235907D02*
Y235120D01*
X94171D01*
Y235907D01*
G01X187100Y99100D02*
G03X187600Y96600I-1500J-1600D01*
G01X189500Y97600D02*
G03I-3900J0D01*
G01X169300Y226600D02*
G03X166900Y225500I0J-3168D01*
G02X166200Y224900I-2331J2011D01*
G01X162600Y223700D01*
G03X160100Y221300I0J-2502D01*
G02X159200Y221000I-572J217D01*
G01X159100Y221200D01*
G02X159200Y222900I1530J763D01*
G02X159900Y223900I17462J-11479D01*
G02X161900Y225100I2459J-1832D01*
G01X168000Y229800D02*
G03X167300Y229700I0J-2500D01*
G02X166700Y229600I-720J2469D01*
G02X165200I-750J16061D01*
G02X162700Y230000I529J11319D01*
G03X158800Y229200I-1168J-4210D01*
G03X158300Y228500I987J-1234D01*
G02X157600Y227700I-1358J482D01*
G01X157100Y227300D01*
X156500Y226800D01*
G03X155900Y225700I1090J-1308D01*
G01Y225600D01*
X156000Y225200D01*
X156100Y224600D01*
X156200Y223800D01*
Y222500D01*
G03X156900Y220800I2414J0D01*
G03X157700Y221400I350J367D01*
G01X157400Y222000D01*
X157600Y223400D01*
G03X157500Y224200I-1511J217D01*
G02X157200Y225000I13600J5556D01*
G01X157800Y225100D01*
G03X158300Y225300I-207J1242D01*
G03X159800Y226400I-15546J22772D01*
G01X180350Y-58250D02*
X175500D01*
G01X180350Y-64250D02*
Y-58350D01*
G01X175500Y-64250D02*
X180350D01*
G01X164450D02*
X168980D01*
G01X164350Y-58250D02*
Y-64250D01*
G01X168980Y-58250D02*
X164350D01*
G01X198050Y-58210D02*
X185850D01*
G01X198050Y-72390D02*
X185850D01*
G54D15*
G01X200Y-65767D02*
X-400Y-65367D01*
X-1100Y-65100D01*
X-1900D01*
X-2800Y-65500D01*
X-3500Y-66167D01*
X-4000Y-66967D01*
X-4400Y-68300D01*
X-4500Y-69500D01*
X-4300Y-70700D01*
X-4000Y-71500D01*
X-3400Y-72300D01*
X-2700Y-72833D01*
X-2000Y-73100D01*
X-1300D01*
X-600Y-72833D01*
X0Y-72433D01*
X500Y-71900D01*
G01X3500Y-73100D02*
X6000Y-65100D01*
X8500Y-73100D01*
G01X7600Y-70300D02*
X4400D01*
G01X11700Y-73100D02*
Y-65100D01*
X16300Y-73100D01*
Y-65100D01*
G01X20100Y-66433D02*
X20700Y-65633D01*
X21400Y-65233D01*
X22200Y-65100D01*
X23200Y-65367D01*
X23900Y-66033D01*
X24100Y-66833D01*
X24000Y-67634D01*
X23600Y-68300D01*
X21600Y-69633D01*
X20700Y-70567D01*
X20100Y-71900D01*
X19900Y-73100D01*
X24100D01*
G01X1100Y233933D02*
X500Y234333D01*
X-200Y234600D01*
X-1000D01*
X-1900Y234200D01*
X-2600Y233533D01*
X-3100Y232733D01*
X-3500Y231400D01*
X-3600Y230200D01*
X-3400Y229000D01*
X-3100Y228200D01*
X-2500Y227400D01*
X-1800Y226867D01*
X-1100Y226600D01*
X-400D01*
X300Y226867D01*
X900Y227267D01*
X1400Y227800D01*
G01X4400Y226600D02*
X6900Y234600D01*
X9400Y226600D01*
G01X8500Y229400D02*
X5300D01*
G01X12600Y226600D02*
Y234600D01*
X17200Y226600D01*
Y234600D01*
G01X22900Y226600D02*
Y234600D01*
X21700Y233000D01*
G01Y226600D02*
X24100D01*
G01X423762Y221700D02*
X434338D01*
X423762Y199200D01*
X434338D01*
G01X447175Y209325D02*
X456082D01*
X455247Y211950D01*
X453855Y213450D01*
X451907Y214200D01*
X449958Y213825D01*
X448288Y212700D01*
X447175Y210075D01*
X446618Y207825D01*
Y205575D01*
X447175Y203325D01*
X448566Y201075D01*
X450237Y199575D01*
X452185Y199200D01*
X454134Y199950D01*
X456082Y202199D01*
G01X469475Y209325D02*
X478382D01*
X477547Y211950D01*
X476155Y213450D01*
X474207Y214200D01*
X472258Y213825D01*
X470588Y212700D01*
X469475Y210075D01*
X468918Y207825D01*
Y205575D01*
X469475Y203325D01*
X470866Y201075D01*
X472537Y199575D01*
X474485Y199200D01*
X476434Y199950D01*
X478382Y202199D01*
G01X491218Y199200D02*
Y221700D01*
G01X500125Y214200D02*
X491218Y205575D01*
G01X494837Y208950D02*
X500682Y199200D01*
G01X514353D02*
Y214200D01*
G01Y211200D02*
X515745Y212700D01*
X517137Y213825D01*
X519085Y214200D01*
X520476Y213825D01*
X522147Y212700D01*
G01X446825Y233667D02*
X447292Y233375D01*
X447817Y233200D01*
X448283D01*
X448750Y233375D01*
X449100Y233667D01*
X449275Y234075D01*
X449158Y234483D01*
X448867Y234833D01*
X448342Y235067D01*
X447642Y235183D01*
X447233Y235417D01*
X447058Y235825D01*
X447175Y236233D01*
X447467Y236525D01*
X447875Y236700D01*
X448283D01*
X448692Y236583D01*
X449042Y236292D01*
G01X452350Y236700D02*
Y233200D01*
G01X451008Y236700D02*
X453692D01*
G01X454900Y232033D02*
X458400D01*
G01X462233Y236408D02*
X461883Y236583D01*
X461475Y236700D01*
X461008D01*
X460483Y236525D01*
X460075Y236233D01*
X459783Y235883D01*
X459550Y235300D01*
X459492Y234775D01*
X459608Y234250D01*
X459783Y233900D01*
X460133Y233550D01*
X460542Y233317D01*
X460950Y233200D01*
X461358D01*
X461767Y233317D01*
X462117Y233492D01*
X462408Y233725D01*
G01X463792Y233200D02*
X465250Y236700D01*
X466708Y233200D01*
G01X466183Y234425D02*
X464317D01*
G01X468208Y233200D02*
Y236700D01*
X470892Y233200D01*
Y236700D01*
G01X472100Y232033D02*
X475600D01*
G01X476692Y236700D02*
X478150Y233200D01*
X479608Y236700D01*
G01X481342Y236117D02*
X481692Y236467D01*
X482100Y236642D01*
X482567Y236700D01*
X483150Y236583D01*
X483558Y236292D01*
X483675Y235942D01*
X483617Y235592D01*
X483383Y235300D01*
X482217Y234717D01*
X481692Y234308D01*
X481342Y233725D01*
X481225Y233200D01*
X483675D01*
G01X432862Y190300D02*
X443438D01*
X432862Y167800D01*
X443438D01*
G01X466017D02*
X454883D01*
Y190300D01*
X466017D01*
G01X461563Y179425D02*
X454883D01*
G01X477183Y167800D02*
Y190300D01*
X484142D01*
X486368Y189175D01*
X487760Y187675D01*
X488317Y184675D01*
X487760Y181675D01*
X486090Y179800D01*
X484142Y178675D01*
X477183D01*
G01X484142D02*
X488317Y167800D01*
G01X505050D02*
X502823Y168175D01*
X500875Y169675D01*
X499205Y171925D01*
X498091Y174550D01*
X497535Y177550D01*
Y180550D01*
X498091Y183550D01*
X499205Y186175D01*
X500875Y188425D01*
X502823Y189925D01*
X505050Y190300D01*
X507276Y189925D01*
X509225Y188425D01*
X510895Y186175D01*
X512009Y183550D01*
X512565Y180550D01*
Y177550D01*
X512009Y174550D01*
X510895Y171925D01*
X509225Y169675D01*
X507276Y168175D01*
X505050Y167800D01*
G01X112220Y16310D02*
X112230Y16300D01*
G01X309220Y132670D02*
X306020D01*
Y129520D01*
X306040Y129500D01*
X306330Y129790D01*
Y132250D01*
X306660Y131920D01*
Y130610D01*
X306750Y130700D01*
Y132290D01*
X307180Y131860D01*
Y131030D01*
X307230Y131080D01*
Y132250D01*
X307540Y131940D01*
Y131650D01*
X307730Y131840D01*
Y132350D01*
X307950Y132130D01*
Y132020D01*
X308220Y132290D01*
Y132440D01*
X308250Y132470D01*
X308440D01*
G01X530100Y-8900D02*
X544900D01*
Y-30300D01*
X531039D01*
G01X487900Y-9300D02*
Y-3800D01*
G01X490400Y-6800D02*
X493900D01*
G01X487900D02*
X484900D01*
G01X490400Y-4300D02*
X487900Y-6800D01*
G01X490400Y-9300D02*
Y-4300D01*
G01X487900Y-6800D02*
X490400Y-9300D01*
G01X485453Y-10556D02*
X493547D01*
G01Y-15500D02*
X485453D01*
G01X357800Y-87030D02*
Y-82030D01*
X356800D01*
Y-87030D01*
X357800D01*
G01X344520Y-82030D02*
Y-87030D01*
X345520D01*
Y-82030D01*
X344520D01*
G01X280741Y-53830D02*
Y-48830D01*
X279741D01*
Y-53830D01*
X280741D01*
G01X29300Y235500D02*
Y230500D01*
X30300D01*
Y235500D01*
X29300D01*
G01Y-69930D02*
Y-74930D01*
X30300D01*
Y-69930D01*
X29300D01*
G01X523200Y32200D02*
Y27200D01*
X524200D01*
Y32200D01*
X523200D01*
G01X519639Y-18900D02*
Y-30300D01*
X531039D01*
Y-18900D01*
X519639D01*
G01X509639D02*
Y-30300D01*
X521039D01*
Y-18900D01*
X509639D01*
G01X519639Y-8900D02*
Y-20300D01*
X531039D01*
Y-8900D01*
X519639D01*
G01X509639D02*
Y-20300D01*
X521039D01*
Y-8900D01*
X509639D01*
G01X349500Y241100D02*
Y229700D01*
X360900D01*
Y241100D01*
X349500D01*
G01Y231100D02*
Y219700D01*
X360900D01*
Y231100D01*
X349500D01*
G01Y211100D02*
Y199700D01*
X360900D01*
Y211100D01*
X349500D01*
G01Y221100D02*
Y209700D01*
X360900D01*
Y221100D01*
X349500D01*
G01X251200Y161000D02*
Y149600D01*
X262600D01*
Y161000D01*
X251200D01*
G01X241200D02*
Y149600D01*
X252600D01*
Y161000D01*
X241200D01*
G01X261200D02*
Y149600D01*
X272600D01*
Y161000D01*
X261200D01*
G01X271200D02*
Y149600D01*
X282600D01*
Y161000D01*
X271200D01*
G01X322600Y52434D02*
Y41034D01*
X334000D01*
Y52434D01*
X322600D01*
G01Y62434D02*
Y51034D01*
X334000D01*
Y62434D01*
X322600D01*
G01X211200Y161000D02*
Y149600D01*
X222600D01*
Y161000D01*
X211200D01*
G01X231200D02*
Y149600D01*
X242600D01*
Y161000D01*
X231200D01*
G01X221200D02*
Y149600D01*
X232600D01*
Y161000D01*
X221200D01*
G01X322600Y42434D02*
Y31034D01*
X334000D01*
Y42434D01*
X322600D01*
G01X201200Y161000D02*
Y149600D01*
X212600D01*
Y161000D01*
X201200D01*
G01X509639Y1100D02*
Y-10300D01*
X521039D01*
Y1100D01*
X509639D01*
G01X519639D02*
Y-10300D01*
X531039D01*
Y1100D01*
X519639D01*
G01Y11100D02*
Y-300D01*
X531039D01*
Y11100D01*
X519639D01*
G01X509639D02*
Y-300D01*
X521039D01*
Y11100D01*
X509639D01*
G01X349500Y201100D02*
Y189700D01*
X360900D01*
Y201100D01*
X349500D01*
G01X117824Y239844D02*
Y236744D01*
X118284Y237364D01*
G01Y239844D02*
X117364D01*
G01X312150Y-67290D02*
Y-64490D01*
X311710Y-65050D01*
G01Y-67290D02*
X312590D01*
G01X438950Y-54110D02*
Y-56910D01*
X439390Y-56350D01*
G01Y-54110D02*
X438510D01*
G01X469400Y-59700D02*
Y-79100D01*
X482000D01*
Y-59700D01*
X469400D01*
G01X441600Y-86300D02*
X461000D01*
Y-73700D01*
X441600D01*
Y-86300D01*
G01X533574Y26700D02*
X513826D01*
Y17100D01*
X533574D01*
Y26700D01*
G01X216300Y122326D02*
Y142074D01*
X206700D01*
Y122326D01*
X216300D01*
G01X310053Y-40957D02*
X310273Y-40677D01*
X310530Y-40537D01*
X310823Y-40490D01*
X311190Y-40583D01*
X311447Y-40817D01*
X311520Y-41097D01*
X311483Y-41377D01*
X311337Y-41610D01*
X310603Y-42077D01*
X310273Y-42403D01*
X310053Y-42870D01*
X309980Y-43290D01*
X311520D01*
G01X310250Y-57790D02*
Y-54990D01*
X309810Y-55550D01*
G01Y-57790D02*
X310690D01*
G01X288197Y-38594D02*
X287104D01*
Y-60466D01*
G01X307883D02*
X308976D01*
Y-38594D01*
X307883D01*
G01X287104Y-60466D02*
X288197D01*
G01X358300Y-66900D02*
Y-69700D01*
X358740Y-69140D01*
G01Y-66900D02*
X357860D01*
G01X356218Y-74594D02*
Y-42406D01*
X344582D01*
Y-74594D01*
X356218D01*
G01X366303Y-70311D02*
Y-84397D01*
X418097D01*
Y-70311D01*
G01Y-46689D02*
Y-32603D01*
G01D02*
X366303D01*
Y-46689D01*
G01X287247Y-69234D02*
X288164Y-66434D01*
X289081Y-69234D01*
G01X288751Y-68254D02*
X287577D01*
G01X309407Y-66533D02*
X309187Y-66393D01*
X308930Y-66300D01*
X308637D01*
X308307Y-66440D01*
X308050Y-66673D01*
X307867Y-66953D01*
X307720Y-67420D01*
X307683Y-67840D01*
X307757Y-68260D01*
X307867Y-68540D01*
X308087Y-68820D01*
X308343Y-69007D01*
X308600Y-69100D01*
X308857D01*
X309113Y-69007D01*
X309333Y-68867D01*
X309517Y-68680D01*
G01X281404Y-67011D02*
X278904Y-64511D01*
G01Y-67011D02*
X275404D01*
G01X281404Y-64511D02*
Y-70011D01*
G01X292051Y-71220D02*
Y-71969D01*
X305262D01*
Y-71220D01*
G01Y-63716D02*
Y-62971D01*
G01D02*
X292051D01*
Y-63720D01*
G01X278904Y-64511D02*
Y-69511D01*
G01D02*
X281404Y-67011D01*
G01D02*
X284404D01*
G01X437999Y-37650D02*
Y-36901D01*
X424788D01*
Y-37650D01*
G01Y-45154D02*
Y-45899D01*
G01D02*
X437999D01*
Y-45150D01*
G01X332222Y-87970D02*
Y-88970D01*
X319422D01*
Y-87970D01*
G01Y-81090D02*
Y-80090D01*
X332222D01*
Y-81090D01*
G01X309222Y-84630D02*
X311722Y-87130D01*
G01Y-84630D02*
X315222D01*
G01X309222Y-87130D02*
Y-81630D01*
G01Y-84630D02*
X306222D01*
G01X311722Y-82130D02*
X309222Y-84630D01*
G01X311722Y-87130D02*
Y-82130D01*
G01X455000Y-66440D02*
Y-67440D01*
X442200D01*
Y-66440D01*
G01Y-59560D02*
Y-58560D01*
X455000D01*
Y-59560D01*
G01X447200Y-71400D02*
X449700Y-73900D01*
Y-68900D01*
X447200Y-71400D01*
X444200D01*
G01X449700D02*
X453200D01*
G01X447200Y-73900D02*
Y-68400D01*
G01X353840Y-24700D02*
X354840D01*
Y-37500D01*
X353840D01*
G01X346960D02*
X345960D01*
Y-24700D01*
X346960D01*
G01X358800Y-32500D02*
X361300Y-30000D01*
X356300D01*
X358800Y-32500D01*
Y-35500D01*
G01Y-30000D02*
Y-26500D01*
G01X361300Y-32500D02*
X355800D01*
G01X50200Y-81240D02*
Y-80240D01*
X63000D01*
Y-81240D01*
G01Y-88120D02*
Y-89120D01*
X50200D01*
Y-88120D01*
G01X42900Y-84480D02*
X40400Y-81980D01*
G01Y-84480D02*
X36900D01*
G01X42900Y-81980D02*
Y-87480D01*
G01Y-84480D02*
X45900D01*
G01X40400Y-86980D02*
X42900Y-84480D01*
G01X40400Y-81980D02*
Y-86980D01*
G01X50200Y-72260D02*
Y-71260D01*
X63000D01*
Y-72260D01*
G01Y-79140D02*
Y-80140D01*
X50200D01*
Y-79140D01*
G01X42900Y-75400D02*
X40400Y-72900D01*
G01Y-75400D02*
X36900D01*
G01X42900Y-72900D02*
Y-78400D01*
G01Y-75400D02*
X45900D01*
G01X40400Y-77900D02*
X42900Y-75400D01*
G01X40400Y-72900D02*
Y-77900D01*
G01X140950Y-68080D02*
X139950D01*
Y-55280D01*
X140950D01*
G01X147830D02*
X148830D01*
Y-68080D01*
X147830D01*
G01X143990Y-46280D02*
X141490Y-48780D01*
G01X143990D02*
Y-52280D01*
G01X141490Y-46280D02*
X146990D01*
G01X143990D02*
Y-43280D01*
G01X146490Y-48780D02*
X143990Y-46280D01*
G01X141490Y-48780D02*
X146490D01*
G01X129870Y-16760D02*
X130870D01*
Y-29560D01*
X129870D01*
G01X122990D02*
X121990D01*
Y-16760D01*
X122990D01*
G01X126430Y-40260D02*
X128930Y-37760D01*
G01X126430D02*
Y-34260D01*
G01X128930Y-40260D02*
X123430D01*
G01X126430D02*
Y-43260D01*
G01X123930Y-37760D02*
X126430Y-40260D01*
G01X128930Y-37760D02*
X123930D01*
G01X131970Y-29560D02*
X130970D01*
Y-16760D01*
X131970D01*
G01X138850D02*
X139850D01*
Y-29560D01*
X138850D01*
G01X135510Y-6160D02*
X133010Y-8660D01*
G01X135510D02*
Y-12160D01*
G01X133010Y-6160D02*
X138510D01*
G01X135510D02*
Y-3160D01*
G01X138010Y-8660D02*
X135510Y-6160D01*
G01X133010Y-8660D02*
X138010D01*
G01X129870Y-55280D02*
X130870D01*
Y-68080D01*
X129870D01*
G01X122990D02*
X121990D01*
Y-55280D01*
X122990D01*
G01X126730Y-76780D02*
X129230Y-74280D01*
G01X126730D02*
Y-70780D01*
G01X129230Y-76780D02*
X123730D01*
G01X126730D02*
Y-79780D01*
G01X124230Y-74280D02*
X126730Y-76780D01*
G01X129230Y-74280D02*
X124230D01*
G01X131970Y-68080D02*
X130970D01*
Y-55280D01*
X131970D01*
G01X138850D02*
X139850D01*
Y-68080D01*
X138850D01*
G01X135110Y-46080D02*
X132610Y-48580D01*
G01X135110D02*
Y-52080D01*
G01X132610Y-46080D02*
X138110D01*
G01X135110D02*
Y-43080D01*
G01X137610Y-48580D02*
X135110Y-46080D01*
G01X132610Y-48580D02*
X137610D01*
G01X30300Y238700D02*
G03I-500J0D01*
G01Y-78130D02*
G03I-500J0D01*
G01X523300Y35850D02*
X524100D01*
G01Y33550D02*
X523300D01*
G01X219997Y114639D02*
X222783Y118306D01*
G01X221390Y118973D02*
Y113973D01*
G01X222783Y114639D02*
X219997Y118306D01*
G01X219490Y116473D02*
X223290D01*
G01X233480Y120626D02*
X229540D01*
Y116686D01*
G01X310040D02*
Y120626D01*
X306100D01*
G01Y40126D02*
X310040D01*
Y44066D01*
G01X229540D02*
Y40126D01*
X233480D01*
G01X124713Y7617D02*
X121927Y3950D01*
G01X123320Y3283D02*
Y8283D01*
G01X121927Y7617D02*
X124713Y3950D01*
G01X125220Y5783D02*
X121420D01*
G01X88160Y6640D02*
Y840D01*
X119080D01*
Y6640D01*
G01Y56280D02*
Y62080D01*
X88160D01*
Y56280D01*
G01X124713Y105500D02*
X121927Y101833D01*
G01X123320Y101166D02*
Y106166D01*
G01X121927Y105500D02*
X124713Y101833D01*
G01X125220Y103666D02*
X121420D01*
G01X88160Y104523D02*
Y98723D01*
X119080D01*
Y104523D01*
G01Y154163D02*
Y159963D01*
X88160D01*
Y154163D01*
G54D16*
G01X-5800Y183373D02*
Y224713D01*
X41450D01*
Y98723D01*
X-5800D01*
Y183373D01*
G01Y20743D02*
Y62083D01*
X41450D01*
Y-63907D01*
X-5800D01*
Y20743D01*
G01X214122Y107450D02*
Y106470D01*
X213932Y106270D01*
G01X208222D02*
Y107450D01*
G54D17*
G01X45510Y154673D02*
X54490D01*
G01X45510Y149233D02*
X54490D01*
G01X45510Y-32400D02*
X54490D01*
G01X45510Y-37840D02*
X54490D01*
G01X23510Y90973D02*
X32490D01*
G01X23510Y85533D02*
X32490D01*
G01X45510Y164468D02*
X54490D01*
G01X45510Y159028D02*
X54490D01*
G01X45510Y176428D02*
X54490D01*
G01X45510Y170988D02*
X54490D01*
G01X45510Y182408D02*
X54490D01*
G01X45510Y176968D02*
X54490D01*
G01X23510Y84993D02*
X32490D01*
G01X23510Y79553D02*
X32490D01*
G01X45510Y188388D02*
X54490D01*
G01X45510Y182948D02*
X54490D01*
G01X45510Y21420D02*
X54490D01*
G01X45510Y15980D02*
X54490D01*
G01X45510Y15440D02*
X54490D01*
G01X45510Y10000D02*
X54490D01*
G01X45510Y9460D02*
X54490D01*
G01X45510Y4020D02*
X54490D01*
G01X45510Y3480D02*
X54490D01*
G01X45510Y-1960D02*
X54490D01*
G01X45510Y-2500D02*
X54490D01*
G01X45510Y-7940D02*
X54490D01*
G01X45510Y-8480D02*
X54490D01*
G01X45510Y-13920D02*
X54490D01*
G01X45510Y-26420D02*
X54490D01*
G01X45510Y-31860D02*
X54490D01*
G01X45510Y-14460D02*
X54490D01*
G01X45510Y-19900D02*
X54490D01*
G01X45510Y142713D02*
X54490D01*
G01X45510Y137273D02*
X54490D01*
G01X45510Y170448D02*
X54490D01*
G01X45510Y165008D02*
X54490D01*
G01X226400Y250754D02*
X235380D01*
G01X226400Y245314D02*
X235380D01*
G01X54490Y143253D02*
X45510D01*
G01X54490Y148693D02*
X45510D01*
G01X282750Y-78310D02*
Y-87290D01*
G01X277310Y-78310D02*
Y-87290D01*
G01X310630D02*
Y-78310D01*
G01X316070Y-87290D02*
Y-78310D01*
G01X172540Y-71420D02*
X163560D01*
G01X172540Y-65980D02*
X163560D01*
G01X200120Y-81740D02*
X191140D01*
G01X200120Y-76300D02*
X191140D01*
G01X284230Y-87290D02*
Y-78310D01*
G01X289670Y-87290D02*
Y-78310D01*
G01X156980Y-67240D02*
Y-58260D01*
G01X162420Y-67240D02*
Y-58260D01*
G01X191140Y-82280D02*
X200120D01*
G01X191140Y-87720D02*
X200120D01*
G01X229830Y143484D02*
Y134504D01*
G01X224390Y143484D02*
Y134504D01*
G01X45510Y-20440D02*
X54490D01*
G01X45510Y-25880D02*
X54490D01*
G01X204872Y75510D02*
Y59770D01*
X217472D01*
Y75510D01*
X204872D01*
G01X211172D02*
Y68430D01*
X204872D01*
G54D18*
G01X312099Y-53458D02*
X312155D01*
G02X314891Y-56195I0J-2736D01*
G02X312159Y-58927I-2732J0D01*
G01X312107D01*
G01X332072Y-64435D02*
X333233D01*
Y-47285D01*
X332072D01*
G01X313312D02*
X312147D01*
Y-53525D01*
G01Y-58884D02*
Y-62466D01*
X313246Y-63566D01*
G01X439891Y-73402D02*
X439835D01*
G02X437099Y-70665I0J2736D01*
G02X439831Y-67933I2732J0D01*
G01X439883D01*
G01X419918Y-62425D02*
X418757D01*
Y-79575D01*
X419918D01*
G01X438678D02*
X439843D01*
Y-73335D01*
G01Y-67976D02*
Y-64394D01*
X438744Y-63294D01*
G01X106022Y-13139D02*
Y-13195D01*
G02X103285Y-15931I-2736J0D01*
G02X100553Y-13199I0J2732D01*
G01Y-13147D01*
G01X95045Y-33112D02*
Y-34273D01*
X112195D01*
Y-33112D01*
G01Y-14352D02*
Y-13187D01*
X105955D01*
G01X100596D02*
X97014D01*
X95914Y-14286D01*
G01X106022Y-51639D02*
Y-51695D01*
G02X103285Y-54431I-2736J0D01*
G02X100553Y-51699I0J2732D01*
G01Y-51647D01*
G01X95045Y-71612D02*
Y-72773D01*
X112195D01*
Y-71612D01*
G01Y-52852D02*
Y-51687D01*
X105955D01*
G01X100596D02*
X97014D01*
X95914Y-52786D01*
G54D19*
G01X94171Y244569D02*
Y240631D01*
G01X113069D02*
Y244569D01*
G01X496560Y74160D02*
Y73690D01*
X491730D01*
G01X495470Y85110D02*
X492330D01*
G01X114250Y69654D02*
X112360D01*
G01X111022Y69103D02*
X96218D01*
Y79497D01*
X111022D01*
Y69103D01*
G01X114250Y81858D02*
X112360D01*
G01X111022Y81307D02*
X96218D01*
Y91701D01*
X111022D01*
Y81307D01*
G01X114250Y167536D02*
X112360D01*
G01X111022Y166985D02*
X96218D01*
Y177379D01*
X111022D01*
Y166985D01*
G01X114250Y179740D02*
X112360D01*
G01X111022Y179189D02*
X96218D01*
Y189583D01*
X111022D01*
Y179189D01*
M02*
