G04 ================== begin FILE IDENTIFICATION RECORD ==================*
G04 Layout Name:  E:/0_Zeek_ST/Layout_V2/Zeekr_ST_0721A.brd*
G04 Film Name:    ssm.art*
G04 File Format:  Gerber RS274X*
G04 File Origin:  Cadence Allegro 16.6-2015-S108*
G04 Origin Date:  Fri Jul 21 04:23:00 2023*
G04 *
G04 Layer:  VIA CLASS/SOLDERMASK_BOTTOM*
G04 Layer:  PIN/SOLDERMASK_BOTTOM*
G04 Layer:  PACKAGE GEOMETRY/SOLDERMASK_BOTTOM*
G04 Layer:  DRAWING FORMAT/FILM_TITLE_BLOCK*
G04 Layer:  BOARD GEOMETRY/OUTLINE*
G04 Layer:  BOARD GEOMETRY/SOLDERMASK_BOTTOM*
G04 *
G04 Offset:    (0.00 0.00)*
G04 Mirror:    No*
G04 Mode:      Positive*
G04 Rotation:  0*
G04 FullContactRelief:  No*
G04 UndefLineWidth:     8.00*
G04 ================== end FILE IDENTIFICATION RECORD ====================*
%FSLAX25Y25*MOIN*%
%IR0*IPPOS*OFA0.00000B0.00000*MIA0B0*SFA1.00000B1.00000*%
%ADD23C,.0413*%
%ADD16C,.063*%
%ADD12R,.07X.07*%
%ADD11R,.052X.052*%
%ADD13C,.069*%
%ADD15R,.063X.063*%
%ADD22O,.055X.15299*%
%ADD21O,.15299X.055*%
%ADD20C,.02756*%
%ADD14R,.069X.069*%
%ADD17C,.2008*%
%ADD10C,.129*%
%ADD19O,.07284X.04134*%
%ADD18O,.08268X.03937*%
%ADD24C,.008*%
G75*
%LPD*%
G75*
G54D10*
X10180Y-83393D03*
Y243800D03*
X510800Y-83393D03*
Y243800D03*
G54D20*
X525046Y69025D03*
Y91781D03*
G54D11*
X2488Y125798D03*
X13512D03*
X2488Y134778D03*
X13512D03*
X2488Y143758D03*
X13512D03*
X2488Y152738D03*
X13512D03*
X2488Y161718D03*
X13512D03*
X2488Y170698D03*
X13512D03*
X2488Y179678D03*
X13512D03*
X2488Y188658D03*
X13512D03*
X2488Y197638D03*
X13512D03*
X2488Y-36832D03*
X13512D03*
X2488Y-27852D03*
X13512D03*
X2488Y-18872D03*
X13512D03*
X2488Y-9892D03*
X13512D03*
X2488Y-912D03*
X13512D03*
X2488Y8068D03*
X13512D03*
X2488Y17048D03*
X13512D03*
X2488Y35008D03*
X13512D03*
X2488Y26028D03*
X13512D03*
G54D21*
X507063Y-33417D03*
G54D12*
X525339Y-24600D03*
X515339D03*
X525339Y-14600D03*
X515339D03*
X355200Y235400D03*
Y225400D03*
Y205400D03*
Y215400D03*
X256900Y155300D03*
X246900D03*
X266900D03*
X276900D03*
X328300Y46734D03*
Y56734D03*
X216900Y155300D03*
X236900D03*
X226900D03*
X328300Y36734D03*
X206900Y155300D03*
X515339Y-4600D03*
X525339D03*
Y5400D03*
X515339D03*
X355200Y195400D03*
G54D22*
X518874Y-51921D03*
X495252D03*
G54D13*
X350400Y-48500D03*
Y-58500D03*
G54D14*
Y-68500D03*
G54D23*
X69800Y245500D03*
Y240500D03*
X64800Y245500D03*
Y240500D03*
X59800Y245500D03*
Y240500D03*
X54800Y245500D03*
Y240500D03*
X49800Y245500D03*
Y240500D03*
G54D24*
G01X4200Y-100547D02*
X535381D01*
G03X545381Y-90547I0J10000D01*
G01Y251353D01*
G03X535381Y261353I-10000J0D01*
G01X4200D01*
G03X-5800Y251353I0J-10000D01*
G01Y-90547D01*
G03X4200Y-100547I10000J0D01*
G54D15*
X35540Y183373D03*
Y20743D03*
G54D16*
Y172743D03*
Y162113D03*
Y151483D03*
Y140853D03*
X24520Y177863D03*
Y167233D03*
Y156603D03*
Y145973D03*
X35540Y10113D03*
Y-517D03*
Y-11147D03*
Y-21777D03*
X24520Y15233D03*
Y4603D03*
Y-6027D03*
Y-16657D03*
G54D17*
X30030Y210143D03*
Y113293D03*
Y47513D03*
Y-49337D03*
G54D18*
X523078Y97411D03*
Y63395D03*
G54D19*
X539535Y97411D03*
Y63395D03*
M02*
